<?xml version="1.0" standalone="no"?>
<!DOCTYPE svg PUBLIC "-//W3C//DTD SVG 1.1//EN" "http://www.w3.org/Graphics/SVG/1.1/DTD/svg11.dtd" >
<svg xmlns="http://www.w3.org/2000/svg">
<metadata></metadata>
<defs>
<font id="pf_encore_sans_pro_bookRg" horiz-adv-x="1818" >
<font-face units-per-em="1000" ascent="750" descent="-250" />
<missing-glyph horiz-adv-x="287" />
<glyph unicode="fj" horiz-adv-x="502" d="M322 -198h-44v65h23q29 0 39.5 15.5t10.5 48.5v493h-182v-424h-75v424h-78v45l77 13v59q0 177 190 177q53 0 110 -10v-60q-77 7 -96 7q-68 0 -98.5 -26t-30.5 -87v-60h259v-552q0 -62 -23.5 -95t-81.5 -33z" />
<glyph unicode="ffj" horiz-adv-x="768" d="M586 -197h-44v65h23q29 0 39.5 15t10.5 49v492h-183v-424h-74v424h-189v-424h-75v424h-78v45l78 12v66q0 84 36 121t116 37q36 0 73 -8q0 -10 -0.5 -29.5t-0.5 -29.5q-38 5 -69 5q-45 0 -62.5 -19t-17.5 -74v-69h188v62q0 177 190 177q52 0 110 -10v-60q-77 7 -96 7 q-68 0 -98.5 -26t-30.5 -87v-63q43 0 129 0.5t129 0.5v-551q0 -63 -23.5 -95.5t-80.5 -32.5z" />
<glyph unicode="fb" horiz-adv-x="837" d="M578 -8q-109 0 -150 74h-4q0 -45 -12 -66h-56v652q-38 4 -59 4q-69 0 -99 -23.5t-30 -84.5v-66h140v-58h-139v-424h-75v424h-78v45l77 13v65q0 172 190 172q37 0 99 -8h48v-210q0 -58 -9 -101h4q23 40 65.5 65t96.5 25q200 0 200 -251q0 -110 -50.5 -178.5t-158.5 -68.5z M574 425q-74 0 -108.5 -50.5t-34.5 -114.5v-54q0 -67 37 -109t102 -42q141 0 141 186q0 184 -137 184z" />
<glyph unicode="ffb" horiz-adv-x="1100" d="M431 547v-66h140v-57h-139v-424h-75v424h-189v-424h-74v424h-79v45l79 12v66q0 84 36 121t115 37q38 0 73 -8q0 -10 -0.5 -29.5t-0.5 -29.5q-38 5 -69 5q-45 0 -62.5 -19.5t-17.5 -73.5v-69h188v65q0 173 190 173q37 0 99 -8h48v-210q0 -57 -9 -102h4q23 40 65 65.5 t97 25.5q200 0 200 -251q0 -110 -50.5 -178.5t-158.5 -68.5q-110 0 -150 74h-4q0 -44 -13 -66h-55v651q-38 4 -59 4q-69 0 -99 -23.5t-30 -84.5zM838 425q-39 0 -68.5 -15.5t-45 -41t-23 -53t-7.5 -56.5v-53q0 -67 37 -109t102 -42q141 0 141 185t-136 185z" />
<glyph unicode="fh" horiz-adv-x="830" d="M430 506q0 -65 -9 -104h4q22 42 65.5 65t97.5 23q58 0 96.5 -17.5t56 -50.5t23.5 -65.5t6 -77.5v-279h-76v278q0 73 -25.5 112.5t-96.5 39.5q-70 0 -106 -51t-36 -118v-261h-74v652q-38 4 -59 4q-69 0 -99 -23.5t-30 -84.5v-66h137v-58h-136v-424h-75v424h-78v45l77 13 v65q0 172 190 172q37 0 99 -8h48v-205z" />
<glyph unicode="ffh" horiz-adv-x="1093" d="M431 547v-66h137v-57h-136v-424h-75v424h-189v-424h-74v424h-79v45l79 12v66q0 84 36 121t115 37q38 0 73 -8q0 -10 -0.5 -29.5t-0.5 -29.5q-38 5 -69 5q-45 0 -62.5 -19t-17.5 -74v-69h188v65q0 173 190 173q37 0 99 -8h48v-205q0 -59 -9 -104h4q22 42 65.5 65t97.5 23 q58 0 96.5 -17.5t56 -50.5t23.5 -65.5t6 -77.5v-279h-76v278q0 73 -25.5 112.5t-96.5 39.5q-70 0 -106 -51t-36 -118v-261h-74v651q-38 4 -59 4q-69 0 -99 -23.5t-30 -84.5z" />
<glyph unicode="fk" horiz-adv-x="760" d="M667 481h86l-186 -215q14 -18 86 -116t111 -150h-91l-168 231h-75v-231h-74q0 108 -0.5 325t-0.5 326q-36 4 -58 4q-69 0 -99 -23.5t-30 -84.5v-66h137v-57h-137v-424h-74v424h-79v44q26 5 78 13v65q0 173 190 173q37 0 99 -8h48v-418h75z" />
<glyph unicode="ffk" horiz-adv-x="1023" d="M431 547v-66h137v-57h-136v-424h-75v424h-189v-424h-74v424h-79v45l79 12v66q0 84 36 121t115 37q38 0 73 -8q0 -10 -0.5 -29.5t-0.5 -29.5q-38 5 -69 5q-45 0 -62.5 -19t-17.5 -74v-69h188v65q0 173 190 173q37 0 99 -8h48v-418h75q27 31 81 94t82 94h85l-186 -215 q14 -18 86 -116t111 -150h-91l-168 231h-75v-231h-74v651q-38 4 -59 4q-69 0 -99 -23.5t-30 -84.5z" />
<glyph unicode="ry" horiz-adv-x="716" d="M137 0h-74v482h56q15 -38 15 -90h4q31 60 85 80t131 20l75 -252q5 -16 16.5 -53t21 -69t16.5 -63h8q13 45 37 116.5t26 77.5l75 232h72q-26 -77 -86 -258.5t-93 -278.5q-26 -75 -59 -112t-101 -37h-56v61h47q49 0 70.5 29.5t47.5 112.5l-38 -2q-17 62 -35.5 124t-31.5 99 t-35.5 103.5t-33.5 97.5q-160 -10 -160 -158v-262z" />
<glyph unicode="ff" horiz-adv-x="596" d="M585 481v-57h-146v-424h-75v424h-190v-424h-75v424h-79v45l79 12v64q0 84 36 121t116 37q37 0 72 -8v-60q-47 6 -69 6q-46 0 -63 -19t-17 -74v-67h190v82q0 84 36 121t117 37q39 0 72 -9v-59q-45 6 -69 6q-58 0 -69.5 -32t-11.5 -146h146z" />
<glyph unicode="fi" horiz-adv-x="502" d="M168 481h258v-481h-75v424h-183v-424h-74v424h-79v44q26 5 78 13v60q0 177 190 177q52 0 110 -10v-60q-66 6 -96 6q-69 0 -99 -25.5t-30 -86.5v-61z" />
<glyph unicode="fl" horiz-adv-x="504" d="M314 482v-58h-145v-424h-75v424h-78v45l77 13v65q0 172 190 172q52 0 109 -10h37v-709h-73v652q-36 4 -59 4q-69 0 -99 -23.5t-30 -84.5v-66h146z" />
<glyph unicode="ffi" horiz-adv-x="768" d="M357 482l1 62q0 93 47.5 135t141.5 42q48 0 110 -11v-60q-51 7 -96 7q-68 0 -98.5 -25.5t-30.5 -86.5v-63h259v-482h-75v424h-183v-424h-75v424h-188v-424h-75v424h-79v45l79 12v67q0 84 36 121t115 37q38 0 73 -9l-1 -58q-50 5 -69 5q-45 0 -62 -19t-17 -75v-68h187z " />
<glyph unicode="ffl" horiz-adv-x="767" d="M577 481v-57h-145v-424h-75v424h-189v-424h-74v424h-79v45l79 12v66q0 84 36 121t115 37q38 0 73 -8q0 -10 -0.5 -29.5t-0.5 -29.5q-38 5 -69 5q-46 0 -63 -18.5t-17 -74.5v-69h188v68q0 172 190 172q52 0 109 -10h37v-711h-72v653q-38 4 -60 4q-69 0 -99 -23.5 t-30 -83.5v-69h146z" />
<glyph unicode="ft" horiz-adv-x="623" d="M440 607v-125h144v-57h-144v-272q0 -55 21 -77t71 -22q40 0 72 4v-59q-38 -7 -82 -7q-87 0 -121.5 35t-34.5 130v268h-192v-425h-75v425h-78v45l78 11v78q0 84 35.5 120.5t116.5 36.5q47 0 76 -8v-58q-37 5 -73 5q-47 0 -63.5 -19t-16.5 -75v-79h196l18 125h52z" />
<glyph unicode=" "  horiz-adv-x="287" />
<glyph unicode="&#x09;" horiz-adv-x="287" />
<glyph unicode="&#xa0;" horiz-adv-x="287" />
<glyph unicode="!" horiz-adv-x="302" d="M183 170h-61q0 19 -5 254.5t-6 254.5h85q0 -19 -6 -254.5t-7 -254.5zM97 45q0 23 16 39.5t40 16.5q23 0 39 -16.5t16 -39.5t-16 -39.5t-39 -16.5q-24 0 -40 16.5t-16 39.5z" />
<glyph unicode="&#x22;" horiz-adv-x="349" d="M266 438h-56l-10 226h79zM142 438h-55l-12 226h78z" />
<glyph unicode="#" horiz-adv-x="593" d="M574 402h-116l-26 -149h114l-8 -50h-115l-33 -203h-66l37 203h-149l-36 -203h-65l37 203h-115l7 50h115l27 149h-115l9 48h116l32 191h63l-32 -191h150l32 191h63l-33 -191h114zM246 402l-26 -149h147l28 149h-149z" />
<glyph unicode="$" horiz-adv-x="593" d="M317 -74v795h42v-76q75 -13 123.5 -52t48.5 -107q0 -15 -1 -22h-64q-2 41 -28 72t-79 42v-213q90 -23 135.5 -65t45.5 -116q0 -71 -47.5 -120t-133.5 -58v-80h-42zM282 721v-795h-40v78q-86 12 -138 60t-52 123q0 11 1 16h67q2 -109 122 -133v246q-86 19 -128.5 53 t-42.5 108q0 59 41.5 108.5t129.5 60.5v75h40zM471 179q0 88 -112 118v-227q54 9 83 39t29 70zM141 478q0 -39 23.5 -59t77.5 -33v193q-52 -9 -76.5 -37t-24.5 -64z" />
<glyph unicode="%" horiz-adv-x="846" d="M240 -29h-65l424 734h66zM196 681q94 0 134.5 -57t40.5 -147q0 -85 -41 -140.5t-134 -55.5q-96 0 -136.5 51t-40.5 145q0 95 43.5 149.5t133.5 54.5zM195 627q-111 0 -111 -150q0 -144 111 -144q52 0 81 36t29 108q0 150 -110 150zM652 395q94 0 134.5 -56.5t40.5 -146.5 q0 -85 -41 -141t-134 -56q-96 0 -136.5 51.5t-40.5 144.5q0 95 43.5 149.5t133.5 54.5zM651 342q-111 0 -111 -151q0 -143 111 -143q52 0 81 36t29 108q0 150 -110 150z" />
<glyph unicode="&#x26;" horiz-adv-x="741" d="M65 165q0 57 39 114.5t108 101.5q-72 83 -72 151q0 60 42.5 105t113.5 45q70 0 110 -38t40 -96q0 -97 -135 -185q156 -206 370 -347l-37 -48q-108 65 -193.5 142.5t-198.5 219.5q-53 -32 -82.5 -73.5t-29.5 -84.5q0 -58 46 -91.5t122 -33.5q63 0 116 16.5t88.5 43 t59.5 61.5t35 71t11 71q0 102 -92 141q0 1 7.5 24t8.5 24q66 -13 106.5 -63t40.5 -121q0 -55 -23 -111t-67 -106t-120.5 -81.5t-172.5 -31.5q-106 0 -173.5 43.5t-67.5 136.5zM295 620q-40 0 -59.5 -28t-19.5 -58q0 -45 57 -122q46 30 70 61.5t24 72.5q0 33 -19 53.5 t-53 20.5z" />
<glyph unicode="'" horiz-adv-x="261" d="M160 438h-56l-12 226h78z" />
<glyph unicode="(" horiz-adv-x="303" d="M126 301q0 -201 151 -384q-30 -28 -41 -37q-83 85 -134.5 193.5t-51.5 222.5q0 116 51.5 225.5t134.5 195.5l43 -36q-153 -187 -153 -380z" />
<glyph unicode=")" horiz-adv-x="303" d="M173 301q0 195 -153 380l43 36q83 -86 134.5 -195.5t51.5 -225.5q0 -114 -52 -222t-134 -194q-24 20 -41 37q151 183 151 384z" />
<glyph unicode="*" horiz-adv-x="451" d="M279 483l80 -97l-66 -46l-65 103l-63 -103l-67 45l78 99l-120 36l25 67l113 -47l-4 118h78l-7 -119l113 48l29 -67z" />
<glyph unicode="+" horiz-adv-x="593" d="M333 239v-158h-72v158h-164v60h164v168h72v-168h163v-60h-163z" />
<glyph unicode="," horiz-adv-x="246" d="M61 49q0 25 17.5 43t42.5 18q27 0 44 -16.5t17 -42.5q0 -18 -8 -33l-90 -183l-31 12l51 145q-19 5 -31 21t-12 36z" />
<glyph unicode="-" horiz-adv-x="476" d="M97 217v68h280v-68h-280z" />
<glyph unicode="." horiz-adv-x="243" d="M61 49q0 25 17.5 43t42.5 18t43 -18t18 -43t-18 -42.5t-43 -17.5t-42.5 17.5t-17.5 42.5z" />
<glyph unicode="/" horiz-adv-x="526" d="M76 -45h-72l446 762h71z" />
<glyph unicode="0" horiz-adv-x="593" d="M298 656q73 0 126 -27t81.5 -76t41.5 -106.5t13 -128.5q0 -52 -8 -97.5t-27 -88t-48 -73t-75 -49t-105 -18.5q-144 0 -204.5 84.5t-60.5 240.5q0 159 65 249t201 90zM296 592q-189 0 -189 -275q0 -262 189 -262q88 0 138 66t50 197q0 274 -188 274z" />
<glyph unicode="1" horiz-adv-x="593" d="M510 64v-64h-427v64h174v503l-148 -23v51l156 52h69v-583h176z" />
<glyph unicode="2" horiz-adv-x="593" d="M295 658q114 0 168.5 -47t54.5 -121q0 -114 -182 -221q-41 -25 -54.5 -33.5t-44 -29t-41 -32.5t-26.5 -31t-21.5 -38t-5.5 -41h386v-64h-468v39q0 40 11 74t27 58t49 51.5t60 45.5t78 49q34 20 54.5 34t46.5 36.5t39 47t13 51.5q0 48 -36 76.5t-103 28.5 q-68 0 -110.5 -34t-46.5 -102h-66q-3 15 -3 28q0 78 65.5 126t155.5 49z" />
<glyph unicode="3" horiz-adv-x="593" d="M282 -8q-100 0 -161 40.5t-61 116.5q0 16 2 25h66q6 -64 45 -91t109 -27q79 0 126.5 38t47.5 115q0 132 -200 132q-25 0 -38 -1l-30 48l211 188l-3 5h-307v66h428v-56l-212 -189l2 -4q104 -2 164.5 -50t60.5 -140q0 -99 -69.5 -157.5t-180.5 -58.5z" />
<glyph unicode="4" horiz-adv-x="593" d="M383 648h68v-423h107v-63h-107v-162h-75v162h-343v54zM130 230l2 -5h244v301l-6 1z" />
<glyph unicode="5" horiz-adv-x="593" d="M533 208q0 -98 -68.5 -157t-179.5 -59q-100 0 -161 40.5t-61 116.5q0 16 2 25h66q12 -118 151 -118q79 0 127 38.5t48 116.5q0 147 -177 147q-79 0 -136 -26l-48 29l43 286h363v-65h-297l-26 -173q52 14 101 14q114 0 183.5 -51t69.5 -164z" />
<glyph unicode="6" horiz-adv-x="593" d="M311 595q-178 0 -182 -282l4 -2q23 48 74 76t105 28q102 0 160 -53.5t58 -156.5q0 -92 -62 -152.5t-169 -60.5q-123 3 -181 76.5t-58 227.5q0 53 5.5 99.5t22.5 96.5t44 85t73.5 58t107.5 23q86 0 140 -40t54 -101q0 -12 -1 -18h-66q-14 96 -129 96zM305 55 q74 0 113 43.5t39 109.5q0 68 -39 106t-113 38q-66 0 -108 -41t-42 -107q0 -65 39.5 -107t110.5 -42z" />
<glyph unicode="7" horiz-adv-x="593" d="M229 0h-84q48 96 143 290t143 291h-363v65h451v-52z" />
<glyph unicode="8" horiz-adv-x="593" d="M411 351l-1 -4q126 -47 126 -171q0 -77 -64.5 -130.5t-176.5 -53.5q-110 0 -174 49t-64 134q0 50 29.5 98.5t101.5 75.5v4q-59 19 -83 59t-24 78q0 64 56 116t158 52q115 0 165.5 -50.5t50.5 -117.5q0 -35 -24.5 -75.5t-75.5 -63.5zM459 173q0 57 -41.5 96.5t-119.5 50.5 q-77 -13 -120 -52t-43 -95q0 -59 48 -88.5t112 -29.5q67 0 115.5 30t48.5 88zM295 593q-57 0 -95.5 -27t-38.5 -75q0 -82 137 -118q58 11 96.5 45t38.5 73q0 50 -37.5 76t-100.5 26z" />
<glyph unicode="9" horiz-adv-x="593" d="M278 55q185 0 187 279l-3 2q-24 -46 -72 -73.5t-102 -27.5q-102 0 -160.5 54t-58.5 156q0 93 61 153t166 60q117 0 179 -79.5t62 -234.5q0 -352 -261 -352q-86 0 -144 40t-58 101q0 12 1 18h66q6 -43 42 -69.5t95 -26.5zM294 594q-74 0 -112.5 -42t-38.5 -110t38 -106 t112 -38q67 0 108 41t41 107q0 64 -39 106t-109 42z" />
<glyph unicode=":" horiz-adv-x="243" d="M61 49q0 25 17.5 43t42.5 18t43 -18t18 -43t-18 -42.5t-43 -17.5t-42.5 17.5t-17.5 42.5zM61 353q0 25 17.5 43t42.5 18t43 -18t18 -43t-18 -42.5t-43 -17.5t-42.5 17.5t-17.5 42.5z" />
<glyph unicode=";" horiz-adv-x="243" d="M61 353q0 25 17.5 43t42.5 18t43 -18t18 -43t-18 -42.5t-43 -17.5t-42.5 17.5t-17.5 42.5zM61 49q0 25 17.5 43t42.5 18q27 0 44 -16.5t17 -42.5q0 -18 -8 -33l-90 -183l-31 12l51 145q-19 5 -31 21t-12 36z" />
<glyph unicode="&#x3c;" horiz-adv-x="593" d="M94 244v50q54 26 203.5 97t202.5 96v-69l-319 -147l319 -148v-70q-231 110 -406 191z" />
<glyph unicode="=" horiz-adv-x="593" d="M496 310h-399v60h399v-60zM496 169h-399v59h399v-59z" />
<glyph unicode="&#x3e;" horiz-adv-x="593" d="M500 294v-50q-158 -72 -406 -191v69l319 149l-319 147v69q278 -133 406 -193z" />
<glyph unicode="?" horiz-adv-x="510" d="M247 701q96 0 148 -42.5t52 -119.5q0 -82 -98 -170q-47 -43 -70.5 -81.5t-23.5 -95.5v-30h-76v17q0 128 97 216q92 82 92 142q0 44 -30.5 71t-89.5 27q-113 0 -127 -111h-67q-2 16 -2 22q0 78 57 116.5t138 38.5zM160 45q0 23 16 39.5t40 16.5q23 0 39 -16.5t16 -39.5 t-16 -39.5t-39 -16.5q-24 0 -40 16.5t-16 39.5z" />
<glyph unicode="@" horiz-adv-x="915" d="M441 533q164 0 164 -134q0 -28 -0.5 -84t-0.5 -84q0 -18 12.5 -30t35.5 -12q116 0 116 178q0 70 -26 125.5t-70 88t-96 49.5t-108 17q-139 0 -232 -90.5t-93 -230.5q0 -142 93.5 -231.5t238.5 -89.5q119 0 217 40l20 -54q-115 -44 -232 -44q-177 0 -290.5 103.5 t-113.5 275.5q0 159 110.5 267.5t280.5 108.5q162 0 264 -89.5t102 -244.5q0 -118 -48.5 -179t-133.5 -61q-19 0 -38 5t-38.5 20t-25.5 38h-4q-46 -66 -142 -66q-62 0 -102 29.5t-40 87.5q0 70 54.5 102t137.5 32q44 0 85 -6v23q0 84 -98 84q-77 0 -86 -58h-62q-1 4 -1 10 q0 55 46 79.5t104 24.5zM410 182q59 0 93.5 32t34.5 71v29q-37 8 -83 8q-56 0 -89 -20t-33 -60q0 -26 20.5 -43t56.5 -17z" />
<glyph unicode="A" horiz-adv-x="607" d="M515 0l-66 174h-295l-63 -174h-81l254 676h76l257 -676h-82zM304 582h-6q-12 -44 -57 -167l-64 -176h250l-64 170q-54 155 -59 173z" />
<glyph unicode="B" horiz-adv-x="608" d="M434 357v-6q56 -14 89 -56t33 -101q0 -91 -57.5 -142.5t-165.5 -51.5h-268v675h273q93 0 144 -45t51 -127q0 -46 -25 -86t-74 -60zM332 607h-191v-222h191q55 0 89 31t34 80q0 52 -33.5 81.5t-89.5 29.5zM334 318h-193v-249h189q69 0 107.5 31t38.5 92q0 62 -40 94 t-102 32z" />
<glyph unicode="C" horiz-adv-x="613" d="M341 -8q-154 0 -220 87t-66 254q0 162 69 254.5t216 92.5q97 0 165 -49t68 -138q0 -5 -2 -17h-71q-4 61 -45.5 98.5t-117.5 37.5q-204 0 -204 -279q0 -133 48.5 -203t157.5 -70q85 0 126 41.5t43 105.5h72q2 -12 2 -17q0 -91 -68.5 -144.5t-172.5 -53.5z" />
<glyph unicode="D" horiz-adv-x="630" d="M141 70h106q36 0 68 6t67.5 23.5t61 46t42 77.5t16.5 113q0 66 -17 116t-43 78.5t-62 46t-67.5 23.5t-65.5 6h-106v-536zM65 0v674h194q62 0 116 -17.5t101.5 -55t75 -106t27.5 -161.5q0 -154 -88 -244t-231 -90h-195z" />
<glyph unicode="E" horiz-adv-x="549" d="M65 0v674h436v-68h-360v-226h330v-70h-330v-239h370v-71h-446z" />
<glyph unicode="F" horiz-adv-x="541" d="M69 0v674h447v-69h-371v-232h326v-70h-326v-303h-76z" />
<glyph unicode="G" horiz-adv-x="659" d="M343 683q102 0 170.5 -48.5t68.5 -136.5q0 -8 -2 -20h-70q-3 60 -45 97.5t-123 37.5q-209 0 -209 -279q0 -276 209 -276q56 0 95 16t59.5 44t29 58.5t8.5 66.5v51h-163v66h237v-110q0 -118 -66 -188.5t-202 -70.5q-285 0 -285 342q0 161 71 255.5t217 94.5z" />
<glyph unicode="H" horiz-adv-x="658" d="M517 0v311h-376v-311h-76v675h76v-294h376v294h76v-675h-76z" />
<glyph unicode="I" horiz-adv-x="246" d="M85 0v674h76v-674h-76z" />
<glyph unicode="J" horiz-adv-x="543" d="M235 -8q-95 0 -155 43.5t-60 121.5q0 14 3 29h71q2 -126 142 -126q87 0 120.5 44t33.5 126v444h76v-462q0 -40 -9.5 -75t-32.5 -69.5t-71.5 -55t-117.5 -20.5z" />
<glyph unicode="K" horiz-adv-x="556" d="M141 674v-292h97l227 292h89l-255 -324l264 -350h-96l-230 312h-96v-312h-76v674h76z" />
<glyph unicode="L" horiz-adv-x="517" d="M65 0v674h78v-604h364v-70h-442z" />
<glyph unicode="M" horiz-adv-x="795" d="M161 674l113 -233q75 -154 120 -266h6q64 153 115 258l116 241h94v-674h-77v551h-4q-32 -77 -54 -124l-159 -330h-68l-136 277q-45 92 -79 175h-4v-549h-76v674h93z" />
<glyph unicode="N" horiz-adv-x="664" d="M146 547q-1 -1 -4 -1v-546h-77v674h72l227 -319q36 -51 153 -226h5v545h77v-674h-72l-247 348q-98 137 -134 199z" />
<glyph unicode="O" horiz-adv-x="684" d="M345 681q284 0 284 -350q0 -69 -14 -126t-45.5 -107t-89.5 -78t-138 -28q-157 0 -222 88t-65 250q0 164 70.5 257.5t219.5 93.5zM344 611q-211 0 -211 -281q0 -270 209 -270q99 0 153 67.5t54 203.5q0 280 -205 280z" />
<glyph unicode="P" horiz-adv-x="577" d="M330 243h-189v-243h-76v674h271q106 0 165 -61.5t59 -155.5q0 -37 -11.5 -72.5t-36.5 -68.5t-72 -53t-110 -20zM332 606h-191v-294h187q64 0 109 36t45 108q0 67 -41.5 108.5t-108.5 41.5z" />
<glyph unicode="Q" horiz-adv-x="675" d="M342 681q284 0 284 -349q0 -76 -15.5 -138t-58 -114t-108.5 -72q61 -26 167 -58l-26 -65q-159 52 -244 107q-81 0 -138.5 24t-89.5 70.5t-46.5 106t-14.5 138.5q0 164 70.5 257t219.5 93zM340 611q-210 0 -210 -281q0 -270 210 -270q97 0 151.5 68t54.5 203 q0 280 -206 280z" />
<glyph unicode="R" horiz-adv-x="582" d="M546 472q0 -34 -11 -66t-33.5 -61.5t-64.5 -48.5t-98 -22l207 -274h-93q-10 12 -55 73t-94.5 127t-54.5 73h-108v-273h-76v674h256q107 0 166 -55t59 -147zM313 606h-172v-264h172q66 0 110.5 30t44.5 101q0 62 -44 97.5t-111 35.5z" />
<glyph unicode="S" horiz-adv-x="622" d="M312 60q93 0 137 35.5t44 85.5q0 61 -42.5 92.5t-133.5 42.5q-44 5 -73 10.5t-64.5 18t-56.5 29.5t-35.5 46t-14.5 67q0 83 59 139t187 56q93 0 164 -45.5t71 -132.5q0 -6 -2 -22h-73q-2 56 -44 92.5t-121 36.5q-81 0 -122 -32t-41 -81q0 -24 10 -41.5t23 -27.5t43 -18.5 t51.5 -12.5t68.5 -11q111 -16 168.5 -61.5t57.5 -137.5q0 -82 -66.5 -139.5t-196.5 -57.5q-113 0 -187 49t-74 144q0 9 2 27h72q2 -66 49 -108.5t140 -42.5z" />
<glyph unicode="T" horiz-adv-x="565" d="M322 606v-606h-76v606h-231v68h535v-68h-228z" />
<glyph unicode="U" horiz-adv-x="660" d="M595 674v-407q0 -275 -260 -275q-148 0 -209 70t-61 207v405h76v-408q0 -113 49.5 -159.5t145.5 -46.5q183 0 183 207v407h76z" />
<glyph unicode="V" horiz-adv-x="595" d="M341 0h-94l-234 674h80q20 -57 59 -171t59 -171q67 -196 81 -256h6q17 68 84 258q22 64 62.5 179.5t55.5 160.5h80q-51 -145 -239 -674z" />
<glyph unicode="W" horiz-adv-x="888" d="M444 561h-4q-19 -83 -161 -561h-84l-184 674h83l69 -273q10 -47 35 -147t37 -155h6q36 145 66 241q18 57 50 168.5t48 165.5h75l84 -279q65 -222 84 -297h5q27 119 72 298l69 278h82l-182 -674h-84l-104 343q-52 173 -62 218z" />
<glyph unicode="X" horiz-adv-x="565" d="M464 0l-183 295q-29 -45 -89.5 -145t-92.5 -150h-91l229 350q-30 48 -210 324h88l166 -269q28 44 83.5 134.5t83.5 134.5h87l-210 -324q107 -160 230 -350h-91z" />
<glyph unicode="Y" horiz-adv-x="558" d="M272 344h9q13 35 88 173l86 157h88l-231 -403v-271h-77v271l-226 403h88l89 -163q61 -111 86 -167z" />
<glyph unicode="Z" horiz-adv-x="569" d="M31 0v64l406 541h-384v70h476v-64l-404 -542h414v-69h-508z" />
<glyph unicode="[" horiz-adv-x="297" d="M73 -117l-1 827h164v-60h-94v-707h94v-60h-163z" />
<glyph unicode="\" horiz-adv-x="541" d="M525 -45h-72l-445 762h71z" />
<glyph unicode="]" horiz-adv-x="297" d="M225 710v-827h-165v60h94v707h-94v60h165z" />
<glyph unicode="^" horiz-adv-x="593" d="M266 664h60q32 -65 103 -205t107 -214h-77l-165 332q-7 -14 -80.5 -166t-80.5 -166h-77q40 82 116 233t94 186z" />
<glyph unicode="_" horiz-adv-x="515" d="M7 -97v59h500v-59h-500z" />
<glyph unicode="`" horiz-adv-x="541" d="M381 576l-40 -33l-143 143l67 52z" />
<glyph unicode="a" horiz-adv-x="500" d="M247 490q194 0 194 -164v-326h-58q-12 21 -12 68h-4q-50 -76 -165 -76q-75 0 -121 35t-46 106q0 58 33.5 96t82 52t111.5 14q51 0 104 -8v30q0 111 -119 111q-96 0 -110 -74h-67q-1 5 -1 12q0 65 54 94.5t124 29.5zM209 52q75 0 116.5 40.5t41.5 92.5v42q-44 10 -103 10 q-70 0 -112 -26t-42 -79q0 -34 26.5 -57t72.5 -23z" />
<glyph unicode="b" horiz-adv-x="541" d="M282 -8q-109 0 -150 74h-4q0 -45 -12 -66h-56v711h74v-210q0 -61 -10 -101l5 -1q23 40 65 65.5t97 25.5q200 0 200 -251q0 -110 -50.5 -178.5t-158.5 -68.5zM279 425q-51 0 -85.5 -27.5t-46.5 -63t-12 -74.5v-54q0 -67 37 -109t102 -42q141 0 141 186q0 184 -136 184z " />
<glyph unicode="c" horiz-adv-x="487" d="M269 490q73 0 125.5 -34.5t52.5 -101.5q0 -9 -2 -17h-67q-3 42 -34 63.5t-76 21.5q-142 0 -142 -183q0 -182 142 -182q53 0 85.5 26.5t34.5 76.5h66q2 -12 2 -18q0 -68 -52 -109t-132 -41q-222 0 -222 241q0 118 53 187.5t166 69.5z" />
<glyph unicode="d" horiz-adv-x="540" d="M252 -8q-203 0 -203 245q0 115 54.5 184t158.5 69q91 0 140 -60h4v280h74v-710h-57q-12 22 -12 69h-4q-48 -77 -155 -77zM264 55q65 0 103 43t38 108v73q0 33 -10.5 63.5t-44 56.5t-85.5 26q-70 0 -105 -50t-35 -137q0 -183 139 -183z" />
<glyph unicode="e" horiz-adv-x="516" d="M265 425q-63 0 -97.5 -39t-39.5 -104h265q0 66 -31.5 104.5t-96.5 38.5zM265 490q100 0 150.5 -57.5t50.5 -147.5q0 -30 -6 -60h-335q0 -169 146 -169q116 0 124 92h67q1 -6 1 -17q0 -67 -56.5 -103.5t-136.5 -36.5q-221 0 -221 247q0 111 54 181.5t162 70.5z" />
<glyph unicode="f" horiz-adv-x="349" d="M186 482h148v-58h-148v-424h-75v424h-79v45l79 12v77q0 85 35.5 121.5t116.5 36.5q37 0 72 -8l-1 -58q-50 5 -68 5q-47 0 -63.5 -19t-16.5 -76v-78z" />
<glyph unicode="g" horiz-adv-x="552" d="M449 427q0 -1 -0.5 -3t-0.5 -3q43 -40 43 -110q0 -78 -57 -128.5t-157 -50.5q-68 0 -124 22q-20 -16 -20 -33q0 -13 13.5 -23t41 -16t50 -9.5t60 -7.5t51.5 -6q160 -23 160 -129q0 -75 -68 -109t-179 -34q-217 0 -217 134q0 69 72 119q-60 22 -60 74q0 43 46 75 q-47 46 -47 120q0 76 54.5 128.5t164.5 52.5q53 0 90 -10h155v-41q-25 -9 -71 -12zM274 432q-75 0 -110.5 -34.5t-35.5 -87.5t36 -86.5t111 -33.5q67 0 105.5 33.5t38.5 87.5q0 50 -34.5 85.5t-110.5 35.5zM300 6l-108 14q-72 -37 -72 -96q0 -35 36 -56.5t109 -21.5 q71 0 119 19.5t48 64.5q0 29 -27.5 47.5t-104.5 28.5z" />
<glyph unicode="h" horiz-adv-x="534" d="M125 402h4q22 42 65.5 65t97.5 23q58 0 96.5 -17.5t56 -50.5t23.5 -65.5t6 -77.5v-279h-76v278q0 73 -25.5 112.5t-96.5 39.5q-70 0 -106 -51t-36 -118v-261h-74v711h74v-205q0 -65 -9 -104z" />
<glyph unicode="i" horiz-adv-x="248" d="M86 0v482h74v-482h-74zM75 621q0 21 14.5 35.5t34.5 14.5q21 0 35.5 -14.5t14.5 -35.5q0 -20 -14.5 -34.5t-35.5 -14.5q-20 0 -34.5 14.5t-14.5 34.5z" />
<glyph unicode="j" horiz-adv-x="240" d="M54 -202h-43v65h23q28 0 39 15.5t11 49.5v554h75v-555q0 -63 -23 -96t-82 -33zM72 621q0 21 14.5 35.5t35.5 14.5q20 0 34.5 -14.5t14.5 -35.5q0 -20 -14.5 -34.5t-34.5 -14.5q-21 0 -35.5 14.5t-14.5 34.5z" />
<glyph unicode="k" horiz-adv-x="472" d="M370 482h85l-182 -216l195 -266h-90l-166 234h-78v-234h-74v711h74v-417h79z" />
<glyph unicode="l" horiz-adv-x="228" d="M70 710h74v-621q0 -23 9 -29.5t41 -6.5v-54q-27 -7 -46 -7q-27 0 -43.5 6t-23.5 20.5t-9 28.5t-2 41v622z" />
<glyph unicode="m" horiz-adv-x="837" d="M588 430q-67 0 -100 -48.5t-33 -114.5v-267h-75v275q0 74 -23 114.5t-90 40.5t-100 -48.5t-33 -114.5v-267h-74v482h58q14 -24 14 -72h4q23 41 64.5 60.5t82.5 19.5q117 0 152 -89q60 90 169 90q56 0 92.5 -16.5t53 -48t22 -63t5.5 -76.5v-287h-76v276q0 75 -23 114.5 t-90 39.5z" />
<glyph unicode="n" horiz-adv-x="534" d="M293 491q58 0 96 -17.5t55.5 -50.5t23.5 -65t6 -76v-282h-76v278q0 72 -25 112t-96 40q-67 0 -105 -49.5t-38 -113.5v-267h-74v482h56q16 -27 16 -71h4q26 39 71.5 59.5t85.5 20.5z" />
<glyph unicode="o" horiz-adv-x="543" d="M273 490q61 0 105 -21t68.5 -57.5t35.5 -79t11 -92.5q0 -49 -11 -91t-35.5 -78.5t-69 -57.5t-104.5 -21q-223 0 -223 246q0 113 56 182.5t167 69.5zM273 422q-147 0 -147 -184q0 -181 147 -181q143 0 143 183q0 182 -143 182z" />
<glyph unicode="p" horiz-adv-x="541" d="M292 490q106 0 153 -67.5t47 -177.5q0 -115 -54.5 -184t-152.5 -69q-101 0 -146 61h-4v-258h-75v687h58q15 -28 15 -73h4q24 41 67 61t88 20zM277 427q-65 0 -103 -43t-38 -108v-74q0 -33 10.5 -63.5t44 -56.5t85.5 -26q70 0 105 50.5t35 137.5q0 183 -139 183z" />
<glyph unicode="q" horiz-adv-x="541" d="M50 242q0 107 51.5 177.5t152.5 70.5q110 0 156 -75h4q1 42 14 67h53v-687h-74v182q0 65 9 107h-4q-23 -40 -65.5 -66t-96.5 -26q-200 0 -200 250zM262 57q50 0 84.5 27.5t47 63t12.5 74.5v54q0 67 -37 109.5t-102 42.5q-141 0 -141 -190q0 -181 136 -181z" />
<glyph unicode="r" horiz-adv-x="314" d="M137 0h-74v482h56q15 -38 15 -90h4q21 52 69.5 76t101.5 24l5 -71q-93 -3 -135 -41t-42 -114v-266z" />
<glyph unicode="s" horiz-adv-x="467" d="M238 54q54 0 82.5 23.5t28.5 54.5q0 41 -26.5 59t-90.5 25q-43 5 -68.5 10.5t-54.5 19t-43 38.5t-14 62q0 61 44 102.5t139 41.5q42 0 80 -11t66.5 -39t28.5 -68q0 -7 -2 -17h-70q-5 35 -34.5 53.5t-72.5 18.5q-52 0 -78.5 -21t-26.5 -52q0 -16 6 -27.5t14.5 -18.5 t28 -12.5t34.5 -8t46 -7.5q87 -12 128 -43t41 -100q0 -60 -49.5 -102.5t-145.5 -42.5q-76 0 -133.5 34t-57.5 103q0 5 2 21h70q4 -50 40 -73t88 -23z" />
<glyph unicode="t" horiz-adv-x="355" d="M175 607v-125h143v-58h-143v-271q0 -60 23 -79.5t81 -19.5q24 0 59 5v-60q-41 -7 -81 -7q-87 0 -122 34.5t-35 130.5v267h-79v48l83 10l18 125h53z" />
<glyph unicode="u" horiz-adv-x="524" d="M463 482v-482h-55q-14 22 -14 71h-4q-27 -40 -70 -59.5t-83 -19.5q-55 0 -92.5 16.5t-55 47t-24 61t-6.5 71.5v294h76v-281q0 -74 23.5 -111t94.5 -37q66 0 101 48.5t35 113.5v267h74z" />
<glyph unicode="v" horiz-adv-x="471" d="M233 77h7q22 86 79 236l63 169h74l-183 -485h-78l-182 485h76l65 -173q56 -153 79 -232z" />
<glyph unicode="w" horiz-adv-x="698" d="M351 373h-7q-18 -81 -56 -208l-51 -167h-79l-147 483h75l43 -148q54 -189 66 -246h8q19 84 50 189q16 55 64 205h66l50 -162q26 -85 66 -233h7q15 75 57 225l48 170h74l-146 -483h-78q-2 7 -21.5 69t-36.5 119q-39 139 -52 187z" />
<glyph unicode="x" horiz-adv-x="448" d="M353 0l-129 197l-128 -197h-86l172 251l-160 231h87l115 -177q83 124 115 177h86l-159 -231l172 -251h-85z" />
<glyph unicode="y" horiz-adv-x="448" d="M216 55h8q12 43 34 109t28 85l75 232h73l-178 -536q-25 -76 -58.5 -112.5t-101.5 -36.5h-57v61h48q37 0 58 14.5t34 51.5l25 75l-38 -3q-16 63 -58 186l-99 300h79q4 -12 32.5 -107.5t35.5 -114.5q43 -137 60 -204z" />
<glyph unicode="z" horiz-adv-x="440" d="M20 0v50l300 370h-279v62h368v-54l-299 -369h304v-59h-394z" />
<glyph unicode="{" horiz-adv-x="341" d="M140 285v-5q60 -28 60 -131v-159q0 -50 44 -50h34v-58h-46q-45 0 -72.5 28.5t-27.5 76.5v160q0 52 -13.5 76.5t-53.5 35.5v46q38 9 52 34.5t14 77.5v179q0 110 92 110h55v-56h-34q-43 0 -43 -53v-180q0 -107 -61 -132z" />
<glyph unicode="|" horiz-adv-x="292" d="M109 -117v834h71v-834h-71z" />
<glyph unicode="}" horiz-adv-x="341" d="M200 280v6q-60 25 -60 131v180q0 53 -43 53h-35v56h56q91 0 91 -110v-179q0 -52 14 -77.5t53 -34.5v-46q-40 -11 -54 -35.5t-14 -76.5v-160q0 -49 -27 -77t-72 -28h-47v58h34q45 0 45 50v159q0 103 59 131z" />
<glyph unicode="~" horiz-adv-x="593" d="M406 215q-45 0 -117 27.5t-91 27.5q-42 0 -91 -54l-39 30q19 44 53 68t74 24q35 0 112 -28t100 -28q43 0 82 51l46 -24q-18 -43 -53 -68.5t-76 -25.5z" />
<glyph unicode="&#xa1;" horiz-adv-x="302" d="M123 307h61q0 -15 13 -509h-85q1 20 6 255t5 254zM98 432q0 23 16 39t40 16q23 0 39 -16t16 -39q0 -24 -16 -40t-39 -16q-24 0 -40 16t-16 40z" />
<glyph unicode="&#xa2;" horiz-adv-x="593" d="M286 568v140h41v-140q68 -3 114.5 -37.5t46.5 -100.5v-11h-68q-2 36 -27.5 57.5t-65.5 25.5v-359q48 3 75 29t28 71h66v-12q0 -68 -46.5 -109t-122.5 -45v-143h-41v144q-190 15 -190 237q0 109 46.5 176.5t143.5 76.5zM171 321q0 -161 115 -177v357q-115 -16 -115 -180z " />
<glyph unicode="&#xa3;" horiz-adv-x="593" d="M321 591q-67 0 -103.5 -32.5t-36.5 -89.5q0 -59 21 -97h194v-57h-178q8 -43 8 -95q0 -85 -41 -156h335v-64h-457v64h41q49 86 49 159q0 37 -15 92h-75v57h62q-18 63 -18 106q0 78 56.5 128.5t150.5 50.5q96 0 151 -38.5t55 -100.5q0 -11 -1 -17h-66q-13 90 -132 90z" />
<glyph unicode="&#xa4;" horiz-adv-x="593" d="M97 291q0 57 36 114l-53 54l50 48l52 -54q55 37 113 37q62 0 115 -38l52 52l49 -48l-54 -54q35 -49 35 -111t-35 -112l55 -53l-50 -49l-53 51q-55 -35 -114 -35q-57 0 -114 35l-49 -52l-50 50l51 49q-36 48 -36 116zM161 290q0 -55 39 -94t94 -39t94 39t39 94 q0 56 -39 95t-94 39t-94 -39.5t-39 -94.5z" />
<glyph unicode="&#xa5;" horiz-adv-x="593" d="M523 269h-442v44h153l-190 334h84l86 -154q64 -115 84 -162h10q30 71 84 167l85 149h83l-194 -334h157v-44zM81 223h442v-43h-185v-180h-76v180h-181v43z" />
<glyph unicode="&#xa6;" horiz-adv-x="346" d="M131 278h75v-394h-75v394zM206 335h-75v371h75v-371z" />
<glyph unicode="&#xa7;" horiz-adv-x="542" d="M480 283q0 -92 -94 -129q85 -43 85 -120q0 -58 -49 -102t-156 -44q-47 0 -88 11t-72 42.5t-31 78.5v8h74q8 -37 41 -57t79 -20q61 0 93 22.5t32 55.5q0 30 -28.5 52t-92.5 42q-51 15 -79 26t-59.5 30t-45.5 46.5t-14 64.5q0 41 22.5 76t65.5 54q-74 36 -74 109 q0 60 45 104.5t147 44.5q45 0 84 -11.5t68 -42.5t29 -78v-7h-70q-7 38 -37.5 57.5t-75.5 19.5q-59 0 -88 -24t-29 -59q0 -30 30.5 -49t91.5 -38q39 -11 62.5 -19t52 -22.5t44 -30t26.5 -39t11 -52.5zM408 279q0 77 -152 108q-52 -4 -80 -31.5t-28 -61.5q0 -40 34 -64 t102 -41q60 2 92 28t32 62z" />
<glyph unicode="&#xa8;" horiz-adv-x="530" d="M134 612q0 18 13 31.5t32 13.5q18 0 31.5 -13.5t13.5 -31.5q0 -19 -13.5 -32t-31.5 -13q-19 0 -32 13t-13 32zM306 612q0 18 13 31.5t31 13.5q19 0 32 -13.5t13 -31.5q0 -19 -13 -32t-32 -13q-18 0 -31 13t-13 32z" />
<glyph unicode="&#xa9;" horiz-adv-x="821" d="M415 106q-107 0 -153.5 60t-46.5 173q0 108 48.5 174.5t149.5 66.5q69 0 117 -34.5t48 -95.5q0 -11 -1 -17h-56q-2 43 -29.5 70t-82.5 27q-70 0 -102 -52t-32 -139q0 -90 30.5 -136t102.5 -46q60 0 89.5 29.5t29.5 73.5h56q0 -3 0.5 -7.5t0.5 -6.5q0 -65 -49.5 -102.5 t-119.5 -37.5zM412 -13q-163 0 -260 102.5t-97 264.5q0 157 104 260.5t253 103.5q148 0 251.5 -103.5t103.5 -260.5t-104 -262t-251 -105zM412 662q-125 0 -212.5 -89.5t-87.5 -218.5q0 -134 84.5 -223t215.5 -89q125 0 211.5 91t86.5 221q0 129 -86.5 218.5t-211.5 89.5z " />
<glyph unicode="&#xaa;" horiz-adv-x="346" d="M143 328q48 0 75 25t27 56v25q-29 5 -65 5q-44 0 -71.5 -17t-27.5 -48q0 -20 16.5 -33t45.5 -13zM248 328h-4q-42 -50 -106 -50q-52 0 -84.5 24.5t-32.5 72.5q0 58 44.5 83.5t113.5 25.5q30 0 65 -5v15q0 66 -76 66q-61 0 -71 -47h-52q-1 4 -1 11q0 44 37.5 64.5 t86.5 20.5q135 0 135 -110v-215h-45q-8 15 -10 44z" />
<glyph unicode="&#xab;" horiz-adv-x="468" d="M233 14q-33 37 -93 107.5t-80 93.5v24q75 85 170 199l42 -32l-131 -179l133 -178q-39 -33 -41 -35zM388 14q-32 36 -90 104.5t-82 96.5v24l170 199l42 -32l-132 -179l134 -178q-28 -24 -42 -35z" />
<glyph unicode="&#xac;" horiz-adv-x="593" d="M496 299v-218h-73v158h-326v60h399z" />
<glyph unicode="&#xad;" horiz-adv-x="476" d="M97 217v68h280v-68h-280z" />
<glyph unicode="&#xae;" horiz-adv-x="576" d="M517 461q0 -98 -69.5 -167.5t-168.5 -69.5q-106 0 -171.5 68t-65.5 169q0 98 69.5 168t167.5 70q102 0 170 -69.5t68 -168.5zM474 461q0 81 -57.5 139t-137.5 58q-82 0 -138 -57.5t-56 -139.5t55 -139t139 -57q80 0 137.5 58t57.5 138zM323 449l61 -119h-48l-56 113h-44 v-113h-41v275h90q40 0 65.5 -21t25.5 -62q0 -24 -13.5 -44t-39.5 -29zM287 565h-51v-84h52q46 0 46 42t-47 42z" />
<glyph unicode="&#xaf;" horiz-adv-x="529" d="M123 594v61h302v-61h-302z" />
<glyph unicode="&#xb0;" horiz-adv-x="397" d="M194 399q-58 0 -99.5 40t-41.5 96q0 57 41 95.5t100 38.5q58 0 99 -39t41 -95t-41.5 -96t-98.5 -40zM192 618q-34 0 -59.5 -24.5t-25.5 -58.5t25.5 -59.5t59.5 -25.5q35 0 60 25t25 60q0 34 -25 58.5t-60 24.5z" />
<glyph unicode="&#xb1;" horiz-adv-x="593" d="M333 248v-154h-72v154h-164v60h164v155h72v-155h163v-60h-163zM97 59h399v-59h-399v59z" />
<glyph unicode="&#xb2;" horiz-adv-x="366" d="M185 770q74 0 109.5 -29.5t35.5 -75.5q0 -70 -118 -133q-79 -43 -97 -61q-19 -19 -22 -42h242v-54h-308v30q0 56 32.5 89t111.5 77q24 13 33.5 19t27.5 19t25.5 26t7.5 27q0 25 -19.5 40.5t-56.5 15.5q-41 0 -66 -20t-27 -59h-49q-3 12 -3 23q0 49 41 78t100 30z" />
<glyph unicode="&#xb3;" horiz-adv-x="362" d="M204 627q1 -1 1 -2t0.5 -1.5t0.5 -1.5q58 -4 92.5 -34.5t34.5 -82.5q0 -60 -47.5 -96.5t-120.5 -36.5q-66 0 -106 26t-40 73q0 12 1 22h54q4 -38 26.5 -53.5t63.5 -15.5q47 0 76 20.5t29 61.5q0 71 -104 71q-25 0 -45 -4l-21 38q18 14 38 30.5t44.5 37t37.5 31.5 q0 1 -0.5 2.5t-0.5 2.5h-182v51h282v-43z" />
<glyph unicode="&#xb4;" horiz-adv-x="530" d="M254 545l-40 34l124 156l63 -54z" />
<glyph unicode="&#xb6;" horiz-adv-x="527" d="M451 692v-674q0 -70 -35.5 -115.5t-121.5 -45.5q-5 0 -16 0.5t-15 0.5v57q73 3 99 27.5t26 81.5v668h63zM334 326h-92q-79 0 -131.5 53t-52.5 130q0 76 53 129.5t131 53.5h92v-366z" />
<glyph unicode="&#xb7;" horiz-adv-x="236" d="M57 264q0 26 17.5 43.5t43.5 17.5t43.5 -17.5t17.5 -43.5t-17.5 -43.5t-43.5 -17.5t-43.5 17.5t-17.5 43.5z" />
<glyph unicode="&#xb8;" horiz-adv-x="502" d="M254 -216q-49 0 -98 17l13 40q44 -14 77 -14q29 0 46.5 12t17.5 33q0 42 -55 42q-25 0 -40 -7l-22 17l50 97h52q-14 -22 -38 -66q63 0 90 -25.5t27 -56.5q0 -39 -30.5 -63.5t-89.5 -25.5z" />
<glyph unicode="&#xb9;" horiz-adv-x="356" d="M321 428v-53h-288v53h111v272l-95 -12v46l105 32h54v-338h113z" />
<glyph unicode="&#xba;" horiz-adv-x="365" d="M183 610q80 0 115.5 -46.5t35.5 -118.5q0 -71 -35.5 -117.5t-115.5 -46.5q-153 0 -153 162q0 76 38.5 121.5t114.5 45.5zM183 556q-93 0 -93 -113q0 -110 93 -110q43 0 66.5 28.5t23.5 83.5q0 111 -90 111z" />
<glyph unicode="&#xbb;" horiz-adv-x="468" d="M431 215q-30 -35 -87.5 -102.5t-84.5 -98.5q-8 6 -42 35l134 178l-132 179l42 32l170 -199v-24zM275 215q-114 -134 -172 -201q-14 11 -42 35l134 178q-120 163 -131 179l41 32l170 -199v-24z" />
<glyph unicode="&#xbc;" horiz-adv-x="846" d="M277 -29h-65l424 734h66zM338 338v-53h-288v53h111v272l-95 -12v46l105 32h54v-338h113zM672 391h53v-245h68v-53h-68v-93h-67v93h-215v42zM529 146h129v148z" />
<glyph unicode="&#xbd;" horiz-adv-x="846" d="M237 -29h-65l424 734h66zM322 338v-53h-288v53h111v272l-95 -12v46l105 32h54v-338h113zM653 394q74 0 110 -29t36 -75q0 -68 -119 -134q-79 -42 -98 -60q-18 -20 -21 -42h242v-54h-308v30q0 56 32 88.5t112 77.5q24 13 33.5 19t27.5 19t25.5 26t7.5 27q0 25 -20 40 t-57 15q-40 0 -65 -20t-27 -59h-50q-2 9 -2 23q0 49 41 78.5t100 29.5z" />
<glyph unicode="&#xbe;" horiz-adv-x="846" d="M267 -29h-65l424 734h66zM237 537q1 -1 1 -2t0.5 -1.5t0.5 -1.5q58 -4 92.5 -34.5t34.5 -82.5q0 -60 -47.5 -96.5t-120.5 -36.5q-66 0 -106 26t-40 73q0 12 1 22h54q4 -38 26.5 -53.5t63.5 -15.5q47 0 76 20.5t29 61.5q0 71 -104 71q-25 0 -45 -4l-21 38q18 14 38 30.5 t44.5 37t37.5 31.5q0 1 -0.5 2.5t-0.5 2.5h-182v51h282v-43zM681 391h53v-245h68v-53h-68v-93h-67v93h-215v42zM538 146h129v148z" />
<glyph unicode="&#xbf;" horiz-adv-x="475" d="M255 -219q-96 0 -148 42.5t-52 119.5q0 79 97 170q31 29 48.5 49t32 54t14.5 74v30h76v-17q0 -128 -97 -216q-92 -83 -92 -142q0 -44 30 -71t90 -27q113 0 127 110h67q1 -7 1 -22q0 -77 -56.5 -115.5t-137.5 -38.5zM342 437q0 -24 -16 -40t-40 -16q-23 0 -39 16t-16 40 q0 23 16 39t39 16q24 0 40 -16t16 -39z" />
<glyph unicode="&#xc0;" horiz-adv-x="607" d="M515 0l-66 174h-295l-63 -174h-81l254 676h76l257 -676h-82zM304 582h-6q-12 -44 -57 -167l-64 -176h250l-64 170q-54 155 -59 173zM339 764l-29 -41l-178 92l53 67z" />
<glyph unicode="&#xc1;" horiz-adv-x="607" d="M515 0l-66 174h-295l-63 -174h-81l254 676h76l257 -676h-82zM304 582h-6q-12 -44 -57 -167l-64 -176h250l-64 170q-54 155 -59 173zM300 726l-30 41l155 118l52 -67z" />
<glyph unicode="&#xc2;" horiz-adv-x="607" d="M515 0l-66 174h-295l-63 -174h-81l254 676h76l257 -676h-82zM304 582h-6q-12 -44 -57 -167l-64 -176h250l-64 170q-54 155 -59 173zM427 723l-125 102l-131 -102q0 1 -16.5 17t-16.5 17l135 133h60l131 -133z" />
<glyph unicode="&#xc3;" horiz-adv-x="607" d="M515 0l-66 174h-295l-63 -174h-81l254 676h76l257 -676h-82zM304 582h-6q-12 -44 -57 -167l-64 -176h250l-64 170q-54 155 -59 173zM367 763q-25 0 -70.5 18t-65.5 18q-32 0 -67 -39l-35 29q13 34 42 54t60 20q22 0 64.5 -17.5t65.5 -17.5q36 0 67 37l38 -27 q-12 -35 -40 -55t-59 -20z" />
<glyph unicode="&#xc4;" horiz-adv-x="607" d="M515 0l-66 174h-295l-63 -174h-81l254 676h76l257 -676h-82zM304 582h-6q-12 -44 -57 -167l-64 -176h250l-64 170q-54 155 -59 173zM170 800q0 19 13 32t31 13q19 0 32 -13t13 -32q0 -18 -13 -31.5t-32 -13.5q-18 0 -31 13.5t-13 31.5zM341 800q0 19 13 32t32 13t32 -13 t13 -32q0 -18 -13 -31.5t-32 -13.5t-32 13.5t-13 31.5z" />
<glyph unicode="&#xc5;" horiz-adv-x="607" d="M515 0l-66 174h-295l-63 -174h-81l254 676h76l257 -676h-82zM304 582h-6q-12 -44 -57 -167l-64 -176h250l-64 170q-54 155 -59 173zM300 703q-45 0 -74.5 30t-29.5 74q0 43 30 73.5t74 30.5q45 0 76.5 -30.5t31.5 -73.5q0 -45 -31.5 -74.5t-76.5 -29.5zM300 865 q-22 0 -38 -17.5t-16 -40.5q0 -24 15 -41.5t39 -17.5q27 0 42.5 17.5t15.5 41.5t-15.5 41t-42.5 17z" />
<glyph unicode="&#xc6;" horiz-adv-x="953" d="M476 220h-245l-141 -220h-84l438 674h477v-60h-366v-238h334v-62h-334v-255h375v-59h-454v220zM476 598h-2l-2 1q-15 -27 -33 -55.5t-40 -62.5t-34 -53l-91 -146h202v316z" />
<glyph unicode="&#xc7;" horiz-adv-x="613" d="M341 -8q-154 0 -220 87t-66 254q0 162 69 254.5t216 92.5q97 0 165 -49t68 -138q0 -5 -2 -17h-71q-4 61 -45.5 98.5t-117.5 37.5q-204 0 -204 -279q0 -133 48.5 -203t157.5 -70q85 0 126 41.5t43 105.5h72q2 -12 2 -17q0 -91 -68.5 -144.5t-172.5 -53.5zM330 -216 q-49 0 -98 17l13 40q44 -14 77 -14q29 0 46.5 12t17.5 33q0 42 -55 42q-25 0 -40 -7l-22 17l50 97h52q-14 -22 -38 -66q63 0 90 -25.5t27 -56.5q0 -39 -30.5 -63.5t-89.5 -25.5z" />
<glyph unicode="&#xc8;" horiz-adv-x="549" d="M65 0v674h436v-68h-360v-226h330v-70h-330v-239h370v-71h-446zM348 764l-29 -41l-178 92l53 67z" />
<glyph unicode="&#xc9;" horiz-adv-x="547" d="M68 0v674h436v-68h-360v-226h330v-70h-330v-239h370v-71h-446zM272 726l-30 41l155 118l52 -67z" />
<glyph unicode="&#xca;" horiz-adv-x="549" d="M65 0v674h436v-68h-360v-226h330v-70h-330v-239h370v-71h-446zM407 725l-125 102l-131 -102q0 1 -16.5 17t-16.5 17l135 133h60l131 -133z" />
<glyph unicode="&#xcb;" horiz-adv-x="549" d="M65 0v674h436v-68h-360v-226h330v-70h-330v-239h370v-71h-446zM162 800q0 19 13 32t31 13q19 0 32 -13t13 -32q0 -18 -13 -31.5t-32 -13.5q-18 0 -31 13.5t-13 31.5zM333 800q0 19 13 32t32 13t32 -13t13 -32q0 -18 -13 -31.5t-32 -13.5t-32 13.5t-13 31.5z" />
<glyph unicode="&#xcc;" horiz-adv-x="246" d="M85 0v674h76v-674h-76zM165 764l-29 -41l-178 92l53 67z" />
<glyph unicode="&#xcd;" horiz-adv-x="246" d="M85 0v674h76v-674h-76zM111 726l-30 41l155 118l52 -67z" />
<glyph unicode="&#xce;" horiz-adv-x="246" d="M85 0v674h76v-674h-76zM248 725l-125 102l-131 -102q0 1 -16.5 17t-16.5 17l135 133h60l131 -133z" />
<glyph unicode="&#xcf;" horiz-adv-x="246" d="M85 0v674h76v-674h-76zM-10 800q0 19 13 32t31 13q19 0 32 -13t13 -32q0 -18 -13 -31.5t-32 -13.5q-18 0 -31 13.5t-13 31.5zM161 800q0 19 13 32t32 13t32 -13t13 -32q0 -18 -13 -31.5t-32 -13.5t-32 13.5t-13 31.5z" />
<glyph unicode="&#xd0;" horiz-adv-x="630" d="M65 373v301h194q62 0 116 -17.5t101.5 -55t75 -106t27.5 -161.5q0 -154 -88 -244t-231 -90h-195v319h-61v54h61zM141 70h106q36 0 68 6t67.5 23.5t61 46t42 77.5t16.5 113q0 66 -17 116t-43 78.5t-62 46t-67.5 23.5t-65.5 6h-106v-233h187v-54h-187v-249z" />
<glyph unicode="&#xd1;" horiz-adv-x="664" d="M146 547q-1 -1 -4 -1v-546h-77v674h72l227 -319q36 -51 153 -226h5v545h77v-674h-72l-247 348q-98 137 -134 199zM397 747q-25 0 -70.5 18t-65.5 18q-32 0 -67 -39l-35 29q13 34 42 54t60 20q22 0 64.5 -17.5t65.5 -17.5q36 0 67 37l38 -27q-12 -35 -40 -55t-59 -20z" />
<glyph unicode="&#xd2;" horiz-adv-x="684" d="M345 681q284 0 284 -350q0 -69 -14 -126t-45.5 -107t-89.5 -78t-138 -28q-157 0 -222 88t-65 250q0 164 70.5 257.5t219.5 93.5zM344 611q-211 0 -211 -281q0 -270 209 -270q99 0 153 67.5t54 203.5q0 280 -205 280zM394 764l-29 -41l-178 92l53 67z" />
<glyph unicode="&#xd3;" horiz-adv-x="684" d="M345 681q284 0 284 -350q0 -69 -14 -126t-45.5 -107t-89.5 -78t-138 -28q-157 0 -222 88t-65 250q0 164 70.5 257.5t219.5 93.5zM344 611q-211 0 -211 -281q0 -270 209 -270q99 0 153 67.5t54 203.5q0 280 -205 280zM292 726l-30 41l155 118l52 -67z" />
<glyph unicode="&#xd4;" horiz-adv-x="684" d="M345 681q284 0 284 -350q0 -69 -14 -126t-45.5 -107t-89.5 -78t-138 -28q-157 0 -222 88t-65 250q0 164 70.5 257.5t219.5 93.5zM344 611q-211 0 -211 -281q0 -270 209 -270q99 0 153 67.5t54 203.5q0 280 -205 280zM462 725l-125 102l-131 -102q0 1 -16.5 17t-16.5 17 l135 133h60l131 -133z" />
<glyph unicode="&#xd5;" horiz-adv-x="684" d="M345 681q284 0 284 -350q0 -69 -14 -126t-45.5 -107t-89.5 -78t-138 -28q-157 0 -222 88t-65 250q0 164 70.5 257.5t219.5 93.5zM344 611q-211 0 -211 -281q0 -270 209 -270q99 0 153 67.5t54 203.5q0 280 -205 280zM410 761q-25 0 -70.5 18t-65.5 18q-32 0 -67 -39 l-35 29q13 34 42 54t60 20q22 0 64.5 -17.5t65.5 -17.5q36 0 67 37l38 -27q-12 -35 -40 -55t-59 -20z" />
<glyph unicode="&#xd6;" horiz-adv-x="684" d="M345 681q284 0 284 -350q0 -69 -14 -126t-45.5 -107t-89.5 -78t-138 -28q-157 0 -222 88t-65 250q0 164 70.5 257.5t219.5 93.5zM344 611q-211 0 -211 -281q0 -270 209 -270q99 0 153 67.5t54 203.5q0 280 -205 280zM209 800q0 19 13 32t31 13q19 0 32 -13t13 -32 q0 -18 -13 -31.5t-32 -13.5q-18 0 -31 13.5t-13 31.5zM380 800q0 19 13 32t32 13t32 -13t13 -32q0 -18 -13 -31.5t-32 -13.5t-32 13.5t-13 31.5z" />
<glyph unicode="&#xd7;" horiz-adv-x="593" d="M113 140l132 132l-132 132q6 6 16 16.5t18.5 19t16.5 15.5q20 -19 42 -41t48.5 -49t41.5 -42q111 110 133 132l51 -51l-133 -132l133 -132l-51 -51l-133 132l-132 -132q-26 25 -51 51z" />
<glyph unicode="&#xd8;" horiz-adv-x="684" d="M345 681q119 0 188 -63l52 65l42 -35l-58 -71q60 -89 60 -246q0 -69 -14 -126t-45.5 -107t-89.5 -78t-138 -28q-126 0 -196 61l-51 -65l-43 35l58 71q-55 81 -55 236q0 164 70.5 257.5t219.5 93.5zM549 331q0 113 -34 180l-319 -397q50 -54 146 -54q99 0 153 67.5 t54 203.5zM344 611q-211 0 -211 -281q0 -107 31 -169l319 396q-49 54 -139 54z" />
<glyph unicode="&#xd9;" horiz-adv-x="660" d="M595 674v-407q0 -275 -260 -275q-148 0 -209 70t-61 207v405h76v-408q0 -113 49.5 -159.5t145.5 -46.5q183 0 183 207v407h76zM402 764l-29 -41l-178 92l53 67z" />
<glyph unicode="&#xda;" horiz-adv-x="660" d="M595 674v-407q0 -275 -260 -275q-148 0 -209 70t-61 207v405h76v-408q0 -113 49.5 -159.5t145.5 -46.5q183 0 183 207v407h76zM300 726l-30 41l155 118l52 -67z" />
<glyph unicode="&#xdb;" horiz-adv-x="660" d="M595 674v-407q0 -275 -260 -275q-148 0 -209 70t-61 207v405h76v-408q0 -113 49.5 -159.5t145.5 -46.5q183 0 183 207v407h76zM458 725l-125 102l-131 -102q0 1 -16.5 17t-16.5 17l135 133h60l131 -133z" />
<glyph unicode="&#xdc;" horiz-adv-x="660" d="M595 674v-407q0 -275 -260 -275q-148 0 -209 70t-61 207v405h76v-408q0 -113 49.5 -159.5t145.5 -46.5q183 0 183 207v407h76zM204 800q0 19 13 32t31 13q19 0 32 -13t13 -32q0 -18 -13 -31.5t-32 -13.5q-18 0 -31 13.5t-13 31.5zM375 800q0 19 13 32t32 13t32 -13 t13 -32q0 -18 -13 -31.5t-32 -13.5t-32 13.5t-13 31.5z" />
<glyph unicode="&#xdd;" horiz-adv-x="558" d="M272 344h9q13 35 88 173l86 157h88l-231 -403v-271h-77v271l-226 403h88l89 -163q61 -111 86 -167zM249 723l-30 41l155 118l52 -67z" />
<glyph unicode="&#xde;" horiz-adv-x="583" d="M333 127h-188v-127h-76v675h75v-127h189q107 0 168 -59.5t61 -152.5q0 -37 -11.5 -71.5t-36 -66.5t-71.5 -51.5t-110 -19.5zM330 490h-186v-303h186q66 0 110.5 35.5t44.5 114.5q0 70 -43 111.5t-112 41.5z" />
<glyph unicode="&#xdf;" horiz-adv-x="543" d="M377 424v-5q56 -14 86.5 -69t30.5 -128q0 -43 -12 -82.5t-36 -73.5t-65.5 -54t-96.5 -20q-37 0 -59 7l17 57q17 -5 36 -5q66 0 104 46t38 128q0 90 -40.5 125t-108.5 36v57q54 1 80.5 30.5t26.5 71.5q0 55 -31.5 83t-86.5 28q-121 0 -121 -171v-485h-75v500q0 97 50 156 t147 59q91 0 140.5 -46t49.5 -125q0 -28 -18 -65.5t-56 -54.5z" />
<glyph unicode="&#xe0;" horiz-adv-x="500" d="M247 490q194 0 194 -164v-326h-58q-12 21 -12 68h-4q-50 -76 -165 -76q-75 0 -121 35t-46 106q0 58 33.5 96t82 52t111.5 14q51 0 104 -8v30q0 111 -119 111q-96 0 -110 -74h-67q-1 5 -1 12q0 65 54 94.5t124 29.5zM209 52q75 0 116.5 40.5t41.5 92.5v42q-44 10 -103 10 q-70 0 -112 -26t-42 -79q0 -34 26.5 -57t72.5 -23zM325 576l-40 -33l-143 143l67 52z" />
<glyph unicode="&#xe1;" horiz-adv-x="500" d="M247 490q194 0 194 -164v-326h-58q-12 21 -12 68h-4q-50 -76 -165 -76q-75 0 -121 35t-46 106q0 58 33.5 96t82 52t111.5 14q51 0 104 -8v30q0 111 -119 111q-96 0 -110 -74h-67q-1 5 -1 12q0 65 54 94.5t124 29.5zM209 52q75 0 116.5 40.5t41.5 92.5v42q-44 10 -103 10 q-70 0 -112 -26t-42 -79q0 -34 26.5 -57t72.5 -23zM236 545l-40 34l124 156l63 -54z" />
<glyph unicode="&#xe2;" horiz-adv-x="500" d="M247 490q194 0 194 -164v-326h-58q-12 21 -12 68h-4q-50 -76 -165 -76q-75 0 -121 35t-46 106q0 58 33.5 96t82 52t111.5 14q51 0 104 -8v30q0 111 -119 111q-96 0 -110 -74h-67q-1 5 -1 12q0 65 54 94.5t124 29.5zM209 52q75 0 116.5 40.5t41.5 92.5v42q-44 10 -103 10 q-70 0 -112 -26t-42 -79q0 -34 26.5 -57t72.5 -23zM377 545l-126 106q-5 -4 -65.5 -53t-64.5 -53l-34 34q4 4 67 68t69 69h59q5 -4 66 -68t66 -69z" />
<glyph unicode="&#xe3;" horiz-adv-x="500" d="M247 490q194 0 194 -164v-326h-58q-12 21 -12 68h-4q-50 -76 -165 -76q-75 0 -121 35t-46 106q0 58 33.5 96t82 52t111.5 14q51 0 104 -8v30q0 111 -119 111q-96 0 -110 -74h-67q-1 5 -1 12q0 65 54 94.5t124 29.5zM209 52q75 0 116.5 40.5t41.5 92.5v42q-44 10 -103 10 q-70 0 -112 -26t-42 -79q0 -34 26.5 -57t72.5 -23zM321 576q-25 0 -70.5 18t-65.5 18q-32 0 -67 -39l-35 29q13 34 42 54t60 20q22 0 64.5 -17.5t65.5 -17.5q36 0 67 37l38 -27q-12 -35 -40 -55t-59 -20z" />
<glyph unicode="&#xe4;" horiz-adv-x="500" d="M247 490q194 0 194 -164v-326h-58q-12 21 -12 68h-4q-50 -76 -165 -76q-75 0 -121 35t-46 106q0 58 33.5 96t82 52t111.5 14q51 0 104 -8v30q0 111 -119 111q-96 0 -110 -74h-67q-1 5 -1 12q0 65 54 94.5t124 29.5zM209 52q75 0 116.5 40.5t41.5 92.5v42q-44 10 -103 10 q-70 0 -112 -26t-42 -79q0 -34 26.5 -57t72.5 -23zM120 612q0 18 13 31.5t32 13.5q18 0 31.5 -13.5t13.5 -31.5q0 -19 -13.5 -32t-31.5 -13q-19 0 -32 13t-13 32zM292 612q0 18 13 31.5t31 13.5q19 0 32 -13.5t13 -31.5q0 -19 -13 -32t-32 -13q-18 0 -31 13t-13 32z" />
<glyph unicode="&#xe5;" horiz-adv-x="500" d="M247 490q194 0 194 -164v-326h-58q-12 21 -12 68h-4q-50 -76 -165 -76q-75 0 -121 35t-46 106q0 58 33.5 96t82 52t111.5 14q51 0 104 -8v30q0 111 -119 111q-96 0 -110 -74h-67q-1 5 -1 12q0 65 54 94.5t124 29.5zM209 52q75 0 116.5 40.5t41.5 92.5v42q-44 10 -103 10 q-70 0 -112 -26t-42 -79q0 -34 26.5 -57t72.5 -23zM251 541q-45 0 -74.5 30t-29.5 74q0 43 30 73.5t74 30.5q45 0 76.5 -30.5t31.5 -73.5q0 -45 -31.5 -74.5t-76.5 -29.5zM251 703q-22 0 -38 -17.5t-16 -40.5q0 -24 15 -41.5t39 -17.5q27 0 42.5 17.5t15.5 41.5t-15.5 41 t-42.5 17z" />
<glyph unicode="&#xe6;" horiz-adv-x="847" d="M598 56q117 0 127 92h67q1 -6 1 -17q0 -67 -57 -103t-139 -36q-139 0 -186 93q-81 -94 -210 -94q-73 0 -119.5 36.5t-46.5 104.5q0 76 56 114t144 38h139v29q0 47 -29.5 80t-96.5 33q-98 0 -112 -74h-69q0 2 -0.5 6t-0.5 6q0 44 31 73.5t70 39.5t84 10q134 0 175 -80 q54 82 167 82q102 0 152.5 -56t50.5 -152q0 -31 -4 -56h-337q0 -169 143 -169zM213 51q106 0 176 85q-11 44 -11 88h-132q-133 0 -133 -92q0 -35 26.5 -58t73.5 -23zM592 424q-63 0 -96 -38.5t-38 -103.5h264q0 142 -130 142z" />
<glyph unicode="&#xe7;" horiz-adv-x="490" d="M269 489q73 0 125.5 -34t52.5 -101q0 -9 -2 -17h-67q-3 41 -34.5 63t-75.5 22q-143 0 -143 -183q0 -182 143 -182q53 0 85.5 26.5t33.5 76.5h67q2 -14 2 -18q0 -68 -52 -108.5t-134 -41.5l-21 -37q62 0 89.5 -26t27.5 -56q0 -39 -30.5 -63.5t-89.5 -25.5q-49 0 -97 17 q3 17 12 40q44 -14 77 -14q30 0 47.5 12t17.5 33t-16.5 31.5t-39.5 10.5q-25 0 -40 -7l-21 17l36 72q-172 23 -172 237q0 118 53 187t166 69z" />
<glyph unicode="&#xe8;" horiz-adv-x="520" d="M265 425q-63 0 -97.5 -39t-39.5 -104h265q0 66 -31.5 104.5t-96.5 38.5zM265 490q100 0 150.5 -57.5t50.5 -147.5q0 -30 -6 -60h-335q0 -169 146 -169q116 0 124 92h67q1 -6 1 -17q0 -67 -56.5 -103.5t-136.5 -36.5q-221 0 -221 247q0 111 54 181.5t162 70.5zM328 576 l-40 -33l-143 143l67 52z" />
<glyph unicode="&#xe9;" horiz-adv-x="520" d="M265 425q-63 0 -97.5 -39t-39.5 -104h265q0 66 -31.5 104.5t-96.5 38.5zM265 490q100 0 150.5 -57.5t50.5 -147.5q0 -30 -6 -60h-335q0 -169 146 -169q116 0 124 92h67q1 -6 1 -17q0 -67 -56.5 -103.5t-136.5 -36.5q-221 0 -221 247q0 111 54 181.5t162 70.5zM253 545 l-40 34l124 156l63 -54z" />
<glyph unicode="&#xea;" horiz-adv-x="520" d="M265 425q-63 0 -97.5 -39t-39.5 -104h265q0 66 -31.5 104.5t-96.5 38.5zM265 490q100 0 150.5 -57.5t50.5 -147.5q0 -30 -6 -60h-335q0 -169 146 -169q116 0 124 92h67q1 -6 1 -17q0 -67 -56.5 -103.5t-136.5 -36.5q-221 0 -221 247q0 111 54 181.5t162 70.5zM396 545 l-126 106q-4 -4 -64.5 -53t-65.5 -53l-34 34q4 4 67 68t69 69h59q5 -4 66 -68t66 -69z" />
<glyph unicode="&#xeb;" horiz-adv-x="520" d="M265 425q-63 0 -97.5 -39t-39.5 -104h265q0 66 -31.5 104.5t-96.5 38.5zM265 490q100 0 150.5 -57.5t50.5 -147.5q0 -30 -6 -60h-335q0 -169 146 -169q116 0 124 92h67q1 -6 1 -17q0 -67 -56.5 -103.5t-136.5 -36.5q-221 0 -221 247q0 111 54 181.5t162 70.5zM139 612 q0 18 13 31.5t32 13.5q18 0 31.5 -13.5t13.5 -31.5q0 -19 -13.5 -32t-31.5 -13q-19 0 -32 13t-13 32zM311 612q0 18 13 31.5t31 13.5q19 0 32 -13.5t13 -31.5q0 -19 -13 -32t-32 -13q-18 0 -31 13t-13 32z" />
<glyph unicode="&#xec;" horiz-adv-x="248" d="M172 576l-40 -33l-143 143l67 52zM86 0v482h74v-482h-74z" />
<glyph unicode="&#xed;" horiz-adv-x="248" d="M116 545l-40 34l124 156l63 -54zM86 0v482h74v-482h-74z" />
<glyph unicode="&#xee;" horiz-adv-x="248" d="M86 0v482h74v-482h-74zM249 545l-126 106q-4 -4 -64.5 -53t-65.5 -53l-34 34q4 4 67 68t69 69h59q5 -5 66 -68.5t66 -68.5z" />
<glyph unicode="&#xef;" horiz-adv-x="248" d="M-9 612q0 18 13 31.5t32 13.5q18 0 31.5 -13.5t13.5 -31.5q0 -19 -13.5 -32t-31.5 -13q-19 0 -32 13t-13 32zM163 612q0 18 13 31.5t31 13.5q19 0 32 -13.5t13 -31.5q0 -19 -13 -32t-32 -13q-18 0 -31 13t-13 32zM86 0v482h74v-482h-74z" />
<glyph unicode="&#xf0;" horiz-adv-x="539" d="M267 -7q-217 0 -217 234q0 106 53.5 174t155.5 68q49 0 95 -22.5t65 -68.5h4q-2 116 -56 190q-15 -11 -43 -31.5t-34 -24.5q-6 10 -24 32l72 54q-53 50 -136 63q11 53 12 56q110 -14 177 -80l68 49l27 -34q-11 -7 -33 -23.5t-33 -23.5q42 -58 55.5 -133t13.5 -176 q0 -303 -222 -303zM266 405q-75 0 -110.5 -49.5t-35.5 -128.5q0 -173 146 -173q67 0 104.5 44t37.5 130q0 79 -34.5 128t-107.5 49z" />
<glyph unicode="&#xf1;" horiz-adv-x="534" d="M293 491q58 0 96 -17.5t55.5 -50.5t23.5 -65t6 -76v-282h-76v278q0 72 -25 112t-96 40q-67 0 -105 -49.5t-38 -113.5v-267h-74v482h56q16 -27 16 -71h4q26 39 71.5 59.5t85.5 20.5zM321 573q-25 0 -70.5 18t-65.5 18q-32 0 -67 -39l-35 29q13 34 42 54t60 20 q22 0 64.5 -17.5t65.5 -17.5q36 0 67 37l38 -27q-12 -35 -40 -55t-59 -20z" />
<glyph unicode="&#xf2;" horiz-adv-x="543" d="M273 490q61 0 105 -21t68.5 -57.5t35.5 -79t11 -92.5q0 -49 -11 -91t-35.5 -78.5t-69 -57.5t-104.5 -21q-223 0 -223 246q0 113 56 182.5t167 69.5zM273 422q-147 0 -147 -184q0 -181 147 -181q143 0 143 183q0 182 -143 182zM333 576l-40 -33l-143 143l67 52z" />
<glyph unicode="&#xf3;" horiz-adv-x="543" d="M273 490q61 0 105 -21t68.5 -57.5t35.5 -79t11 -92.5q0 -49 -11 -91t-35.5 -78.5t-69 -57.5t-104.5 -21q-223 0 -223 246q0 113 56 182.5t167 69.5zM273 422q-147 0 -147 -184q0 -181 147 -181q143 0 143 183q0 182 -143 182zM271 545l-40 34l124 156l63 -54z" />
<glyph unicode="&#xf4;" horiz-adv-x="543" d="M273 490q61 0 105 -21t68.5 -57.5t35.5 -79t11 -92.5q0 -49 -11 -91t-35.5 -78.5t-69 -57.5t-104.5 -21q-223 0 -223 246q0 113 56 182.5t167 69.5zM273 422q-147 0 -147 -184q0 -181 147 -181q143 0 143 183q0 182 -143 182zM403 545l-126 106q-5 -4 -65.5 -53 t-64.5 -53l-34 34q4 4 67 68t69 69h59q5 -4 66 -68t66 -69z" />
<glyph unicode="&#xf5;" horiz-adv-x="543" d="M273 490q61 0 105 -21t68.5 -57.5t35.5 -79t11 -92.5q0 -49 -11 -91t-35.5 -78.5t-69 -57.5t-104.5 -21q-223 0 -223 246q0 113 56 182.5t167 69.5zM273 422q-147 0 -147 -184q0 -181 147 -181q143 0 143 183q0 182 -143 182zM338 573q-25 0 -70.5 18t-65.5 18 q-32 0 -67 -39l-35 29q13 34 42 54t60 20q22 0 64.5 -17.5t65.5 -17.5q36 0 67 37l38 -27q-12 -35 -40 -55t-59 -20z" />
<glyph unicode="&#xf6;" horiz-adv-x="543" d="M273 490q61 0 105 -21t68.5 -57.5t35.5 -79t11 -92.5q0 -49 -11 -91t-35.5 -78.5t-69 -57.5t-104.5 -21q-223 0 -223 246q0 113 56 182.5t167 69.5zM273 422q-147 0 -147 -184q0 -181 147 -181q143 0 143 183q0 182 -143 182zM144 612q0 18 13 31.5t32 13.5 q18 0 31.5 -13.5t13.5 -31.5q0 -19 -13.5 -32t-31.5 -13q-19 0 -32 13t-13 32zM316 612q0 18 13 31.5t31 13.5q19 0 32 -13.5t13 -31.5q0 -19 -13 -32t-32 -13q-18 0 -31 13t-13 32z" />
<glyph unicode="&#xf7;" horiz-adv-x="593" d="M496 232h-399v62h399v-62zM249 406q0 22 15 37.5t37 15.5t37 -15.5t15 -37.5q0 -21 -15 -36t-37 -15t-37 15t-15 36zM249 115q0 22 15 37.5t37 15.5t37 -15.5t15 -37.5q0 -21 -15 -36t-37 -15t-37 15t-15 36z" />
<glyph unicode="&#xf8;" horiz-adv-x="543" d="M273 490q95 0 152 -54l48 52l34 -31l-53 -57q39 -63 39 -160q0 -49 -11 -91t-35.5 -78.5t-69 -57.5t-104.5 -21q-100 0 -155 49l-44 -46l-34 31l48 51q-38 59 -38 161q0 113 56 182.5t167 69.5zM273 422q-147 0 -147 -184q0 -65 17 -103l232 248q-36 39 -102 39zM416 240 q0 62 -17 102l-231 -248q36 -37 105 -37q143 0 143 183z" />
<glyph unicode="&#xf9;" horiz-adv-x="524" d="M463 482v-482h-55q-14 22 -14 71h-4q-27 -40 -70 -59.5t-83 -19.5q-55 0 -92.5 16.5t-55 47t-24 61t-6.5 71.5v294h76v-281q0 -74 23.5 -111t94.5 -37q66 0 101 48.5t35 113.5v267h74zM318 576l-40 -33l-143 143l67 52z" />
<glyph unicode="&#xfa;" horiz-adv-x="524" d="M463 482v-482h-55q-14 22 -14 71h-4q-27 -40 -70 -59.5t-83 -19.5q-55 0 -92.5 16.5t-55 47t-24 61t-6.5 71.5v294h76v-281q0 -74 23.5 -111t94.5 -37q66 0 101 48.5t35 113.5v267h74zM254 545l-40 34l124 156l63 -54z" />
<glyph unicode="&#xfb;" horiz-adv-x="524" d="M463 482v-482h-55q-14 22 -14 71h-4q-27 -40 -70 -59.5t-83 -19.5q-55 0 -92.5 16.5t-55 47t-24 61t-6.5 71.5v294h76v-281q0 -74 23.5 -111t94.5 -37q66 0 101 48.5t35 113.5v267h74zM389 545l-126 106q-4 -4 -64.5 -53t-65.5 -53l-34 34q4 4 67 68t69 69h59 q5 -4 66 -68t66 -69z" />
<glyph unicode="&#xfc;" horiz-adv-x="524" d="M463 482v-482h-55q-14 22 -14 71h-4q-27 -40 -70 -59.5t-83 -19.5q-55 0 -92.5 16.5t-55 47t-24 61t-6.5 71.5v294h76v-281q0 -74 23.5 -111t94.5 -37q66 0 101 48.5t35 113.5v267h74zM133 612q0 18 13 31.5t32 13.5q18 0 31.5 -13.5t13.5 -31.5q0 -19 -13.5 -32 t-31.5 -13q-19 0 -32 13t-13 32zM305 612q0 18 13 31.5t31 13.5q19 0 32 -13.5t13 -31.5q0 -19 -13 -32t-32 -13q-18 0 -31 13t-13 32z" />
<glyph unicode="&#xfd;" horiz-adv-x="448" d="M216 55h8q12 43 34 109t28 85l75 232h73l-178 -536q-25 -76 -58.5 -112.5t-101.5 -36.5h-57v61h48q37 0 58 14.5t34 51.5l25 75l-38 -3q-16 63 -58 186l-99 300h79q4 -12 32.5 -107.5t35.5 -114.5q43 -137 60 -204zM217 544l-40 34l124 156l63 -54z" />
<glyph unicode="&#xfe;" horiz-adv-x="541" d="M288 490q56 0 97 -19.5t63.5 -55t32.5 -78t10 -94.5q0 -114 -55 -182.5t-156 -68.5t-141 63h-5v-260h-74v916h72v-166q0 -84 -6 -129h4q25 38 69 56t89 18zM276 427q-66 0 -103.5 -42.5t-37.5 -106.5v-57q0 -70 33 -119t109 -49q138 0 138 191q0 183 -139 183z" />
<glyph unicode="&#xff;" horiz-adv-x="448" d="M216 55h8q12 43 34 109t28 85l75 232h73l-178 -536q-25 -76 -58.5 -112.5t-101.5 -36.5h-57v61h48q37 0 58 14.5t34 51.5l25 75l-38 -3q-16 63 -58 186l-99 300h79q4 -12 32.5 -107.5t35.5 -114.5q43 -137 60 -204zM92 612q0 18 13 31.5t32 13.5q18 0 31.5 -13.5 t13.5 -31.5q0 -19 -13.5 -32t-31.5 -13q-19 0 -32 13t-13 32zM264 612q0 18 13 31.5t31 13.5q19 0 32 -13.5t13 -31.5q0 -19 -13 -32t-32 -13q-18 0 -31 13t-13 32z" />
<glyph unicode="&#x100;" horiz-adv-x="607" d="M515 0l-66 174h-295l-63 -174h-81l254 676h76l257 -676h-82zM304 582h-6q-12 -44 -57 -167l-64 -176h250l-64 170q-54 155 -59 173zM151 761v62h301v-62h-301z" />
<glyph unicode="&#x101;" horiz-adv-x="500" d="M247 490q194 0 194 -164v-326h-58q-12 21 -12 68h-4q-50 -76 -165 -76q-75 0 -121 35t-46 106q0 58 33.5 96t82 52t111.5 14q51 0 104 -8v30q0 111 -119 111q-96 0 -110 -74h-67q-1 5 -1 12q0 65 54 94.5t124 29.5zM209 52q75 0 116.5 40.5t41.5 92.5v42q-44 10 -103 10 q-70 0 -112 -26t-42 -79q0 -34 26.5 -57t72.5 -23zM93 594v61h302v-61h-302z" />
<glyph unicode="&#x102;" horiz-adv-x="607" d="M515 0l-66 174h-295l-63 -174h-81l254 676h76l257 -676h-82zM304 582h-6q-12 -44 -57 -167l-64 -176h250l-64 170q-54 155 -59 173zM301 729q-52 0 -89.5 28t-52.5 62.5t-17 69.5h59q4 -40 27.5 -70t72.5 -30q48 0 72 30.5t28 69.5h59q-5 -59 -44.5 -109.5t-114.5 -50.5z " />
<glyph unicode="&#x103;" horiz-adv-x="500" d="M247 490q194 0 194 -164v-326h-58q-12 21 -12 68h-4q-50 -76 -165 -76q-75 0 -121 35t-46 106q0 58 33.5 96t82 52t111.5 14q51 0 104 -8v30q0 111 -119 111q-96 0 -110 -74h-67q-1 5 -1 12q0 65 54 94.5t124 29.5zM209 52q75 0 116.5 40.5t41.5 92.5v42q-44 10 -103 10 q-70 0 -112 -26t-42 -79q0 -34 26.5 -57t72.5 -23zM256 548q-77 0 -116 48t-43 105h59q4 -38 27.5 -65t72.5 -27q48 0 72 27.5t28 64.5h59q-2 -25 -11.5 -50t-27.5 -49t-49 -39t-71 -15z" />
<glyph unicode="&#x104;" horiz-adv-x="607" d="M426 -140q0 77 85 146q-10 28 -31 84t-31 84h-295l-64 -174h-80l254 676h76l257 -676h-53q-53 -59 -53 -116q0 -28 15.5 -38.5t46.5 -10.5q28 0 72 11q7 -24 8 -32q-52 -26 -107 -26q-47 0 -73.5 19.5t-26.5 52.5zM304 582h-6q-20 -68 -50 -153q-6 -18 -72 -190h251 l-68 180q-4 11 -24 70t-31 93z" />
<glyph unicode="&#x105;" horiz-adv-x="500" d="M247 490q194 0 194 -164v-326h-31q-52 -60 -52 -115q0 -28 15.5 -38.5t46.5 -10.5q28 0 72 11q1 -8 8 -32q-52 -26 -107 -26q-47 0 -73.5 19.5t-26.5 52.5q0 78 86 146q-8 21 -8 61h-4q-50 -76 -165 -76q-74 0 -120.5 35t-46.5 105q0 86 63.5 124.5t163.5 38.5 q51 0 104 -8v30q0 111 -119 111q-96 0 -110 -74h-67q-1 5 -1 12q0 65 54 94.5t124 29.5zM209 52q75 0 116.5 40.5t41.5 92.5v42q-44 10 -103 10q-70 0 -112 -26t-42 -79q0 -34 26.5 -57t72.5 -23z" />
<glyph unicode="&#x106;" horiz-adv-x="613" d="M341 -8q-154 0 -220 87t-66 254q0 162 69 254.5t216 92.5q97 0 165 -49t68 -138q0 -5 -2 -17h-71q-4 61 -45.5 98.5t-117.5 37.5q-204 0 -204 -279q0 -133 48.5 -203t157.5 -70q85 0 126 41.5t43 105.5h72q2 -12 2 -17q0 -91 -68.5 -144.5t-172.5 -53.5zM292 726l-30 41 l155 118l52 -67z" />
<glyph unicode="&#x107;" horiz-adv-x="490" d="M269 490q73 0 125.5 -34.5t52.5 -101.5q0 -9 -2 -17h-67q-3 42 -34 63.5t-76 21.5q-142 0 -142 -183q0 -182 142 -182q53 0 85.5 26.5t34.5 76.5h66q2 -12 2 -18q0 -68 -52 -109t-132 -41q-222 0 -222 241q0 118 53 187.5t166 69.5zM245 545l-40 34l124 156l63 -54z" />
<glyph unicode="&#x108;" horiz-adv-x="613" d="M341 -8q-154 0 -220 87t-66 254q0 162 69 254.5t216 92.5q97 0 165 -49t68 -138q0 -5 -2 -17h-71q-4 61 -45.5 98.5t-117.5 37.5q-204 0 -204 -279q0 -133 48.5 -203t157.5 -70q85 0 126 41.5t43 105.5h72q2 -12 2 -17q0 -91 -68.5 -144.5t-172.5 -53.5zM462 725 l-125 102l-131 -102q0 1 -16.5 17t-16.5 17l135 133h60l131 -133z" />
<glyph unicode="&#x109;" horiz-adv-x="490" d="M269 490q73 0 125.5 -34.5t52.5 -101.5q0 -9 -2 -17h-67q-3 42 -34 63.5t-76 21.5q-142 0 -142 -183q0 -182 142 -182q53 0 85.5 26.5t34.5 76.5h66q2 -12 2 -18q0 -68 -52 -109t-132 -41q-222 0 -222 241q0 118 53 187.5t166 69.5zM384 545l-126 106q-5 -4 -65.5 -53 t-64.5 -53l-34 34q4 4 67 68t69 69h59q5 -4 66 -68t66 -69z" />
<glyph unicode="&#x10a;" horiz-adv-x="613" d="M341 -8q-154 0 -220 87t-66 254q0 162 69 254.5t216 92.5q97 0 165 -49t68 -138q0 -5 -2 -17h-71q-4 61 -45.5 98.5t-117.5 37.5q-204 0 -204 -279q0 -133 48.5 -203t157.5 -70q85 0 126 41.5t43 105.5h72q2 -12 2 -17q0 -91 -68.5 -144.5t-172.5 -53.5zM292 794 q0 20 14.5 35t34.5 15q21 0 35.5 -15t14.5 -35q0 -21 -14.5 -35.5t-35.5 -14.5q-20 0 -34.5 14.5t-14.5 35.5z" />
<glyph unicode="&#x10b;" horiz-adv-x="490" d="M269 490q73 0 125.5 -34.5t52.5 -101.5q0 -9 -2 -17h-67q-3 42 -34 63.5t-76 21.5q-142 0 -142 -183q0 -182 142 -182q53 0 85.5 26.5t34.5 76.5h66q2 -12 2 -18q0 -68 -52 -109t-132 -41q-222 0 -222 241q0 118 53 187.5t166 69.5zM212 624q0 20 14.5 35t34.5 15 q21 0 35.5 -15t14.5 -35q0 -21 -14.5 -35.5t-35.5 -14.5q-20 0 -34.5 14.5t-14.5 35.5z" />
<glyph unicode="&#x10c;" horiz-adv-x="613" d="M341 -8q-154 0 -220 87t-66 254q0 162 69 254.5t216 92.5q97 0 165 -49t68 -138q0 -5 -2 -17h-71q-4 61 -45.5 98.5t-117.5 37.5q-204 0 -204 -279q0 -133 48.5 -203t157.5 -70q85 0 126 41.5t43 105.5h72q2 -12 2 -17q0 -91 -68.5 -144.5t-172.5 -53.5zM330 791l126 101 l37 -34l-131 -132h-60l-136 132l4 4q3 4 8 8.5t10 9.5l8 8l4 4z" />
<glyph unicode="&#x10d;" horiz-adv-x="490" d="M269 490q73 0 125.5 -34.5t52.5 -101.5q0 -9 -2 -17h-67q-3 42 -34 63.5t-76 21.5q-142 0 -142 -183q0 -182 142 -182q53 0 85.5 26.5t34.5 76.5h66q2 -12 2 -18q0 -68 -52 -109t-132 -41q-222 0 -222 241q0 118 53 187.5t166 69.5zM264 613l125 102l37 -33 q-5 -5 -66 -67.5t-65 -66.5h-60q-5 5 -68 67.5t-68 66.5l34 33q5 -4 65.5 -51t65.5 -51z" />
<glyph unicode="&#x10e;" horiz-adv-x="630" d="M141 70h106q36 0 68 6t67.5 23.5t61 46t42 77.5t16.5 113q0 66 -17 116t-43 78.5t-62 46t-67.5 23.5t-65.5 6h-106v-536zM65 0v674h194q62 0 116 -17.5t101.5 -55t75 -106t27.5 -161.5q0 -154 -88 -244t-231 -90h-195zM277 791l126 101l37 -34l-131 -132h-60l-136 132 l3 4q4 4 9 8.5t10 9.5t9 8l3 4z" />
<glyph unicode="&#x10f;" horiz-adv-x="658" d="M252 -8q-203 0 -203 245q0 115 54.5 184t158.5 69q91 0 140 -60h4v280h74v-710h-57q-12 22 -12 69h-4q-48 -77 -155 -77zM264 55q65 0 103 43t38 108v73q0 33 -10.5 63.5t-44 56.5t-85.5 26q-70 0 -105 -50t-35 -137q0 -183 139 -183zM546 663q0 22 15 37.5t37 15.5 q23 0 37.5 -14t14.5 -37q0 -14 -6 -29l-65 -130l-28 9l32 100q-16 4 -26.5 17.5t-10.5 30.5z" />
<glyph unicode="&#x110;" horiz-adv-x="630" d="M65 373v301h194q62 0 116 -17.5t101.5 -55t75 -106t27.5 -161.5q0 -154 -88 -244t-231 -90h-195v319h-61v54h61zM141 70h106q36 0 68 6t67.5 23.5t61 46t42 77.5t16.5 113q0 66 -17 116t-43 78.5t-62 46t-67.5 23.5t-65.5 6h-106v-233h187v-54h-187v-249z" />
<glyph unicode="&#x111;" horiz-adv-x="540" d="M252 -8q-59 0 -100 18.5t-62.5 53t-31 75.5t-9.5 94q0 115 54.5 182.5t158.5 67.5q90 0 140 -61h4v146h-161v51h161v91h74v-91h61v-51h-61v-568h-57q-12 22 -12 69h-4q-48 -77 -155 -77zM264 55q65 0 103 43t38 108v69q0 53 -33.5 98t-106.5 45q-69 0 -104.5 -49 t-35.5 -135q0 -92 34 -135.5t105 -43.5z" />
<glyph unicode="&#x112;" horiz-adv-x="549" d="M65 0v674h436v-68h-360v-226h330v-70h-330v-239h370v-71h-446zM132 769v62h301v-62h-301z" />
<glyph unicode="&#x113;" horiz-adv-x="520" d="M265 425q-63 0 -97.5 -39t-39.5 -104h265q0 66 -31.5 104.5t-96.5 38.5zM265 490q100 0 150.5 -57.5t50.5 -147.5q0 -30 -6 -60h-335q0 -169 146 -169q116 0 124 92h67q1 -6 1 -17q0 -67 -56.5 -103.5t-136.5 -36.5q-221 0 -221 247q0 111 54 181.5t162 70.5zM116 594v61 h302v-61h-302z" />
<glyph unicode="&#x114;" horiz-adv-x="549" d="M65 0v674h436v-68h-360v-226h330v-70h-330v-239h370v-71h-446zM284 729q-52 0 -89.5 28t-52.5 62.5t-17 69.5h59q4 -40 27.5 -70t72.5 -30q48 0 72 30.5t28 69.5h59q-5 -59 -44.5 -109.5t-114.5 -50.5z" />
<glyph unicode="&#x115;" horiz-adv-x="520" d="M265 425q-63 0 -97.5 -39t-39.5 -104h265q0 66 -31.5 104.5t-96.5 38.5zM265 490q100 0 150.5 -57.5t50.5 -147.5q0 -30 -6 -60h-335q0 -169 146 -169q116 0 124 92h67q1 -6 1 -17q0 -67 -56.5 -103.5t-136.5 -36.5q-221 0 -221 247q0 111 54 181.5t162 70.5zM269 548 q-77 0 -116 48t-43 105h59q4 -38 27.5 -65t72.5 -27q48 0 72 27.5t28 64.5h59q-2 -25 -11.5 -50t-27.5 -49t-49 -39t-71 -15z" />
<glyph unicode="&#x116;" horiz-adv-x="549" d="M65 0v674h436v-68h-360v-226h330v-70h-330v-239h370v-71h-446zM244 794q0 20 14.5 35t34.5 15q21 0 35.5 -15t14.5 -35q0 -21 -14.5 -35.5t-35.5 -14.5q-20 0 -34.5 14.5t-14.5 35.5z" />
<glyph unicode="&#x117;" horiz-adv-x="520" d="M265 425q-63 0 -97.5 -39t-39.5 -104h265q0 66 -31.5 104.5t-96.5 38.5zM265 490q100 0 150.5 -57.5t50.5 -147.5q0 -30 -6 -60h-335q0 -169 146 -169q116 0 124 92h67q1 -6 1 -17q0 -67 -56.5 -103.5t-136.5 -36.5q-221 0 -221 247q0 111 54 181.5t162 70.5zM223 624 q0 20 14.5 35t34.5 15q21 0 35.5 -15t14.5 -35q0 -21 -14.5 -35.5t-35.5 -14.5q-20 0 -34.5 14.5t-14.5 35.5z" />
<glyph unicode="&#x118;" horiz-adv-x="549" d="M65 0v674h436v-68h-360v-219h330v-70h-330v-246h370v-71h-23q-60 -65 -60 -125q0 -28 15.5 -38.5t46.5 -10.5q24 0 72 12l8 -33q-52 -26 -107 -26q-47 0 -73.5 19.5t-26.5 53.5q0 78 88 148h-386z" />
<glyph unicode="&#x119;" horiz-adv-x="520" d="M265 490q100 0 150.5 -57.5t50.5 -147.5q0 -30 -6 -60h-335q0 -169 146 -169q116 0 124 92h67q1 -6 1 -17q0 -75 -73 -114q-45 -55 -45 -107q0 -28 15.5 -38.5t46.5 -10.5q28 0 72 11l8 -32q-52 -26 -107 -26q-47 0 -73.5 19.5t-26.5 52.5q0 55 48 111q-28 -6 -58 -6 q-221 0 -221 247q0 111 54 181.5t162 70.5zM265 425q-63 0 -97.5 -39t-39.5 -104h265q0 66 -31.5 104.5t-96.5 38.5z" />
<glyph unicode="&#x11a;" horiz-adv-x="549" d="M65 0v674h436v-68h-360v-226h330v-70h-330v-239h370v-71h-446zM289 791l126 101l37 -34l-131 -132h-60l-136 132l3 4q4 4 9 8.5t10 9.5t9 8l3 4z" />
<glyph unicode="&#x11b;" horiz-adv-x="520" d="M265 425q-63 0 -97.5 -39t-39.5 -104h265q0 66 -31.5 104.5t-96.5 38.5zM265 490q100 0 150.5 -57.5t50.5 -147.5q0 -30 -6 -60h-335q0 -169 146 -169q116 0 124 92h67q1 -6 1 -17q0 -67 -56.5 -103.5t-136.5 -36.5q-221 0 -221 247q0 111 54 181.5t162 70.5zM261 613 l125 102l37 -33q-4 -5 -65.5 -67.5t-65.5 -66.5h-60q-5 5 -68 67.5t-68 66.5l34 33q5 -4 65.5 -51t65.5 -51z" />
<glyph unicode="&#x11c;" horiz-adv-x="659" d="M343 683q102 0 170.5 -48.5t68.5 -136.5q0 -8 -2 -20h-70q-3 60 -45 97.5t-123 37.5q-209 0 -209 -279q0 -276 209 -276q56 0 95 16t59.5 44t29 58.5t8.5 66.5v51h-163v66h237v-110q0 -118 -66 -188.5t-202 -70.5q-285 0 -285 342q0 161 71 255.5t217 94.5zM463 725 l-125 102l-131 -102q0 1 -16.5 17t-16.5 17l135 133h60l131 -133z" />
<glyph unicode="&#x11d;" horiz-adv-x="552" d="M449 427q0 -1 -0.5 -3t-0.5 -3q43 -40 43 -110q0 -78 -57 -128.5t-157 -50.5q-68 0 -124 22q-20 -16 -20 -33q0 -13 13.5 -23t41 -16t50 -9.5t60 -7.5t51.5 -6q160 -23 160 -129q0 -75 -68 -109t-179 -34q-217 0 -217 134q0 69 72 119q-60 22 -60 74q0 43 46 75 q-47 46 -47 120q0 76 54.5 128.5t164.5 52.5q53 0 90 -10h155v-41q-25 -9 -71 -12zM274 432q-75 0 -110.5 -34.5t-35.5 -87.5t36 -86.5t111 -33.5q67 0 105.5 33.5t38.5 87.5q0 50 -34.5 85.5t-110.5 35.5zM300 6l-108 14q-72 -37 -72 -96q0 -35 36 -56.5t109 -21.5 q71 0 119 19.5t48 64.5q0 29 -27.5 47.5t-104.5 28.5zM407 545l-126 106q-5 -4 -65 -53t-65 -53l-34 34q4 4 67 68t69 69h59q5 -4 66 -68t66 -69z" />
<glyph unicode="&#x11e;" horiz-adv-x="659" d="M343 683q102 0 170.5 -48.5t68.5 -136.5q0 -8 -2 -20h-70q-3 60 -45 97.5t-123 37.5q-209 0 -209 -279q0 -276 209 -276q56 0 95 16t59.5 44t29 58.5t8.5 66.5v51h-163v66h237v-110q0 -118 -66 -188.5t-202 -70.5q-285 0 -285 342q0 161 71 255.5t217 94.5zM340 729 q-52 0 -89.5 28t-52.5 62.5t-17 69.5h59q4 -40 27.5 -70t72.5 -30q48 0 72 30.5t28 69.5h59q-5 -59 -44.5 -109.5t-114.5 -50.5z" />
<glyph unicode="&#x11f;" horiz-adv-x="552" d="M449 427q0 -1 -0.5 -3t-0.5 -3q43 -40 43 -110q0 -78 -57 -128.5t-157 -50.5q-68 0 -124 22q-20 -16 -20 -33q0 -13 13.5 -23t41 -16t50 -9.5t60 -7.5t51.5 -6q160 -23 160 -129q0 -75 -68 -109t-179 -34q-217 0 -217 134q0 69 72 119q-60 22 -60 74q0 43 46 75 q-47 46 -47 120q0 76 54.5 128.5t164.5 52.5q53 0 90 -10h155v-41q-25 -9 -71 -12zM274 432q-75 0 -110.5 -34.5t-35.5 -87.5t36 -86.5t111 -33.5q67 0 105.5 33.5t38.5 87.5q0 50 -34.5 85.5t-110.5 35.5zM300 6l-108 14q-72 -37 -72 -96q0 -35 36 -56.5t109 -21.5 q71 0 119 19.5t48 64.5q0 29 -27.5 47.5t-104.5 28.5zM280 548q-77 0 -116 48t-43 105h59q4 -38 27.5 -65t72.5 -27q48 0 72 27.5t28 64.5h59q-2 -25 -11.5 -50t-27.5 -49t-49 -39t-71 -15z" />
<glyph unicode="&#x120;" horiz-adv-x="659" d="M343 683q102 0 170.5 -48.5t68.5 -136.5q0 -8 -2 -20h-70q-3 60 -45 97.5t-123 37.5q-209 0 -209 -279q0 -276 209 -276q56 0 95 16t59.5 44t29 58.5t8.5 66.5v51h-163v66h237v-110q0 -118 -66 -188.5t-202 -70.5q-285 0 -285 342q0 161 71 255.5t217 94.5zM297 794 q0 20 14.5 35t34.5 15q21 0 35.5 -15t14.5 -35q0 -21 -14.5 -35.5t-35.5 -14.5q-20 0 -34.5 14.5t-14.5 35.5z" />
<glyph unicode="&#x121;" horiz-adv-x="552" d="M449 427q0 -1 -0.5 -3t-0.5 -3q43 -40 43 -110q0 -78 -57 -128.5t-157 -50.5q-68 0 -124 22q-20 -16 -20 -33q0 -13 13.5 -23t41 -16t50 -9.5t60 -7.5t51.5 -6q160 -23 160 -129q0 -75 -68 -109t-179 -34q-217 0 -217 134q0 69 72 119q-60 22 -60 74q0 43 46 75 q-47 46 -47 120q0 76 54.5 128.5t164.5 52.5q53 0 90 -10h155v-41q-25 -9 -71 -12zM274 432q-75 0 -110.5 -34.5t-35.5 -87.5t36 -86.5t111 -33.5q67 0 105.5 33.5t38.5 87.5q0 50 -34.5 85.5t-110.5 35.5zM300 6l-108 14q-72 -37 -72 -96q0 -35 36 -56.5t109 -21.5 q71 0 119 19.5t48 64.5q0 29 -27.5 47.5t-104.5 28.5zM233 624q0 20 14.5 35t34.5 15q21 0 35.5 -15t14.5 -35q0 -21 -14.5 -35.5t-35.5 -14.5q-20 0 -34.5 14.5t-14.5 35.5z" />
<glyph unicode="&#x122;" horiz-adv-x="659" d="M343 683q102 0 170.5 -48.5t68.5 -136.5q0 -8 -2 -20h-70q-3 60 -45 97.5t-123 37.5q-209 0 -209 -279q0 -276 209 -276q56 0 95 16t59.5 44t29 58.5t8.5 66.5v51h-163v66h237v-110q0 -118 -66 -188.5t-202 -70.5q-285 0 -285 342q0 161 71 255.5t217 94.5zM285 -101 q0 22 15 37.5t37 15.5q23 0 37.5 -14t14.5 -37q0 -14 -6 -29l-65 -130l-28 9l32 100q-16 4 -26.5 17.5t-10.5 30.5z" />
<glyph unicode="&#x123;" horiz-adv-x="552" d="M320 596q0 -22 -15 -37t-36 -15q-23 0 -37.5 14t-14.5 36q0 15 6 28l65 128l28 -10l-33 -96q16 -4 26.5 -17.5t10.5 -30.5zM449 427q0 -1 -0.5 -3t-0.5 -3q43 -40 43 -110q0 -78 -57 -128.5t-157 -50.5q-68 0 -124 22q-20 -16 -20 -33q0 -13 13.5 -23t41 -16t50 -9.5 t60 -7.5t51.5 -6q160 -23 160 -129q0 -75 -68 -109t-179 -34q-217 0 -217 134q0 69 72 119q-60 22 -60 74q0 43 46 75q-47 46 -47 120q0 76 54.5 128.5t164.5 52.5q53 0 90 -10h155v-41q-25 -9 -71 -12zM274 432q-75 0 -110.5 -34.5t-35.5 -87.5t36 -86.5t111 -33.5 q67 0 105.5 33.5t38.5 87.5q0 50 -34.5 85.5t-110.5 35.5zM300 6l-108 14q-72 -37 -72 -96q0 -35 36 -56.5t109 -21.5q71 0 119 19.5t48 64.5q0 29 -27.5 47.5t-104.5 28.5z" />
<glyph unicode="&#x124;" horiz-adv-x="658" d="M517 0v311h-376v-311h-76v675h76v-294h376v294h76v-675h-76zM455 725l-125 102l-131 -102q0 1 -16.5 17t-16.5 17l135 133h60l131 -133z" />
<glyph unicode="&#x125;" horiz-adv-x="534" d="M125 402h4q22 42 65.5 65t97.5 23q58 0 96.5 -17.5t56 -50.5t23.5 -65.5t6 -77.5v-279h-76v278q0 73 -25.5 112.5t-96.5 39.5q-70 0 -106 -51t-36 -118v-261h-74v711h74v-205q0 -65 -9 -104zM224 725l-125 102l-131 -102q0 1 -16.5 17t-16.5 17l135 133h60l131 -133z" />
<glyph unicode="&#x126;" horiz-adv-x="658" d="M517 0v316h-376v-316h-76v534h-47v54h47v87h76v-87h376v87h76v-87h49v-54h-49v-534h-76zM141 386h376v148h-376v-148z" />
<glyph unicode="&#x127;" horiz-adv-x="534" d="M125 394h4q22 42 65.5 65.5t97.5 23.5q58 0 96.5 -17.5t56 -50.5t23.5 -65.5t6 -77.5v-272h-76v270q0 74 -25.5 113t-96.5 39q-70 0 -106 -51t-36 -118v-253h-74v567h-52v52h52v92h74v-92h241v-52h-241v-61q0 -73 -9 -112z" />
<glyph unicode="&#x128;" horiz-adv-x="246" d="M85 0v674h76v-674h-76zM188 743q-25 0 -70.5 18t-65.5 18q-32 0 -67 -39l-35 29q13 34 42 54t60 20q22 0 64.5 -17.5t65.5 -17.5q36 0 67 37l38 -27q-12 -35 -40 -55t-59 -20z" />
<glyph unicode="&#x129;" horiz-adv-x="248" d="M190 573q-25 0 -70.5 18t-65.5 18q-32 0 -67 -39l-35 29q13 34 42 54t60 20q22 0 64.5 -17.5t65.5 -17.5q36 0 67 37l38 -27q-12 -35 -40 -55t-59 -20zM86 0v482h74v-482h-74z" />
<glyph unicode="&#x12a;" horiz-adv-x="246" d="M85 0v674h76v-674h-76zM-26 761v62h301v-62h-301z" />
<glyph unicode="&#x12b;" horiz-adv-x="248" d="M-27 594v61h302v-61h-302zM86 0v482h74v-482h-74z" />
<glyph unicode="&#x12c;" horiz-adv-x="271" d="M105 0v674h76v-674h-76zM143 729q-52 0 -89.5 28t-52.5 62.5t-17 69.5h59q4 -40 27.5 -70t72.5 -30q48 0 72 30.5t28 69.5h59q-5 -59 -44.5 -109.5t-114.5 -50.5z" />
<glyph unicode="&#x12d;" horiz-adv-x="248" d="M123 553q-77 0 -116 48t-43 105h59q4 -38 27.5 -65t72.5 -27q48 0 72 27.5t28 64.5h59q-2 -25 -11.5 -50t-27.5 -49t-49 -39t-71 -15zM86 0v482h74v-482h-74z" />
<glyph unicode="&#x12e;" horiz-adv-x="246" d="M1 -140q0 78 84 144v670h76v-674h-44q-52 -61 -52 -116q0 -28 15.5 -38.5t46.5 -10.5q28 0 72 11q1 -8 8 -32q-52 -26 -107 -26q-47 0 -73 19.5t-26 52.5z" />
<glyph unicode="&#x12f;" horiz-adv-x="248" d="M5 -140q0 76 80 141v481h75v-482h-38q-52 -60 -52 -116q0 -28 15.5 -38.5t46.5 -10.5q17 0 72 11l8 -32q-52 -26 -107 -26q-47 0 -73.5 19.5t-26.5 52.5zM75 622q0 47 48 47q23 0 36 -12.5t13 -34.5q0 -49 -49 -49q-48 0 -48 49z" />
<glyph unicode="&#x130;" horiz-adv-x="246" d="M85 0v674h76v-674h-76zM74 794q0 20 14.5 35t34.5 15q21 0 35.5 -15t14.5 -35q0 -21 -14.5 -35.5t-35.5 -14.5q-20 0 -34.5 14.5t-14.5 35.5z" />
<glyph unicode="&#x131;" horiz-adv-x="248" d="M86 0v482h74v-482h-74z" />
<glyph unicode="&#x132;" horiz-adv-x="731" d="M77 0v674h76v-674h-76zM425 -8q-95 0 -155 43.5t-60 121.5q0 14 3 29h71q2 -126 142 -126q87 0 120.5 44t33.5 126v444h76v-462q0 -40 -9.5 -75t-32.5 -69.5t-71.5 -55t-117.5 -20.5z" />
<glyph unicode="&#x133;" horiz-adv-x="428" d="M82 0v482h74v-482h-74zM71 621q0 21 14.5 35.5t34.5 14.5q21 0 35.5 -14.5t14.5 -35.5q0 -20 -14.5 -34.5t-35.5 -14.5q-20 0 -34.5 14.5t-14.5 34.5zM247 -202h-43v65h23q28 0 39 15.5t11 49.5v554h75v-555q0 -63 -23 -96t-82 -33zM265 621q0 21 14.5 35.5t35.5 14.5 q20 0 34.5 -14.5t14.5 -35.5q0 -20 -14.5 -34.5t-34.5 -14.5q-21 0 -35.5 14.5t-14.5 34.5z" />
<glyph unicode="&#x134;" horiz-adv-x="543" d="M235 -7q-95 0 -155 43.5t-60 121.5q0 14 3 29h71q2 -126 142 -126q87 0 120.5 44t33.5 126v444h76v-462q0 -40 -9.5 -75t-32.5 -69.5t-71.5 -55t-117.5 -20.5zM553 727l-125 102l-131 -102q0 1 -16.5 17t-16.5 17l135 133h60l131 -133z" />
<glyph unicode="&#x135;" horiz-adv-x="235" d="M54 -198h-44v65h23q29 0 39.5 15.5t10.5 48.5v551h76v-552q0 -63 -23 -95.5t-82 -32.5zM249 545l-126 106q-4 -4 -64.5 -53t-65.5 -53l-34 34q4 4 67 68t69 69h59q5 -5 66 -68.5t66 -68.5z" />
<glyph unicode="&#x136;" horiz-adv-x="556" d="M141 674v-292h97l227 292h89l-255 -324l264 -350h-96l-230 312h-96v-312h-76v674h76zM221 -80q0 22 15 37.5t37 15.5q23 0 37.5 -14t14.5 -37q0 -14 -6 -29l-65 -130l-28 9l32 100q-16 4 -26.5 17.5t-10.5 30.5z" />
<glyph unicode="&#x137;" horiz-adv-x="472" d="M370 482h85l-182 -216l195 -266h-90l-166 234h-78v-234h-74v711h74v-417h79zM181 -98q0 22 15 37.5t37 15.5q23 0 37.5 -14t14.5 -37q0 -14 -6 -29l-65 -130l-28 9l32 100q-16 4 -26.5 17.5t-10.5 30.5z" />
<glyph unicode="&#x138;" horiz-adv-x="469" d="M372 481h83q-17 -20 -81.5 -99.5t-99.5 -121.5l190 -260h-89l-159 222h-83v-222h-73v482h73v-199h76z" />
<glyph unicode="&#x139;" horiz-adv-x="517" d="M65 0v674h78v-604h364v-70h-442zM100 726l-30 41l155 118l52 -67z" />
<glyph unicode="&#x13a;" horiz-adv-x="228" d="M70 710h74v-621q0 -23 9 -29.5t41 -6.5v-54q-27 -7 -46 -7q-27 0 -43.5 6t-23.5 20.5t-9 28.5t-2 41v622zM103 757l-30 41l155 118l52 -67z" />
<glyph unicode="&#x13b;" horiz-adv-x="517" d="M65 0v674h78v-604h364v-70h-442zM212 -101q0 22 15 37.5t37 15.5q23 0 37.5 -14t14.5 -37q0 -14 -6 -29l-65 -130l-28 9l32 100q-16 4 -26.5 17.5t-10.5 30.5z" />
<glyph unicode="&#x13c;" horiz-adv-x="228" d="M70 710h74v-621q0 -23 9 -29.5t41 -6.5v-54q-27 -7 -46 -7q-27 0 -43.5 6t-23.5 20.5t-9 28.5t-2 41v622zM71 -101q0 22 15 37.5t37 15.5q23 0 37.5 -14t14.5 -37q0 -14 -6 -29l-65 -130l-28 9l32 100q-16 4 -26.5 17.5t-10.5 30.5z" />
<glyph unicode="&#x13d;" horiz-adv-x="517" d="M65 0v674h78v-604h364v-70h-442zM294 633q0 22 15 37.5t37 15.5q23 0 37.5 -14t14.5 -37q0 -14 -6 -29l-65 -130l-28 9l32 100q-16 4 -26.5 17.5t-10.5 30.5z" />
<glyph unicode="&#x13e;" horiz-adv-x="311" d="M65 710h74v-621q0 -23 9 -29.5t41 -6.5v-54q-27 -7 -46 -7q-27 0 -43.5 6t-23.5 20.5t-9 28.5t-2 41v622zM202 672q0 22 15 37.5t37 15.5q23 0 37.5 -14t14.5 -37q0 -14 -6 -29l-65 -130l-28 9l32 100q-16 4 -26.5 17.5t-10.5 30.5z" />
<glyph unicode="&#x13f;" horiz-adv-x="517" d="M65 0v674h78v-604h364v-70h-442zM289 378q0 20 14.5 35t34.5 15q21 0 35.5 -15t14.5 -35q0 -21 -14.5 -35.5t-35.5 -14.5q-20 0 -34.5 14.5t-14.5 35.5z" />
<glyph unicode="&#x140;" horiz-adv-x="306" d="M65 710h74v-621q0 -23 9 -29.5t41 -6.5v-54q-27 -7 -46 -7q-27 0 -43.5 6t-23.5 20.5t-9 28.5t-2 41v622zM199 395q0 20 14.5 35t34.5 15q21 0 35.5 -15t14.5 -35q0 -21 -14.5 -35.5t-35.5 -14.5q-20 0 -34.5 14.5t-14.5 35.5z" />
<glyph unicode="&#x141;" horiz-adv-x="517" d="M-1 199q-5 7 -13.5 23t-12.5 24q15 9 46 26.5t46 26.5v375h78v-331l166 95q4 -8 13 -24t13 -24l-192 -109v-212h364v-69h-442v237z" />
<glyph unicode="&#x142;" horiz-adv-x="228" d="M70 710h74v-341l91 53q4 -8 13 -24t13 -24q-20 -11 -59 -34t-58 -34v-217q0 -23 9 -29.5t41 -6.5v-54q-27 -7 -46 -7q-28 0 -45 6.5t-23.5 23.5t-8 31t-1.5 45v165l-78 -46q-4 7 -12.5 23.5t-13.5 23.5q20 12 57 34t47 28v384z" />
<glyph unicode="&#x143;" horiz-adv-x="664" d="M146 547q-1 -1 -4 -1v-546h-77v674h72l227 -319q36 -51 153 -226h5v545h77v-674h-72l-247 348q-98 137 -134 199zM303 724l-30 41l155 118l52 -67z" />
<glyph unicode="&#x144;" horiz-adv-x="534" d="M293 491q58 0 96 -17.5t55.5 -50.5t23.5 -65t6 -76v-282h-76v278q0 72 -25 112t-96 40q-67 0 -105 -49.5t-38 -113.5v-267h-74v482h56q16 -27 16 -71h4q26 39 71.5 59.5t85.5 20.5zM227 545l-40 34l124 156l63 -54z" />
<glyph unicode="&#x145;" horiz-adv-x="664" d="M146 547q-1 -1 -4 -1v-546h-77v674h72l227 -319q36 -51 153 -226h5v545h77v-674h-72l-247 348q-98 137 -134 199zM271 -81q0 22 15 37.5t37 15.5q23 0 37.5 -14t14.5 -37q0 -14 -6 -29l-65 -130l-28 9l32 100q-16 4 -26.5 17.5t-10.5 30.5z" />
<glyph unicode="&#x146;" horiz-adv-x="534" d="M293 491q58 0 96 -17.5t55.5 -50.5t23.5 -65t6 -76v-282h-76v278q0 72 -25 112t-96 40q-67 0 -105 -49.5t-38 -113.5v-267h-74v482h56q16 -27 16 -71h4q26 39 71.5 59.5t85.5 20.5zM205 -97q0 22 15 37.5t37 15.5q23 0 37.5 -14t14.5 -37q0 -14 -6 -29l-65 -130l-28 9 l32 100q-16 4 -26.5 17.5t-10.5 30.5z" />
<glyph unicode="&#x147;" horiz-adv-x="664" d="M146 547q-1 -1 -4 -1v-546h-77v674h72l227 -319q36 -51 153 -226h5v545h77v-674h-72l-247 348q-98 137 -134 199zM338 791l126 101l37 -34l-131 -132h-60l-136 132l4 4q3 4 8 8.5t10 9.5l8 8l4 4z" />
<glyph unicode="&#x148;" horiz-adv-x="534" d="M293 491q58 0 96 -17.5t55.5 -50.5t23.5 -65t6 -76v-282h-76v278q0 72 -25 112t-96 40q-67 0 -105 -49.5t-38 -113.5v-267h-74v482h56q16 -27 16 -71h4q26 39 71.5 59.5t85.5 20.5zM250 613l125 102l37 -33q-4 -5 -65 -67.5t-66 -66.5h-60q-5 5 -68 67.5t-68 66.5l34 33 q5 -4 65.5 -51t65.5 -51z" />
<glyph unicode="&#x149;" horiz-adv-x="600" d="M359 491q58 0 96 -17.5t55.5 -50.5t23.5 -65t6 -76v-282h-76v278q0 72 -25 112t-96 40q-67 0 -105 -49.5t-38 -113.5v-267h-74v482h56q16 -27 16 -71h4q26 39 71.5 59.5t85.5 20.5zM7 620q0 22 15 37.5t37 15.5q23 0 37.5 -14t14.5 -37q0 -14 -6 -29l-65 -130l-28 9 l32 100q-16 4 -26.5 17.5t-10.5 30.5z" />
<glyph unicode="&#x14a;" horiz-adv-x="664" d="M146 547q-1 -1 -4 -1v-546h-77v674h72l266 -375q22 -32 61 -91t53 -79h5v545h77v-771q0 -102 -100 -102q-46 0 -85 16l18 58q28 -9 49 -9q26 0 36.5 11.5t10.5 36.5v86q-48 66 -149 208.5t-143 202.5q-48 67 -90 136z" />
<glyph unicode="&#x14b;" horiz-adv-x="534" d="M291 490q56 0 94 -17.5t56.5 -50t25.5 -66t7 -77.5v-381q0 -48 -28.5 -73t-82.5 -25q-44 0 -75 16l18 57q21 -7 48 -7q24 0 33.5 10.5t10.5 35.5v366q0 73 -25.5 112.5t-97.5 39.5q-67 0 -104 -49t-37 -114v-267h-74v482h56q16 -27 16 -71h4q26 39 70.5 59t84.5 20z" />
<glyph unicode="&#x14c;" horiz-adv-x="684" d="M345 681q284 0 284 -350q0 -69 -14 -126t-45.5 -107t-89.5 -78t-138 -28q-157 0 -222 88t-65 250q0 164 70.5 257.5t219.5 93.5zM344 611q-211 0 -211 -281q0 -270 209 -270q99 0 153 67.5t54 203.5q0 280 -205 280zM193 771v62h301v-62h-301z" />
<glyph unicode="&#x14d;" horiz-adv-x="543" d="M273 490q61 0 105 -21t68.5 -57.5t35.5 -79t11 -92.5q0 -49 -11 -91t-35.5 -78.5t-69 -57.5t-104.5 -21q-223 0 -223 246q0 113 56 182.5t167 69.5zM273 422q-147 0 -147 -184q0 -181 147 -181q143 0 143 183q0 182 -143 182zM123 594v61h302v-61h-302z" />
<glyph unicode="&#x14e;" horiz-adv-x="684" d="M345 681q284 0 284 -350q0 -69 -14 -126t-45.5 -107t-89.5 -78t-138 -28q-157 0 -222 88t-65 250q0 164 70.5 257.5t219.5 93.5zM344 611q-211 0 -211 -281q0 -270 209 -270q99 0 153 67.5t54 203.5q0 280 -205 280zM341 736q-52 0 -89.5 28t-52.5 62.5t-17 69.5h59 q4 -40 27.5 -70t72.5 -30q48 0 72 30.5t28 69.5h59q-5 -59 -44.5 -109.5t-114.5 -50.5z" />
<glyph unicode="&#x14f;" horiz-adv-x="543" d="M273 490q61 0 105 -21t68.5 -57.5t35.5 -79t11 -92.5q0 -49 -11 -91t-35.5 -78.5t-69 -57.5t-104.5 -21q-223 0 -223 246q0 113 56 182.5t167 69.5zM273 422q-147 0 -147 -184q0 -181 147 -181q143 0 143 183q0 182 -143 182zM275 548q-77 0 -116 48t-43 105h59 q4 -38 27.5 -65t72.5 -27q48 0 72 27.5t28 64.5h59q-2 -25 -11.5 -50t-27.5 -49t-49 -39t-71 -15z" />
<glyph unicode="&#x150;" horiz-adv-x="684" d="M345 681q284 0 284 -350q0 -69 -14 -126t-45.5 -107t-89.5 -78t-138 -28q-157 0 -222 88t-65 250q0 164 70.5 257.5t219.5 93.5zM344 611q-211 0 -211 -281q0 -270 209 -270q99 0 153 67.5t54 203.5q0 280 -205 280zM232 725l-30 42l155 117l52 -66zM396 725l-29 42 l155 117l52 -66z" />
<glyph unicode="&#x151;" horiz-adv-x="543" d="M273 490q61 0 105 -21t68.5 -57.5t35.5 -79t11 -92.5q0 -49 -11 -91t-35.5 -78.5t-69 -57.5t-104.5 -21q-223 0 -223 246q0 113 56 182.5t167 69.5zM273 422q-147 0 -147 -184q0 -181 147 -181q143 0 143 183q0 182 -143 182zM193 552l-39 33l123 156l63 -54zM335 552 l-40 33l124 156l63 -54z" />
<glyph unicode="&#x152;" horiz-adv-x="891" d="M342 681q33 0 73 -7h444v-60h-366v-233h335v-62h-335v-259h375v-60h-449q-37 -8 -78 -8q-158 0 -224.5 88.5t-66.5 250.5q0 163 71 256.5t221 93.5zM340 52q42 0 75 13v543q-38 12 -75 12q-114 0 -163 -75t-49 -214q0 -279 212 -279z" />
<glyph unicode="&#x153;" horiz-adv-x="886" d="M273 489q129 0 183 -98q55 98 179 98q103 0 152 -57t49 -153q0 -27 -3 -54h-339q0 -169 146 -169q115 0 125 92h67q1 -5 1 -12q0 -71 -55 -107.5t-139 -36.5q-136 0 -187 92q-54 -91 -179 -91q-223 0 -223 245q0 113 56 182t167 69zM273 422q-148 -1 -148 -184 q0 -181 148 -181q68 0 105.5 45.5t37.5 137.5q0 182 -143 182zM634 424q-63 0 -97.5 -38.5t-39.5 -103.5h264q0 142 -127 142z" />
<glyph unicode="&#x154;" horiz-adv-x="586" d="M546 472q0 -34 -11 -66t-33.5 -61.5t-64.5 -48.5t-98 -22l207 -274h-93q-10 12 -55 73t-94.5 127t-54.5 73h-108v-273h-76v674h256q107 0 166 -55t59 -147zM313 606h-172v-264h172q66 0 110.5 30t44.5 101q0 62 -44 97.5t-111 35.5zM252 726l-30 41l155 118l52 -67z" />
<glyph unicode="&#x155;" horiz-adv-x="314" d="M137 0h-74v482h56q15 -38 15 -90h4q21 52 69.5 76t101.5 24l5 -71q-93 -3 -135 -41t-42 -114v-266zM139 545l-40 34l124 156l63 -54z" />
<glyph unicode="&#x156;" horiz-adv-x="586" d="M546 472q0 -34 -11 -66t-33.5 -61.5t-64.5 -48.5t-98 -22l207 -274h-93q-10 12 -55 73t-94.5 127t-54.5 73h-108v-273h-76v674h256q107 0 166 -55t59 -147zM313 606h-172v-264h172q66 0 110.5 30t44.5 101q0 62 -44 97.5t-111 35.5zM231 -78q0 22 15 37.5t37 15.5 q23 0 37.5 -14t14.5 -37q0 -14 -6 -29l-65 -130l-28 9l32 100q-16 4 -26.5 17.5t-10.5 30.5z" />
<glyph unicode="&#x157;" horiz-adv-x="314" d="M137 0h-74v482h56q15 -38 15 -90h4q21 52 69.5 76t101.5 24l5 -71q-93 -3 -135 -41t-42 -114v-266zM49 -100q0 22 15 37.5t37 15.5q23 0 37.5 -14t14.5 -37q0 -14 -6 -29l-65 -130l-28 9l32 100q-16 4 -26.5 17.5t-10.5 30.5z" />
<glyph unicode="&#x158;" horiz-adv-x="586" d="M546 472q0 -34 -11 -66t-33.5 -61.5t-64.5 -48.5t-98 -22l207 -274h-93q-10 12 -55 73t-94.5 127t-54.5 73h-108v-273h-76v674h256q107 0 166 -55t59 -147zM313 606h-172v-264h172q66 0 110.5 30t44.5 101q0 62 -44 97.5t-111 35.5zM269 791l126 101l37 -34l-131 -132 h-60l-136 132l3 4q4 4 9 8.5t10 9.5t9 8l3 4z" />
<glyph unicode="&#x159;" horiz-adv-x="314" d="M137 0h-74v482h56q15 -38 15 -90h4q21 52 69.5 76t101.5 24l5 -71q-93 -3 -135 -41t-42 -114v-266zM150 613l125 102l37 -33q-4 -5 -65.5 -67.5t-65.5 -66.5h-60q-5 5 -68 67.5t-68 66.5l34 33q5 -4 65.5 -51t65.5 -51z" />
<glyph unicode="&#x15a;" horiz-adv-x="622" d="M312 60q93 0 137 35.5t44 85.5q0 61 -42.5 92.5t-133.5 42.5q-44 5 -73 10.5t-64.5 18t-56.5 29.5t-35.5 46t-14.5 67q0 83 59 139t187 56q93 0 164 -45.5t71 -132.5q0 -6 -2 -22h-73q-2 56 -44 92.5t-121 36.5q-81 0 -122 -32t-41 -81q0 -24 10 -41.5t23 -27.5t43 -18.5 t51.5 -12.5t68.5 -11q111 -16 168.5 -61.5t57.5 -137.5q0 -82 -66.5 -139.5t-196.5 -57.5q-113 0 -187 49t-74 144q0 9 2 27h72q2 -66 49 -108.5t140 -42.5zM284 726l-30 41l155 118l52 -67z" />
<glyph unicode="&#x15b;" horiz-adv-x="472" d="M238 54q54 0 82.5 23.5t28.5 54.5q0 41 -26.5 59t-90.5 25q-43 5 -68.5 10.5t-54.5 19t-43 38.5t-14 62q0 61 44 102.5t139 41.5q42 0 80 -11t66.5 -39t28.5 -68q0 -7 -2 -17h-70q-5 35 -34.5 53.5t-72.5 18.5q-52 0 -78.5 -21t-26.5 -52q0 -16 6 -27.5t14.5 -18.5 t28 -12.5t34.5 -8t46 -7.5q87 -12 128 -43t41 -100q0 -60 -49.5 -102.5t-145.5 -42.5q-76 0 -133.5 34t-57.5 103q0 5 2 21h70q4 -50 40 -73t88 -23zM221 545l-40 34l124 156l63 -54z" />
<glyph unicode="&#x15c;" horiz-adv-x="622" d="M312 60q93 0 137 35.5t44 85.5q0 61 -42.5 92.5t-133.5 42.5q-44 5 -73 10.5t-64.5 18t-56.5 29.5t-35.5 46t-14.5 67q0 83 59 139t187 56q93 0 164 -45.5t71 -132.5q0 -6 -2 -22h-73q-2 56 -44 92.5t-121 36.5q-81 0 -122 -32t-41 -81q0 -24 10 -41.5t23 -27.5t43 -18.5 t51.5 -12.5t68.5 -11q111 -16 168.5 -61.5t57.5 -137.5q0 -82 -66.5 -139.5t-196.5 -57.5q-113 0 -187 49t-74 144q0 9 2 27h72q2 -66 49 -108.5t140 -42.5zM434 725l-125 102l-131 -102q0 1 -16.5 17t-16.5 17l135 133h60l131 -133z" />
<glyph unicode="&#x15d;" horiz-adv-x="472" d="M238 54q54 0 82.5 23.5t28.5 54.5q0 41 -26.5 59t-90.5 25q-43 5 -68.5 10.5t-54.5 19t-43 38.5t-14 62q0 61 44 102.5t139 41.5q42 0 80 -11t66.5 -39t28.5 -68q0 -7 -2 -17h-70q-5 35 -34.5 53.5t-72.5 18.5q-52 0 -78.5 -21t-26.5 -52q0 -16 6 -27.5t14.5 -18.5 t28 -12.5t34.5 -8t46 -7.5q87 -12 128 -43t41 -100q0 -60 -49.5 -102.5t-145.5 -42.5q-76 0 -133.5 34t-57.5 103q0 5 2 21h70q4 -50 40 -73t88 -23zM359 545l-126 106q-5 -4 -65 -53t-65 -53l-34 34q4 4 67 68t69 69h59q5 -4 66 -68t66 -69z" />
<glyph unicode="&#x15e;" horiz-adv-x="622" d="M312 60q93 0 137 35.5t44 85.5q0 61 -42.5 92.5t-133.5 42.5q-44 5 -73 10.5t-64.5 18t-56.5 29.5t-35.5 46t-14.5 67q0 83 59 139t187 56q93 0 164 -45.5t71 -132.5q0 -6 -2 -22h-73q-2 56 -44 92.5t-121 36.5q-81 0 -122 -32t-41 -81q0 -24 10 -41.5t23 -27.5t43 -18.5 t51.5 -12.5t68.5 -11q111 -16 168.5 -61.5t57.5 -137.5q0 -79 -60 -134.5t-179 -61.5l-18 -37q62 0 89 -26t27 -56q0 -38 -31 -63t-88 -26q-50 0 -98 17l12 40q45 -14 78 -14q29 0 46.5 12t17.5 33t-16 31.5t-39 10.5q-26 0 -40 -7l-22 17l33 68q-103 5 -169.5 54t-66.5 138 q0 18 1 27h73q2 -66 49 -108.5t140 -42.5z" />
<glyph unicode="&#x15f;" horiz-adv-x="472" d="M237 54q55 0 83.5 23.5t28.5 54.5q0 40 -27 58t-90 26q-34 4 -54.5 7.5t-48 12.5t-42 21.5t-25.5 35t-11 52.5q0 61 44.5 102.5t139.5 41.5q68 0 121.5 -29.5t53.5 -87.5q0 -11 -1 -17h-72q-5 35 -34 53.5t-72 18.5q-52 0 -78.5 -21t-26.5 -52q0 -20 7.5 -33t27.5 -21 t38 -11.5t56 -8.5q86 -12 127 -44t41 -102q0 -54 -42 -94t-123 -46l-23 -40q63 0 90 -25t27 -57q0 -39 -31 -63.5t-89 -25.5q-46 0 -98 18q1 2 4 10.5t5.5 18t3.5 11.5q45 -14 77 -14q30 0 47.5 11.5t17.5 32.5t-17 32t-41 11q-19 0 -38 -8l-21 18q2 4 17 33.5t19 36.5 q-72 4 -121.5 37.5t-49.5 96.5q0 6 2 22h71q3 -51 39 -73.5t88 -22.5z" />
<glyph unicode="&#x160;" horiz-adv-x="622" d="M312 60q93 0 137 35.5t44 85.5q0 61 -42.5 92.5t-133.5 42.5q-44 5 -73 10.5t-64.5 18t-56.5 29.5t-35.5 46t-14.5 67q0 83 59 139t187 56q93 0 164 -45.5t71 -132.5q0 -6 -2 -22h-73q-2 56 -44 92.5t-121 36.5q-81 0 -122 -32t-41 -81q0 -24 10 -41.5t23 -27.5t43 -18.5 t51.5 -12.5t68.5 -11q111 -16 168.5 -61.5t57.5 -137.5q0 -82 -66.5 -139.5t-196.5 -57.5q-113 0 -187 49t-74 144q0 9 2 27h72q2 -66 49 -108.5t140 -42.5zM314 791l126 101l37 -34l-131 -132h-60l-136 132l4 4q3 4 8 8.5t10 9.5l8 8l4 4z" />
<glyph unicode="&#x161;" horiz-adv-x="472" d="M238 54q54 0 82.5 23.5t28.5 54.5q0 41 -26.5 59t-90.5 25q-43 5 -68.5 10.5t-54.5 19t-43 38.5t-14 62q0 61 44 102.5t139 41.5q42 0 80 -11t66.5 -39t28.5 -68q0 -7 -2 -17h-70q-5 35 -34.5 53.5t-72.5 18.5q-52 0 -78.5 -21t-26.5 -52q0 -16 6 -27.5t14.5 -18.5 t28 -12.5t34.5 -8t46 -7.5q87 -12 128 -43t41 -100q0 -60 -49.5 -102.5t-145.5 -42.5q-76 0 -133.5 34t-57.5 103q0 5 2 21h70q4 -50 40 -73t88 -23zM244 613l125 102l37 -33q-4 -5 -65.5 -67.5t-65.5 -66.5h-60q-5 5 -68 67.5t-68 66.5l34 33q5 -4 65.5 -51t65.5 -51z" />
<glyph unicode="&#x162;" horiz-adv-x="565" d="M322 606v-606h-76v606h-231v68h535v-68h-228zM231 -101q0 22 15 37.5t37 15.5q23 0 37.5 -14t14.5 -37q0 -14 -6 -29l-65 -130l-28 9l32 100q-16 4 -26.5 17.5t-10.5 30.5z" />
<glyph unicode="&#x163;" horiz-adv-x="355" d="M175 607v-125h143v-58h-143v-271q0 -60 23 -79.5t81 -19.5q24 0 59 5v-60q-41 -7 -81 -7q-87 0 -122 34.5t-35 130.5v267h-79v48l83 10l18 125h53zM125 -101q0 22 15 37.5t37 15.5q23 0 37.5 -14t14.5 -37q0 -14 -6 -29l-65 -130l-28 9l32 100q-16 4 -26.5 17.5 t-10.5 30.5z" />
<glyph unicode="&#x164;" horiz-adv-x="565" d="M322 606v-606h-76v606h-231v68h535v-68h-228zM289 791l126 101l37 -34l-131 -132h-60l-136 132l3 4q4 4 9 8.5t10 9.5t9 8l3 4z" />
<glyph unicode="&#x165;" horiz-adv-x="367" d="M175 607v-125h143v-58h-143v-271q0 -60 23 -79.5t81 -19.5q24 0 59 5v-60q-41 -7 -81 -7q-87 0 -122 34.5t-35 130.5v267h-79v48l83 10l18 125h53zM265 686q0 22 15 37.5t37 15.5q23 0 37.5 -14t14.5 -37q0 -14 -6 -29l-65 -130l-28 9l32 100q-16 4 -26.5 17.5 t-10.5 30.5z" />
<glyph unicode="&#x166;" horiz-adv-x="565" d="M322 606v-197h169v-54h-169v-355h-76v355h-173v54h173v197h-231v68h535v-68h-228z" />
<glyph unicode="&#x167;" horiz-adv-x="355" d="M175 607v-125h143v-58h-143v-111h140v-55h-140v-105q0 -60 23 -79.5t81 -19.5q24 0 59 5v-60q-41 -7 -81 -7q-87 0 -122 34.5t-35 130.5v101h-78v55h78v111h-79v48l83 10l18 125h53z" />
<glyph unicode="&#x168;" horiz-adv-x="660" d="M595 674v-407q0 -275 -260 -275q-148 0 -209 70t-61 207v405h76v-408q0 -113 49.5 -159.5t145.5 -46.5q183 0 183 207v407h76zM396 741q-25 0 -70.5 18t-65.5 18q-32 0 -67 -39l-35 29q13 34 42 54t60 20q22 0 64.5 -17.5t65.5 -17.5q36 0 67 37l38 -27q-12 -35 -40 -55 t-59 -20z" />
<glyph unicode="&#x169;" horiz-adv-x="524" d="M463 482v-482h-55q-14 22 -14 71h-4q-27 -40 -70 -59.5t-83 -19.5q-55 0 -92.5 16.5t-55 47t-24 61t-6.5 71.5v294h76v-281q0 -74 23.5 -111t94.5 -37q66 0 101 48.5t35 113.5v267h74zM329 573q-25 0 -70.5 18t-65.5 18q-32 0 -67 -39l-35 29q13 34 42 54t60 20 q22 0 64.5 -17.5t65.5 -17.5q36 0 67 37l38 -27q-12 -35 -40 -55t-59 -20z" />
<glyph unicode="&#x16a;" horiz-adv-x="660" d="M595 674v-407q0 -275 -260 -275q-148 0 -209 70t-61 207v405h76v-408q0 -113 49.5 -159.5t145.5 -46.5q183 0 183 207v407h76zM174 760v62h301v-62h-301z" />
<glyph unicode="&#x16b;" horiz-adv-x="524" d="M463 482v-482h-55q-14 22 -14 71h-4q-27 -40 -70 -59.5t-83 -19.5q-55 0 -92.5 16.5t-55 47t-24 61t-6.5 71.5v294h76v-281q0 -74 23.5 -111t94.5 -37q66 0 101 48.5t35 113.5v267h74zM116 594v61h302v-61h-302z" />
<glyph unicode="&#x16c;" horiz-adv-x="660" d="M595 674v-407q0 -275 -260 -275q-148 0 -209 70t-61 207v405h76v-408q0 -113 49.5 -159.5t145.5 -46.5q183 0 183 207v407h76zM333 726q-52 0 -89.5 28t-52.5 62.5t-17 69.5h59q4 -40 27.5 -70t72.5 -30q48 0 72 30.5t28 69.5h59q-5 -59 -44.5 -109.5t-114.5 -50.5z" />
<glyph unicode="&#x16d;" horiz-adv-x="524" d="M463 482v-482h-55q-14 22 -14 71h-4q-27 -40 -70 -59.5t-83 -19.5q-55 0 -92.5 16.5t-55 47t-24 61t-6.5 71.5v294h76v-281q0 -74 23.5 -111t94.5 -37q66 0 101 48.5t35 113.5v267h74zM264 548q-77 0 -116 48t-43 105h59q4 -38 27.5 -65t72.5 -27q48 0 72 27.5t28 64.5 h59q-2 -25 -11.5 -50t-27.5 -49t-49 -39t-71 -15z" />
<glyph unicode="&#x16e;" horiz-adv-x="660" d="M595 674v-407q0 -275 -260 -275q-148 0 -209 70t-61 207v405h76v-408q0 -113 49.5 -159.5t145.5 -46.5q183 0 183 207v407h76zM327 696q-45 0 -74.5 30t-29.5 74q0 43 30 73.5t74 30.5q45 0 76.5 -30.5t31.5 -73.5q0 -45 -31.5 -74.5t-76.5 -29.5zM327 858 q-22 0 -38 -17.5t-16 -40.5q0 -24 15 -41.5t39 -17.5q27 0 42.5 17.5t15.5 41.5t-15.5 41t-42.5 17z" />
<glyph unicode="&#x16f;" horiz-adv-x="524" d="M463 482v-482h-55q-14 22 -14 71h-4q-27 -40 -70 -59.5t-83 -19.5q-55 0 -92.5 16.5t-55 47t-24 61t-6.5 71.5v294h76v-281q0 -74 23.5 -111t94.5 -37q66 0 101 48.5t35 113.5v267h74zM266 540q-45 0 -74.5 30t-29.5 74q0 43 30 73.5t74 30.5q45 0 76.5 -30.5t31.5 -73.5 q0 -45 -31.5 -74.5t-76.5 -29.5zM266 702q-22 0 -38 -17.5t-16 -40.5q0 -24 15 -41.5t39 -17.5q27 0 42.5 17.5t15.5 41.5t-15.5 41t-42.5 17z" />
<glyph unicode="&#x170;" horiz-adv-x="660" d="M595 674v-407q0 -275 -260 -275q-148 0 -209 70t-61 207v405h76v-408q0 -113 49.5 -159.5t145.5 -46.5q183 0 183 207v407h76zM225 725l-30 42l155 117l52 -66zM389 725l-29 42l155 117l52 -66z" />
<glyph unicode="&#x171;" horiz-adv-x="524" d="M463 482v-482h-55q-14 22 -14 71h-4q-27 -40 -70 -59.5t-83 -19.5q-55 0 -92.5 16.5t-55 47t-24 61t-6.5 71.5v294h76v-281q0 -74 23.5 -111t94.5 -37q66 0 101 48.5t35 113.5v267h74zM173 552l-39 33l123 156l63 -54zM315 552l-40 33l124 156l63 -54z" />
<glyph unicode="&#x172;" horiz-adv-x="660" d="M595 674v-407q0 -268 -247 -275q-46 -56 -46 -108q0 -28 15.5 -38.5t47.5 -10.5q17 0 72 11l7 -32q-50 -26 -106 -26q-47 0 -73.5 19.5t-26.5 52.5q0 70 69 133q-132 6 -187 75.5t-55 200.5v405h76v-408q0 -113 49.5 -159.5t145.5 -46.5q183 0 183 207v407h76z" />
<glyph unicode="&#x173;" horiz-adv-x="524" d="M463 482v-482h-28q-53 -61 -53 -116q0 -28 15.5 -38.5t47.5 -10.5q28 0 72 11l7 -32q-50 -26 -106 -26q-47 0 -73.5 19.5t-26.5 52.5q0 79 86 146q-10 23 -10 65h-4q-27 -40 -70 -59.5t-83 -19.5q-55 0 -92.5 16.5t-55 47t-24 61t-6.5 71.5v294h76v-244q0 -40 1 -60.5 t7 -48.5t18 -42t35 -24t57 -10q66 0 101 48.5t35 113.5v267h74z" />
<glyph unicode="&#x174;" horiz-adv-x="888" d="M444 561h-4q-19 -83 -161 -561h-84l-184 674h83l69 -273q10 -47 35 -147t37 -155h6q36 145 66 241q18 57 50 168.5t48 165.5h75l84 -279q65 -222 84 -297h5q27 119 72 298l69 278h82l-182 -674h-84l-104 343q-52 173 -62 218zM567 725l-125 102l-131 -102q0 1 -16.5 17 t-16.5 17l135 133h60l131 -133z" />
<glyph unicode="&#x175;" horiz-adv-x="698" d="M351 373h-7q-18 -81 -56 -208l-51 -167h-79l-147 483h75l43 -148q54 -189 66 -246h8q19 84 50 189q16 55 64 205h66l50 -162q26 -85 66 -233h7q15 75 57 225l48 170h74l-146 -483h-78q-2 7 -21.5 69t-36.5 119q-39 139 -52 187zM475 545l-126 106q-4 -4 -65 -53t-65 -53 l-34 34q4 4 67 68t69 69h59q5 -4 66 -68t66 -69z" />
<glyph unicode="&#x176;" horiz-adv-x="558" d="M272 344h9q13 35 88 173l86 157h88l-231 -403v-271h-77v271l-226 403h88l89 -163q61 -111 86 -167zM402 725l-125 102l-131 -102q0 1 -16.5 17t-16.5 17l135 133h60l131 -133z" />
<glyph unicode="&#x177;" horiz-adv-x="448" d="M216 55h8q12 43 34 109t28 85l75 232h73l-178 -536q-25 -76 -58.5 -112.5t-101.5 -36.5h-57v61h48q37 0 58 14.5t34 51.5l25 75l-38 -3q-16 63 -58 186l-99 300h79q4 -12 32.5 -107.5t35.5 -114.5q43 -137 60 -204zM348 545l-126 106q-5 -4 -65.5 -53t-64.5 -53l-34 34 q4 4 67 68t69 69h59q5 -4 66 -68t66 -69z" />
<glyph unicode="&#x178;" horiz-adv-x="558" d="M272 344h9q13 35 88 173l86 157h88l-231 -403v-271h-77v271l-226 403h88l89 -163q61 -111 86 -167zM161 797q0 19 13 32t31 13q19 0 32 -13t13 -32q0 -18 -13 -31.5t-32 -13.5q-18 0 -31 13.5t-13 31.5zM332 797q0 19 13 32t32 13t32 -13t13 -32q0 -18 -13 -31.5 t-32 -13.5t-32 13.5t-13 31.5z" />
<glyph unicode="&#x179;" horiz-adv-x="569" d="M31 0v64l406 541h-384v70h476v-64l-404 -542h414v-69h-508zM258 726l-30 41l155 118l52 -67z" />
<glyph unicode="&#x17a;" horiz-adv-x="440" d="M20 0v50l300 370h-279v62h368v-54l-299 -369h304v-59h-394zM196 545l-40 34l124 156l63 -54z" />
<glyph unicode="&#x17b;" horiz-adv-x="569" d="M31 0v64l406 541h-384v70h476v-64l-404 -542h414v-69h-508zM246 794q0 20 14.5 35t34.5 15q21 0 35.5 -15t14.5 -35q0 -21 -14.5 -35.5t-35.5 -14.5q-20 0 -34.5 14.5t-14.5 35.5z" />
<glyph unicode="&#x17c;" horiz-adv-x="440" d="M20 0v50l300 370h-279v62h368v-54l-299 -369h304v-59h-394zM184 624q0 20 14.5 35t34.5 15q21 0 35.5 -15t14.5 -35q0 -21 -14.5 -35.5t-35.5 -14.5q-20 0 -34.5 14.5t-14.5 35.5z" />
<glyph unicode="&#x17d;" horiz-adv-x="569" d="M31 0v64l406 541h-384v70h476v-64l-404 -542h414v-69h-508zM286 791l126 101l37 -34l-131 -132h-60l-136 132l4 4q3 4 8 8.5t10 9.5l8 8l4 4z" />
<glyph unicode="&#x17e;" horiz-adv-x="440" d="M20 0v50l300 370h-279v62h368v-54l-299 -369h304v-59h-394zM224 613l125 102l37 -33q-4 -5 -65 -67.5t-66 -66.5h-60q-5 5 -68 67.5t-68 66.5l34 33q5 -4 65.5 -51t65.5 -51z" />
<glyph unicode="&#x192;" horiz-adv-x="570" d="M155 337v56h93q5 48 11 89q12 86 46 129.5t109 43.5q46 0 91 -15l-17 -61q-36 10 -67 10q-46 0 -64.5 -28.5t-27.5 -96.5l-9 -71h101v-56h-108q-13 -88 -21 -170q-21 -158 -53.5 -218t-116.5 -60q-45 0 -87 18l19 61q40 -10 61 -10q53 0 71.5 50t38.5 201q1 11 2 16 l14 112h-86z" />
<glyph unicode="&#x1a0;" horiz-adv-x="694" d="M345 681q138 0 209 -84q48 1 67 24.5t19 69.5v67h61v-86q0 -126 -111 -132q39 -79 39 -209q0 -69 -14 -126t-45.5 -107t-89.5 -78t-138 -28q-157 0 -222 88t-65 250q0 164 70.5 257.5t219.5 93.5zM344 611q-211 0 -211 -281q0 -270 209 -270q99 0 153 67.5t54 203.5 q0 280 -205 280z" />
<glyph unicode="&#x1a1;" horiz-adv-x="563" d="M273 490q106 0 163 -65q38 1 53.5 24t15.5 69v64h59v-84q0 -117 -95 -128q24 -55 24 -130q0 -49 -11 -91t-35.5 -78.5t-69 -57.5t-104.5 -21q-223 0 -223 246q0 113 56 182.5t167 69.5zM273 422q-147 0 -147 -184q0 -181 147 -181q143 0 143 183q0 182 -143 182z" />
<glyph unicode="&#x1af;" horiz-adv-x="732" d="M595 674v-77h12q40 0 55.5 22t15.5 65v74h62v-86q0 -57 -26.5 -94.5t-88.5 -37.5h-30v-273q0 -275 -260 -275q-148 0 -209 70t-61 207v405h76v-408q0 -113 49.5 -159.5t145.5 -46.5q183 0 183 207v407h76z" />
<glyph unicode="&#x1b0;" horiz-adv-x="578" d="M463 368v-368h-55q-14 22 -14 71h-4q-27 -40 -70 -59.5t-83 -19.5q-55 0 -92.5 16.5t-55 47t-24 61t-6.5 71.5v294h76v-281q0 -74 23.5 -111t94.5 -37q66 0 101 48.5t35 113.5v267h74v-58h8q39 0 51.5 21.5t12.5 70.5v64h60v-83q0 -129 -111 -129h-21z" />
<glyph unicode="&#x1fc;" horiz-adv-x="953" d="M476 220h-245l-141 -220h-84l438 674h477v-60h-366v-238h334v-62h-334v-255h375v-59h-454v220zM476 598h-2l-2 1q-15 -27 -33 -55.5t-40 -62.5t-34 -53l-91 -146h202v316zM602 726l-30 41l155 118l52 -67z" />
<glyph unicode="&#x1fd;" horiz-adv-x="853" d="M594 56q117 0 127 92h67q1 -6 1 -17q0 -67 -57 -103t-139 -36q-139 0 -186 93q-81 -94 -210 -94q-73 0 -119.5 36.5t-46.5 104.5q0 76 56 114t144 38h139v29q0 47 -29.5 80t-96.5 33q-98 0 -112 -74h-69q0 2 -0.5 6t-0.5 6q0 44 31 73.5t70 39.5t84 10q134 0 175 -80 q54 82 167 82q102 0 152.5 -56t50.5 -152q0 -31 -4 -56h-337q0 -169 143 -169zM209 51q106 0 176 85q-11 44 -11 88h-132q-133 0 -133 -92q0 -35 26.5 -58t73.5 -23zM588 424q-63 0 -96 -38.5t-38 -103.5h264q0 142 -130 142zM417 545l-40 34l124 156l63 -54z" />
<glyph unicode="&#x1fe;" horiz-adv-x="684" d="M314 726l-30 41l155 118l52 -67zM345 681q119 0 188 -63l52 65l42 -35l-58 -71q60 -89 60 -246q0 -69 -14 -126t-45.5 -107t-89.5 -78t-138 -28q-126 0 -196 61l-51 -65l-43 35l58 71q-55 81 -55 236q0 164 70.5 257.5t219.5 93.5zM549 331q0 113 -34 180l-319 -397 q50 -54 146 -54q99 0 153 67.5t54 203.5zM344 611q-211 0 -211 -281q0 -107 31 -169l319 396q-49 54 -139 54z" />
<glyph unicode="&#x1ff;" horiz-adv-x="543" d="M266 545l-40 34l124 156l63 -54zM273 490q95 0 152 -54l48 52l34 -31l-53 -57q39 -63 39 -160q0 -49 -11 -91t-35.5 -78.5t-69 -57.5t-104.5 -21q-100 0 -155 49l-44 -46l-34 31l48 51q-38 59 -38 161q0 113 56 182.5t167 69.5zM273 422q-147 0 -147 -184q0 -65 17 -103 l232 248q-36 39 -102 39zM416 240q0 62 -17 102l-231 -248q36 -37 105 -37q143 0 143 183z" />
<glyph unicode="&#x218;" horiz-adv-x="622" d="M312 60q93 0 137 35.5t44 85.5q0 61 -42.5 92.5t-133.5 42.5q-44 5 -73 10.5t-64.5 18t-56.5 29.5t-35.5 46t-14.5 67q0 83 59 139t187 56q93 0 164 -45.5t71 -132.5q0 -6 -2 -22h-73q-2 56 -44 92.5t-121 36.5q-81 0 -122 -32t-41 -81q0 -24 10 -41.5t23 -27.5t43 -18.5 t51.5 -12.5t68.5 -11q111 -16 168.5 -61.5t57.5 -137.5q0 -82 -66.5 -139.5t-196.5 -57.5q-113 0 -187 49t-74 144q0 9 2 27h72q2 -66 49 -108.5t140 -42.5zM251 -101q0 22 15 37.5t37 15.5q23 0 37.5 -14t14.5 -37q0 -14 -6 -29l-65 -130l-28 9l32 100q-16 4 -26.5 17.5 t-10.5 30.5z" />
<glyph unicode="&#x219;" horiz-adv-x="472" d="M238 54q54 0 82.5 23.5t28.5 54.5q0 41 -26.5 59t-90.5 25q-43 5 -68.5 10.5t-54.5 19t-43 38.5t-14 62q0 61 44 102.5t139 41.5q42 0 80 -11t66.5 -39t28.5 -68q0 -7 -2 -17h-70q-5 35 -34.5 53.5t-72.5 18.5q-52 0 -78.5 -21t-26.5 -52q0 -16 6 -27.5t14.5 -18.5 t28 -12.5t34.5 -8t46 -7.5q87 -12 128 -43t41 -100q0 -60 -49.5 -102.5t-145.5 -42.5q-76 0 -133.5 34t-57.5 103q0 5 2 21h70q4 -50 40 -73t88 -23zM192 -101q0 22 15 37.5t37 15.5q23 0 37.5 -14t14.5 -37q0 -14 -6 -29l-65 -130l-28 9l32 100q-16 4 -26.5 17.5 t-10.5 30.5z" />
<glyph unicode="&#x259;" horiz-adv-x="519" d="M251 56q63 0 97.5 39t39.5 104h-265q0 -66 31.5 -104.5t96.5 -38.5zM251 -9q-100 0 -150.5 57.5t-50.5 147.5q0 30 6 60h335q0 169 -138 169q-115 0 -126 -92h-66q-1 6 -1 17q0 67 56.5 103.5t136.5 36.5q107 0 160.5 -63.5t53.5 -183.5q0 -111 -54 -181.5t-162 -70.5z " />
<glyph unicode="&#x2b9;" horiz-adv-x="216" d="M69 399l-46 22l118 278l82 -35z" />
<glyph unicode="&#x2c6;" horiz-adv-x="530" d="M388 545l-126 106q-4 -4 -65 -53t-65 -53l-34 34q4 4 67 68t69 69h59q5 -4 66 -68t66 -69z" />
<glyph unicode="&#x2c7;" horiz-adv-x="530" d="M262 613l125 102l37 -33q-5 -5 -66 -67.5t-65 -66.5h-60q-5 5 -68 67.5t-68 66.5l34 33q5 -4 65.5 -51t65.5 -51z" />
<glyph unicode="&#x2d8;" horiz-adv-x="535" d="M263 548q-77 0 -116 48t-43 105h59q4 -38 27.5 -65t72.5 -27q48 0 72 27.5t28 64.5h59q-2 -25 -11.5 -50t-27.5 -49t-49 -39t-71 -15z" />
<glyph unicode="&#x2d9;" horiz-adv-x="535" d="M230 624q0 20 14.5 35t34.5 15q21 0 35.5 -15t14.5 -35q0 -21 -14.5 -35.5t-35.5 -14.5q-20 0 -34.5 14.5t-14.5 35.5z" />
<glyph unicode="&#x2da;" horiz-adv-x="529" d="M273 541q-45 0 -74.5 30t-29.5 74q0 43 30 73.5t74 30.5q45 0 76.5 -30.5t31.5 -73.5q0 -45 -31.5 -74.5t-76.5 -29.5zM273 703q-22 0 -38 -17.5t-16 -40.5q0 -24 15 -41.5t39 -17.5q27 0 42.5 17.5t15.5 41.5t-15.5 41t-42.5 17z" />
<glyph unicode="&#x2db;" horiz-adv-x="535" d="M457 26l15 -14q-29 -30 -46 -66t-17 -63q0 -28 15 -38.5t46 -10.5q30 0 72 11l9 -32q-50 -25 -107 -25q-47 0 -73.5 19t-26.5 52q0 37 26 82t87 85z" />
<glyph unicode="&#x2dc;" horiz-adv-x="520" d="M331 573q-25 0 -70.5 18t-65.5 18q-32 0 -67 -39l-35 29q13 34 42 54t60 20q22 0 64.5 -17.5t65.5 -17.5q36 0 67 37l38 -27q-12 -35 -40 -55t-59 -20z" />
<glyph unicode="&#x2dd;" horiz-adv-x="530" d="M179 552l-39 33l123 156l63 -54zM321 552l-40 33l124 156l63 -54z" />
<glyph unicode="&#x384;" horiz-adv-x="530" d="M277 534l-47 22l74 179l79 -31z" />
<glyph unicode="&#x385;" horiz-adv-x="530" d="M266 534l-47 21l74 180l79 -32zM120 602q0 19 13 32t32 13t32 -13t13 -32t-13 -32t-32 -13t-32 13t-13 32zM348 602q0 19 13 32t32 13q18 0 31.5 -13t13.5 -32t-13.5 -32t-31.5 -13q-19 0 -32 13t-13 32z" />
<glyph unicode="&#x386;" horiz-adv-x="607" d="M515 0l-66 174h-295l-63 -174h-81l254 676h76l257 -676h-82zM304 582h-6q-12 -44 -57 -167l-64 -176h250l-64 170q-54 155 -59 173zM34 511l-47 22l74 179l79 -31z" />
<glyph unicode="&#x387;" horiz-adv-x="243" d="M61 353q0 25 17.5 43t42.5 18t43 -18t18 -43t-18 -42.5t-43 -17.5t-42.5 17.5t-17.5 42.5z" />
<glyph unicode="&#x388;" horiz-adv-x="553" d="M68 0v674h436v-68h-360v-226h330v-70h-330v-239h370v-71h-446zM-85 511l-47 22l74 179l79 -31z" />
<glyph unicode="&#x389;" horiz-adv-x="658" d="M517 0v311h-376v-311h-76v675h76v-294h376v294h76v-675h-76zM-79 511l-47 22l74 179l79 -31z" />
<glyph unicode="&#x38a;" horiz-adv-x="246" d="M85 0v674h76v-674h-76zM-59 511l-47 22l74 179l79 -31z" />
<glyph unicode="&#x38c;" horiz-adv-x="684" d="M345 681q284 0 284 -350q0 -69 -14 -126t-45.5 -107t-89.5 -78t-138 -28q-157 0 -222 88t-65 250q0 164 70.5 257.5t219.5 93.5zM344 611q-211 0 -211 -281q0 -270 209 -270q99 0 153 67.5t54 203.5q0 280 -205 280zM-43 511l-47 22l74 179l79 -31z" />
<glyph unicode="&#x38e;" horiz-adv-x="558" d="M272 344h9q13 35 88 173l86 157h88l-231 -403v-271h-77v271l-226 403h88l89 -163q61 -111 86 -167zM-121 511l-47 22l74 179l79 -31z" />
<glyph unicode="&#x38f;" horiz-adv-x="713" d="M356 613q-108 -1 -165 -73.5t-57 -197.5q0 -121 39 -185t116 -85v-72h-257v69h122l2 3q-100 73 -100 262q0 72 17.5 133t53 110t95.5 77t139 28q78 0 136.5 -28t93 -76.5t51 -108.5t16.5 -129q0 -79 -26.5 -153.5t-78.5 -114.5l2 -3h121v-69h-252v71q154 46 154 274 q0 124 -57.5 196t-164.5 72zM-45 511l-47 22l74 179l79 -31z" />
<glyph unicode="&#x390;" horiz-adv-x="248" d="M87 0v482h75v-482h-75zM118 534l-47 21l74 180l79 -32zM-28 602q0 19 13 32t32 13t32 -13t13 -32t-13 -32t-32 -13t-32 13t-13 32zM200 602q0 19 13 32t32 13q18 0 31.5 -13t13.5 -32t-13.5 -32t-31.5 -13q-19 0 -32 13t-13 32z" />
<glyph unicode="&#x391;" horiz-adv-x="607" d="M515 0l-66 174h-295l-63 -174h-81l254 676h76l257 -676h-82zM304 582h-6q-12 -44 -57 -167l-64 -176h250l-64 170q-54 155 -59 173z" />
<glyph unicode="&#x392;" horiz-adv-x="608" d="M434 357v-6q56 -14 89 -56t33 -101q0 -91 -57.5 -142.5t-165.5 -51.5h-268v675h273q93 0 144 -45t51 -127q0 -46 -25 -86t-74 -60zM332 607h-191v-222h191q55 0 89 31t34 80q0 52 -33.5 81.5t-89.5 29.5zM334 318h-193v-249h189q69 0 107.5 31t38.5 92q0 62 -40 94 t-102 32z" />
<glyph unicode="&#x393;" horiz-adv-x="527" d="M65 0v674h447v-69h-372v-605h-75z" />
<glyph unicode="&#x394;" horiz-adv-x="623" d="M608 0h-596l256 674h80zM310 581h-7q-26 -81 -78 -228l-100 -283h368l-104 285q-50 135 -79 226z" />
<glyph unicode="&#x395;" horiz-adv-x="549" d="M65 0v674h436v-68h-360v-226h330v-70h-330v-239h370v-71h-446z" />
<glyph unicode="&#x396;" horiz-adv-x="569" d="M31 0v64l406 541h-384v70h476v-64l-404 -542h414v-69h-508z" />
<glyph unicode="&#x397;" horiz-adv-x="658" d="M517 0v311h-376v-311h-76v675h76v-294h376v294h76v-675h-76z" />
<glyph unicode="&#x398;" horiz-adv-x="702" d="M195 311v67h312v-67h-312zM355 682q82 0 141 -28t91 -79t46 -110.5t14 -133.5q0 -54 -8.5 -101.5t-30 -92t-54 -76t-84 -50.5t-117.5 -19q-161 0 -229.5 88t-68.5 250q0 164 73 258t227 94zM354 612q-221 0 -221 -282q0 -270 220 -270q103 0 158.5 67t55.5 204 q0 281 -213 281z" />
<glyph unicode="&#x399;" horiz-adv-x="246" d="M85 0v674h76v-674h-76z" />
<glyph unicode="&#x39a;" horiz-adv-x="556" d="M141 674v-292h97l227 292h89l-255 -324l264 -350h-96l-230 312h-96v-312h-76v674h76z" />
<glyph unicode="&#x39b;" horiz-adv-x="625" d="M314 568l-6 1l-89 -236l-123 -333h-83q19 49 113.5 295.5t144.5 378.5h77l261 -674h-83l-126 329q-67 179 -86 239z" />
<glyph unicode="&#x39c;" horiz-adv-x="795" d="M161 674l113 -233q75 -154 120 -266h6q64 153 115 258l116 241h94v-674h-77v551h-4q-32 -77 -54 -124l-159 -330h-68l-136 277q-45 92 -79 175h-4v-549h-76v674h93z" />
<glyph unicode="&#x39d;" horiz-adv-x="664" d="M146 547q-1 -1 -4 -1v-546h-77v674h72l227 -319q36 -51 153 -226h5v545h77v-674h-72l-247 348q-98 137 -134 199z" />
<glyph unicode="&#x39e;" horiz-adv-x="559" d="M32 73h496v-73h-496v73zM81 383h396v-71h-396v71zM516 604h-473v70h473v-70z" />
<glyph unicode="&#x39f;" horiz-adv-x="684" d="M345 681q284 0 284 -350q0 -69 -14 -126t-45.5 -107t-89.5 -78t-138 -28q-157 0 -222 88t-65 250q0 164 70.5 257.5t219.5 93.5zM344 611q-211 0 -211 -281q0 -270 209 -270q99 0 153 67.5t54 203.5q0 280 -205 280z" />
<glyph unicode="&#x3a0;" horiz-adv-x="656" d="M515 0v606h-374v-606h-76v675h526v-675h-76z" />
<glyph unicode="&#x3a1;" horiz-adv-x="577" d="M330 243h-189v-243h-76v674h271q106 0 165 -61.5t59 -155.5q0 -37 -11.5 -72.5t-36.5 -68.5t-72 -53t-110 -20zM332 606h-191v-294h187q64 0 109 36t45 108q0 67 -41.5 108.5t-108.5 41.5z" />
<glyph unicode="&#x3a3;" horiz-adv-x="573" d="M34 64l221 295l-217 250v64h492v-69h-398l212 -245l-217 -290h420v-69h-513v64z" />
<glyph unicode="&#x3a4;" horiz-adv-x="565" d="M322 606v-606h-76v606h-231v68h535v-68h-228z" />
<glyph unicode="&#x3a5;" horiz-adv-x="558" d="M272 344h9q13 35 88 173l86 157h88l-231 -403v-271h-77v271l-226 403h88l89 -163q61 -111 86 -167z" />
<glyph unicode="&#x3a6;" horiz-adv-x="749" d="M418 675v-28q79 -5 136 -32t87.5 -70t44 -91t13.5 -106q0 -51 -15 -98t-47 -89t-88 -70t-131 -35v-56h-78v55q-151 13 -220.5 91t-69.5 201q0 127 73 209t217 91v28h78zM127 347q0 -207 213 -226v462q-107 -7 -160 -71.5t-53 -164.5zM622 348q0 102 -49.5 165.5 t-154.5 70.5v-463q92 8 148 67.5t56 159.5z" />
<glyph unicode="&#x3a7;" horiz-adv-x="560" d="M464 0l-183 295q-29 -45 -89.5 -145t-92.5 -150h-91l229 350q-30 48 -210 324h88l166 -269q28 44 83.5 134.5t83.5 134.5h87l-210 -324q107 -160 230 -350h-91z" />
<glyph unicode="&#x3a8;" horiz-adv-x="700" d="M313 1v169q-135 10 -202.5 84.5t-67.5 197.5v223h77v-227q0 -191 193 -211v440h78v-439q88 10 137.5 62.5t49.5 148.5v226h76v-226q0 -113 -68 -190t-195 -89v-169h-78z" />
<glyph unicode="&#x3a9;" horiz-adv-x="713" d="M356 613q-108 -1 -165 -73.5t-57 -197.5q0 -121 39 -185t116 -85v-72h-257v69h122l2 3q-100 73 -100 262q0 72 17.5 133t53 110t95.5 77t139 28q78 0 136.5 -28t93 -76.5t51 -108.5t16.5 -129q0 -79 -26.5 -153.5t-78.5 -114.5l2 -3h121v-69h-252v71q154 46 154 274 q0 124 -57.5 196t-164.5 72z" />
<glyph unicode="&#x3aa;" horiz-adv-x="246" d="M85 0v674h76v-674h-76zM-10 800q0 19 13 32t31 13q19 0 32 -13t13 -32q0 -18 -13 -31.5t-32 -13.5q-18 0 -31 13.5t-13 31.5zM161 800q0 19 13 32t32 13t32 -13t13 -32q0 -18 -13 -31.5t-32 -13.5t-32 13.5t-13 31.5z" />
<glyph unicode="&#x3ab;" horiz-adv-x="558" d="M272 344h9q13 35 88 173l86 157h88l-231 -403v-271h-77v271l-226 403h88l89 -163q61 -111 86 -167zM146 799q0 19 13 32t31 13q19 0 32 -13t13 -32q0 -18 -13 -31.5t-32 -13.5q-18 0 -31 13.5t-13 31.5zM317 799q0 19 13 32t32 13t32 -13t13 -32q0 -18 -13 -31.5 t-32 -13.5t-32 13.5t-13 31.5z" />
<glyph unicode="&#x3ac;" horiz-adv-x="540" d="M257 490q107 0 152 -70h4q0 36 14 62h53v-482h-57q-12 22 -12 70h-4q-47 -79 -153 -79q-110 0 -157 64.5t-47 184.5q0 109 52 179.5t155 70.5zM264 56q49 0 82.5 27t46.5 62t13 74v60q0 67 -37 108.5t-102 41.5q-142 0 -142 -187q0 -186 139 -186zM277 534l-47 22l74 179 l79 -31z" />
<glyph unicode="&#x3ad;" horiz-adv-x="464" d="M239 534l-47 22l74 179l79 -31zM248 -8q-99 0 -148.5 38.5t-49.5 103.5q0 35 18 67t60 48v4q-69 22 -69 94q0 63 46.5 103t136.5 40q80 0 131 -35t51 -101q0 -10 -1 -16l-67 -1q-3 43 -35 65.5t-85 22.5q-44 0 -72.5 -21t-28.5 -56q0 -32 22.5 -47t53.5 -15h96v-64h-96 q-39 -1 -62 -23t-23 -58q0 -37 29 -62.5t87 -25.5t92.5 29t36.5 81h66q0 -3 0.5 -9.5t0.5 -8.5q0 -75 -54.5 -114t-135.5 -39z" />
<glyph unicode="&#x3ae;" horiz-adv-x="534" d="M293 491q58 0 96 -17.5t55.5 -50.5t23.5 -65t6 -76v-282h-76v278q0 72 -25 112t-96 40q-67 0 -105 -49.5t-38 -113.5v-267h-74v482h56q16 -27 16 -71h4q26 39 71.5 59.5t85.5 20.5zM251 534l-47 22l74 179l79 -31z" />
<glyph unicode="&#x3af;" horiz-adv-x="248" d="M132 534l-47 22l74 179l79 -31zM86 0v482h74v-482h-74z" />
<glyph unicode="&#x3b0;" horiz-adv-x="527" d="M468 185q0 -96 -54.5 -144.5t-152.5 -48.5q-202 0 -202 193v297h75v-291q0 -69 34 -102t94 -33t95.5 33t35.5 103v290h75v-297zM257 534l-47 21l74 180l79 -32zM111 602q0 19 13 32t32 13t32 -13t13 -32t-13 -32t-32 -13t-32 13t-13 32zM339 602q0 19 13 32t32 13 q18 0 31.5 -13t13.5 -32t-13.5 -32t-31.5 -13q-19 0 -32 13t-13 32z" />
<glyph unicode="&#x3b1;" horiz-adv-x="540" d="M257 490q107 0 152 -70h4q0 36 14 62h53v-482h-57q-12 22 -12 70h-4q-47 -79 -153 -79q-110 0 -157 64.5t-47 184.5q0 109 52 179.5t155 70.5zM264 56q49 0 82.5 27t46.5 62t13 74v60q0 67 -37 108.5t-102 41.5q-142 0 -142 -187q0 -186 139 -186z" />
<glyph unicode="&#x3b2;" horiz-adv-x="538" d="M132 -157h-72v653q0 97 50 157.5t147 60.5q93 0 143.5 -45.5t50.5 -122.5q0 -12 -3.5 -31t-22.5 -49t-50 -43v-5q60 -17 89.5 -69.5t29.5 -127.5q0 -98 -53 -163.5t-163 -65.5q-99 0 -142 66h-4v-215zM259 653q-38 0 -64.5 -15t-38.5 -40t-16.5 -48.5t-4.5 -49.5v-290 q0 -68 35.5 -111.5t108.5 -43.5q65 0 102 44.5t37 126.5q0 159 -137 159h-59v61h59q42 0 68.5 31t26.5 70q0 51 -34 78.5t-83 27.5z" />
<glyph unicode="&#x3b3;" horiz-adv-x="448" d="M226 108h6q20 87 53 173l74 201h78l-172 -455v-232h-74v221l-141 384q-7 17 -12.5 22.5t-15.5 5.5q-9 0 -10 -1l-7 51q29 14 52 14t36.5 -16.5t26.5 -51.5l56 -152q32 -86 50 -164z" />
<glyph unicode="&#x3b4;" horiz-adv-x="543" d="M126 232q0 -85 38 -130t109 -45q68 0 106 48t38 125q0 109 -62 187q-29 4 -62 4q-167 0 -167 -189zM457 631h-234l-2 -4q132 -84 202 -177t70 -208q0 -121 -59.5 -185t-163.5 -64q-108 0 -164 59t-56 175q0 49 11.5 91.5t36 79.5t69.5 58.5t106 21.5q20 0 30 -1 q-75 74 -219 158v61h373v-65z" />
<glyph unicode="&#x3b5;" horiz-adv-x="464" d="M248 -8q-99 0 -148.5 38.5t-49.5 103.5q0 35 18 67t60 48v4q-69 22 -69 94q0 63 46.5 103t136.5 40q80 0 131 -35t51 -101q0 -10 -1 -16l-67 -1q-3 43 -35 65.5t-85 22.5q-44 0 -72.5 -21t-28.5 -56q0 -32 22.5 -47t53.5 -15h96v-64h-96q-39 -1 -62 -23t-23 -58 q0 -37 29 -62.5t87 -25.5t92.5 29t36.5 81h66q0 -3 0.5 -9.5t0.5 -8.5q0 -75 -54.5 -114t-135.5 -39z" />
<glyph unicode="&#x3b6;" horiz-adv-x="423" d="M339 627l-2 5h-262v65h373v-57q-141 -117 -229 -233t-88 -195q0 -51 39 -77.5t164 -74.5q53 -21 73.5 -40.5t20.5 -47.5q0 -23 -27 -65.5t-58 -75.5q-9 6 -27 17.5t-23 14.5q53 82 53 98q0 12 -15 20t-64 26q-10 4 -16 6q-54 20 -84.5 34.5t-59.5 37t-41 52t-12 70.5 q0 79 79 197t206 223z" />
<glyph unicode="&#x3b7;" horiz-adv-x="534" d="M293 491q58 0 96 -17.5t55.5 -50.5t23.5 -65t6 -76v-282h-76v278q0 72 -25 112t-96 40q-67 0 -105 -49.5t-38 -113.5v-267h-74v482h56q16 -27 16 -71h4q26 39 71.5 59.5t85.5 20.5z" />
<glyph unicode="&#x3b8;" horiz-adv-x="542" d="M272 714q68 0 113.5 -29.5t67.5 -84.5t30.5 -113.5t8.5 -136.5q0 -57 -4.5 -103.5t-18.5 -96t-37.5 -82.5t-64 -54.5t-95.5 -21.5q-65 0 -110 26.5t-68.5 77t-33.5 111t-10 141.5q0 82 10.5 145t35 114.5t69 79t107.5 27.5zM272 54q83 0 114 73.5t32 221.5h-293 q0 -71 6 -121t22 -91.5t45.5 -62t73.5 -20.5zM272 652q-41 0 -70 -18.5t-44.5 -54t-23 -76t-9.5 -96.5h291q-2 56 -9 97.5t-23 76.5t-44 53t-68 18z" />
<glyph unicode="&#x3b9;" horiz-adv-x="248" d="M87 0v482h75v-482h-75z" />
<glyph unicode="&#x3ba;" horiz-adv-x="469" d="M372 481h83q-17 -20 -81.5 -99.5t-99.5 -121.5l190 -260h-89l-159 222h-83v-222h-73v482h73v-199h76z" />
<glyph unicode="&#x3bb;" horiz-adv-x="458" d="M231 411h-5q-14 -55 -36 -119t-58.5 -162t-47.5 -130h-76q32 90 92.5 256t82.5 227h23q-6 18 -17 53.5t-17 53.5q-13 37 -28.5 47.5t-47.5 10.5h-31v63h54q62 0 86.5 -27.5t45.5 -95.5l154 -503q6 -20 14.5 -25.5t28.5 -5.5l9 -37q-23 -23 -57 -23q-27 0 -39 15t-26 60 l-56 175q-34 105 -48 167z" />
<glyph unicode="&#x3bc;" horiz-adv-x="527" d="M467 482v-482h-61q-12 19 -12 76h-4q-51 -84 -143 -84q-72 0 -113 34v-231h-74v687h75v-286q0 -67 25 -105.5t94 -38.5q66 0 102 49t36 114v267h75z" />
<glyph unicode="&#x3bd;" horiz-adv-x="471" d="M233 77h7q22 86 79 236l63 169h74l-183 -485h-78l-182 485h76l65 -173q56 -153 79 -232z" />
<glyph unicode="&#x3be;" horiz-adv-x="434" d="M259 713q75 0 128 -30.5t53 -95.5q0 -5 -2 -21l-63 -1q-3 39 -34 61t-82 22q-58 0 -89 -33t-31 -74q0 -57 37.5 -83t97.5 -26h99v-64h-105q-72 0 -107 -43.5t-35 -105.5q0 -57 41.5 -85.5t142.5 -61.5q73 -25 97 -46.5t24 -51.5q0 -43 -77 -139l-52 31q47 77 47 96 q0 14 -17 24t-66 26q-115 36 -165 82t-50 122q0 57 27 105t83 73v6q-47 16 -72.5 53.5t-25.5 88.5q0 29 10.5 57t32 54.5t61.5 43t92 16.5z" />
<glyph unicode="&#x3bf;" horiz-adv-x="543" d="M273 490q61 0 105 -21t68.5 -57.5t35.5 -79t11 -92.5q0 -49 -11 -91t-35.5 -78.5t-69 -57.5t-104.5 -21q-223 0 -223 246q0 113 56 182.5t167 69.5zM273 422q-147 0 -147 -184q0 -181 147 -181q143 0 143 183q0 182 -143 182z" />
<glyph unicode="&#x3c0;" horiz-adv-x="544" d="M408 419h-274v-419h-74v482h424v-482h-76v419z" />
<glyph unicode="&#x3c1;" horiz-adv-x="538" d="M272 56q141 0 141 187q0 183 -141 183q-68 0 -104 -45t-36 -113v-53q0 -67 35 -113t105 -46zM56 -204v444q0 112 53.5 181t165.5 69t162.5 -69t50.5 -179t-49.5 -180t-155.5 -70q-107 0 -148 72h-5v-268h-74z" />
<glyph unicode="&#x3c2;" horiz-adv-x="457" d="M262 423q-73 0 -107 -45.5t-34 -138.5q0 -61 31.5 -91t121.5 -67q81 -32 104 -55.5t23 -55.5q0 -46 -77 -135l-52 32q47 76 47 95q0 27 -83 57q-114 43 -152 88.5t-38 129.5q0 116 51.5 184.5t164.5 68.5q78 0 130 -34t52 -99q0 -3 -2 -19h-64q-3 42 -34 63.5t-82 21.5z " />
<glyph unicode="&#x3c3;" horiz-adv-x="548" d="M427 423l-3 -5q69 -54 69 -181q0 -33 -6 -65.5t-21.5 -65.5t-39.5 -58t-62.5 -40.5t-87.5 -15.5q-222 0 -222 244q0 111 54.5 178.5t167.5 67.5h244v-63h-33q-36 0 -60 4zM276 421q-147 0 -147 -185q0 -181 147 -181q67 0 104.5 51t37.5 131q0 184 -142 184z" />
<glyph unicode="&#x3c4;" horiz-adv-x="390" d="M367 418h-161v-265q0 -56 21 -77.5t70 -21.5q38 0 72 3v-57q-38 -7 -81 -7q-87 0 -121.5 34.5t-34.5 128.5v262h-113v63q58 0 174 0.5t174 0.5v-64z" />
<glyph unicode="&#x3c5;" horiz-adv-x="527" d="M468 185q0 -96 -54.5 -144.5t-152.5 -48.5q-202 0 -202 193v297h75v-291q0 -69 34 -102t94 -33t95.5 33t35.5 103v290h75v-297z" />
<glyph unicode="&#x3c6;" horiz-adv-x="654" d="M363 423v-367q80 5 123.5 52.5t43.5 131.5q0 182 -167 183zM289 57v431h71q70 0 119.5 -20.5t75.5 -57t37.5 -78t11.5 -92.5q0 -62 -23 -114t-79 -90t-139 -42v-199h-74v199q-72 3 -121 24t-73.5 56.5t-34.5 74.5t-10 89q0 85 37.5 150t116.5 84l21 -54 q-100 -43 -100 -180q0 -89 41 -132.5t123 -48.5z" />
<glyph unicode="&#x3c7;" horiz-adv-x="445" d="M353 0l-129 197l-128 -197h-86l172 251l-160 231h87l115 -177q83 124 115 177h86l-159 -231l172 -251h-85z" />
<glyph unicode="&#x3c8;" horiz-adv-x="622" d="M270 -205v198q-106 5 -160.5 56t-54.5 155v278h77v-276q0 -137 138 -149v425h75v-425q145 9 145 149v276h76v-278q0 -100 -58 -154t-163 -59v-196h-75z" />
<glyph unicode="&#x3c9;" horiz-adv-x="781" d="M731 240q0 -49 -9 -90.5t-30.5 -78.5t-62.5 -58t-99 -21q-49 0 -87 23.5t-54 59.5h-6q-49 -83 -151 -83q-99 0 -140.5 62.5t-41.5 177.5q0 113 50 183.5t160 72.5v-66q-74 -4 -104.5 -51t-30.5 -133q0 -57 8 -94t34.5 -63t73.5 -26q57 0 83.5 39.5t26.5 92.5v144h74v-147 q0 -56 29 -92.5t79 -36.5q122 0 122 183q0 84 -31 132t-105 52v66q110 -2 161 -71t51 -177z" />
<glyph unicode="&#x3ca;" horiz-adv-x="248" d="M87 0v482h75v-482h-75zM-6 612q0 18 13 31.5t32 13.5q18 0 31.5 -13.5t13.5 -31.5q0 -19 -13.5 -32t-31.5 -13q-19 0 -32 13t-13 32zM166 612q0 18 13 31.5t31 13.5q19 0 32 -13.5t13 -31.5q0 -19 -13 -32t-32 -13q-18 0 -31 13t-13 32z" />
<glyph unicode="&#x3cb;" horiz-adv-x="527" d="M468 185q0 -96 -54.5 -144.5t-152.5 -48.5q-202 0 -202 193v297h75v-291q0 -69 34 -102t94 -33t95.5 33t35.5 103v290h75v-297zM134 612q0 18 13 31.5t32 13.5q18 0 31.5 -13.5t13.5 -31.5q0 -19 -13.5 -32t-31.5 -13q-19 0 -32 13t-13 32zM306 612q0 18 13 31.5t31 13.5 q19 0 32 -13.5t13 -31.5q0 -19 -13 -32t-32 -13q-18 0 -31 13t-13 32z" />
<glyph unicode="&#x3cc;" horiz-adv-x="543" d="M273 490q61 0 105 -21t68.5 -57.5t35.5 -79t11 -92.5q0 -49 -11 -91t-35.5 -78.5t-69 -57.5t-104.5 -21q-223 0 -223 246q0 113 56 182.5t167 69.5zM273 422q-147 0 -147 -184q0 -181 147 -181q143 0 143 183q0 182 -143 182zM283 534l-47 22l74 179l79 -31z" />
<glyph unicode="&#x3cd;" horiz-adv-x="527" d="M272 534l-47 22l74 179l79 -31zM468 185q0 -96 -54.5 -144.5t-152.5 -48.5q-202 0 -202 193v297h75v-291q0 -69 34 -102t94 -33t95.5 33t35.5 103v290h75v-297z" />
<glyph unicode="&#x3ce;" horiz-adv-x="781" d="M731 240q0 -49 -9 -90.5t-30.5 -78.5t-62.5 -58t-99 -21q-49 0 -87 23.5t-54 59.5h-6q-49 -83 -151 -83q-99 0 -140.5 62.5t-41.5 177.5q0 113 50 183.5t160 72.5v-66q-74 -4 -104.5 -51t-30.5 -133q0 -57 8 -94t34.5 -63t73.5 -26q57 0 83.5 39.5t26.5 92.5v144h74v-147 q0 -56 29 -92.5t79 -36.5q122 0 122 183q0 84 -31 132t-105 52v66q110 -2 161 -71t51 -177zM395 534l-47 22l74 179l79 -31z" />
<glyph unicode="&#x3e0;" horiz-adv-x="651" d="M29 613l6 46q136 -7 242.5 -49t174.5 -112t103 -162t35 -201q0 -93 -31 -208q-1 1 -25.5 4.5t-26.5 3.5q15 90 15 159q0 91 -26 173l-288 -162l-35 54l302 162q-27 62 -60 100q-9 -5 -81.5 -45.5t-139 -77.5t-69.5 -40l-39 54q105 54 287 154q-115 121 -344 147z" />
<glyph unicode="&#x3e1;" horiz-adv-x="570" d="M40 450l5 44q228 -12 347.5 -134t119.5 -313q0 -77 -25 -177l-49 7q12 73 12 137q0 77 -20 143l-237 -135l-32 49l250 137q-23 49 -47 79l-240 -136l-35 49l236 128q-94 101 -285 122z" />
<glyph unicode="&#x401;" horiz-adv-x="549" d="M65 0v674h436v-68h-360v-226h330v-70h-330v-239h370v-71h-446zM163 800q0 19 13 32t31 13q19 0 32 -13t13 -32q0 -18 -13 -31.5t-32 -13.5q-18 0 -31 13.5t-13 31.5zM334 800q0 19 13 32t32 13t32 -13t13 -32q0 -18 -13 -31.5t-32 -13.5t-32 13.5t-13 31.5z" />
<glyph unicode="&#x402;" horiz-adv-x="773" d="M291 398h4q92 68 205 68q59 0 102.5 -22t67 -61t34 -83t10.5 -96q0 -49 -9.5 -91t-30.5 -80t-62.5 -60t-98.5 -22q-17 0 -33 3v57q90 2 124 50.5t34 138.5q0 198 -161 198q-46 0 -96.5 -18.5t-89.5 -54.5v-325h-76v605h-205v69h582v-69h-301v-207z" />
<glyph unicode="&#x403;" horiz-adv-x="534" d="M239 728l-30 41l155 118l52 -67zM68 0v674h447v-69h-372v-605h-75z" />
<glyph unicode="&#x404;" horiz-adv-x="603" d="M341 -8q-152 0 -219 87t-67 253q0 159 69 253.5t215 94.5q93 0 159 -45t66 -130q0 -14 -1 -21h-69q-2 57 -43.5 92.5t-114.5 35.5q-97 0 -146.5 -65.5t-55.5 -168.5h299v-67h-300q3 -125 52 -188t154 -63q87 0 127 39.5t42 99.5h72q1 -7 1 -18q0 -88 -70 -138.5 t-170 -50.5z" />
<glyph unicode="&#x405;" horiz-adv-x="622" d="M312 60q93 0 137 35.5t44 85.5q0 61 -42.5 92.5t-133.5 42.5q-44 5 -73 10.5t-64.5 18t-56.5 29.5t-35.5 46t-14.5 67q0 83 59 139t187 56q93 0 164 -45.5t71 -132.5q0 -6 -2 -22h-73q-2 56 -44 92.5t-121 36.5q-81 0 -122 -32t-41 -81q0 -24 10 -41.5t23 -27.5t43 -18.5 t51.5 -12.5t68.5 -11q111 -16 168.5 -61.5t57.5 -137.5q0 -82 -66.5 -139.5t-196.5 -57.5q-113 0 -187 49t-74 144q0 9 2 27h72q2 -66 49 -108.5t140 -42.5z" />
<glyph unicode="&#x406;" horiz-adv-x="246" d="M85 0v674h76v-674h-76z" />
<glyph unicode="&#x407;" horiz-adv-x="246" d="M85 0v674h76v-674h-76zM-5 791q0 18 13 31.5t32 13.5q18 0 31.5 -13.5t13.5 -31.5q0 -19 -13.5 -32t-31.5 -13q-19 0 -32 13t-13 32zM167 791q0 18 13 31.5t31 13.5q19 0 32 -13.5t13 -31.5q0 -19 -13 -32t-32 -13q-18 0 -31 13t-13 32z" />
<glyph unicode="&#x408;" horiz-adv-x="543" d="M235 -8q-95 0 -155 43.5t-60 121.5q0 14 3 29h71q2 -126 142 -126q87 0 120.5 44t33.5 126v444h76v-462q0 -40 -9.5 -75t-32.5 -69.5t-71.5 -55t-117.5 -20.5z" />
<glyph unicode="&#x409;" horiz-adv-x="976" d="M451 606h-228l-12 -225q-3 -64 -5.5 -99.5t-8.5 -84t-13.5 -74t-20.5 -56t-31 -45t-43.5 -24.5t-58.5 -10q-19 0 -25 2v62q54 6 79 33.5t36 97.5q6 37 11 116t11 191t11 184h373v-282h196q108 0 164 -56t56 -141q0 -95 -57.5 -145t-152.5 -50h-281v606zM526 69h195 q61 0 101.5 32t40.5 95q0 68 -42.5 97.5t-107.5 29.5h-187v-254z" />
<glyph unicode="&#x40a;" horiz-adv-x="918" d="M490 392h178q66 0 113 -17.5t71 -48t34.5 -63t10.5 -69.5q0 -89 -57 -141.5t-167 -52.5h-258v321h-273v-321h-78v675h78v-283h273v283h75v-283zM490 70h177q66 0 109 30.5t43 92.5q0 70 -44.5 100t-109.5 30h-175v-253z" />
<glyph unicode="&#x40b;" horiz-adv-x="772" d="M290 398h4q41 31 99.5 49.5t112.5 18.5q200 0 200 -210v-256h-76v245q0 155 -146 155q-49 0 -104 -20.5t-90 -53.5v-326h-76v606h-204v68h578v-68h-298v-208z" />
<glyph unicode="&#x40c;" horiz-adv-x="556" d="M232 729l-30 41l155 118l52 -67zM141 674v-291h97l227 291h89l-255 -323l264 -351h-96l-231 313h-95v-313h-76v674h76z" />
<glyph unicode="&#x40e;" horiz-adv-x="534" d="M274 704q-52 0 -89.5 28t-52.5 62.5t-17 69.5h59q4 -40 27.5 -70t72.5 -30q48 0 72 30.5t28 69.5h59q-5 -59 -44.5 -109.5t-114.5 -50.5zM265 231h8l167 443h80l-203 -524q-33 -81 -71 -119.5t-115 -38.5h-45v67h37q43 0 67.5 17t40.5 56l18 44l-36 -2l-207 500h81z" />
<glyph unicode="&#x40f;" horiz-adv-x="659" d="M594 675v-675h-227v-163h-76v163h-226v675h76v-605h377v605h76z" />
<glyph unicode="&#x410;" horiz-adv-x="607" d="M515 0l-66 174h-295l-63 -174h-81l254 676h76l257 -676h-82zM304 582h-6q-12 -44 -57 -167l-64 -176h250l-64 170q-54 155 -59 173z" />
<glyph unicode="&#x411;" horiz-adv-x="595" d="M65 0v675h425v-69h-350q0 -36 0.5 -107.5t0.5 -106.5h197q107 0 163.5 -56.5t56.5 -140.5q0 -96 -57 -145.5t-153 -49.5h-283zM141 69h196q62 0 102.5 31.5t40.5 95.5q0 67 -43.5 97t-107.5 30h-188v-254z" />
<glyph unicode="&#x412;" horiz-adv-x="608" d="M434 357v-6q56 -14 89 -56t33 -101q0 -91 -57.5 -142.5t-165.5 -51.5h-268v675h273q93 0 144 -45t51 -127q0 -46 -25 -86t-74 -60zM332 607h-191v-222h191q55 0 89 31t34 80q0 52 -33.5 81.5t-89.5 29.5zM334 318h-193v-249h189q69 0 107.5 31t38.5 92q0 62 -40 94 t-102 32z" />
<glyph unicode="&#x413;" horiz-adv-x="534" d="M68 0v674h447v-69h-372v-605h-75z" />
<glyph unicode="&#x414;" horiz-adv-x="662" d="M650 71v-222h-74v151h-497v-151h-74v222h62q33 61 51.5 141t29.5 225l18 237h412v-603h72zM501 606h-266l-13 -167q-8 -94 -14 -142.5t-21 -111t-39 -114.5h353v535z" />
<glyph unicode="&#x415;" horiz-adv-x="549" d="M65 0v674h436v-68h-360v-226h330v-70h-330v-239h370v-71h-446z" />
<glyph unicode="&#x416;" horiz-adv-x="885" d="M404 383v291h76v-291h84l216 291h89l-242 -323l251 -351h-93l-221 313h-84v-313h-76v313h-85l-223 -313h-91l251 351l-242 323h89l218 -291h83z" />
<glyph unicode="&#x417;" horiz-adv-x="589" d="M289 680q115 0 177.5 -51.5t62.5 -134.5q0 -40 -24.5 -80t-75.5 -61v-4q61 -19 86.5 -63t25.5 -92q0 -88 -65.5 -145t-190.5 -57q-46 0 -89.5 10.5t-82 31.5t-61.5 58t-23 84q0 15 3 31h67q6 -75 57 -112.5t132 -37.5q85 0 128 39.5t43 97.5q0 53 -34 87.5t-99 34.5h-102 v69h101q53 0 88 27t35 79q0 54 -41 87.5t-117 33.5q-152 0 -168 -123h-68q-2 14 -2 23q0 79 67.5 123.5t169.5 44.5z" />
<glyph unicode="&#x418;" horiz-adv-x="666" d="M526 562h-5q-53 -88 -132 -202q-83 -120 -247 -360h-77v675h77v-554h5q16 27 107 162q53 76 150 218.5t119 173.5h78v-675h-75v562z" />
<glyph unicode="&#x419;" horiz-adv-x="666" d="M333 724q-77 0 -116 48t-43 105h59q4 -38 27.5 -65t72.5 -27q48 0 72 27.5t28 64.5h59q-2 -25 -11.5 -50t-27.5 -49t-49 -39t-71 -15zM526 562h-5q-53 -88 -132 -202q-83 -120 -247 -360h-77v675h77v-554h5q16 27 107 162q53 76 150 218.5t119 173.5h78v-675h-75v562z " />
<glyph unicode="&#x41a;" horiz-adv-x="556" d="M141 674v-291h97l227 291h89l-255 -323l264 -351h-96l-231 313h-95v-313h-76v674h76z" />
<glyph unicode="&#x41b;" horiz-adv-x="624" d="M5 -10v62q48 5 71 23.5t35.5 67.5t19.5 152l25 380h403v-675h-75v606h-261l-22 -366q-3 -45 -6.5 -74t-14 -66t-28 -58.5t-49 -37t-74.5 -15.5q-16 0 -24 1z" />
<glyph unicode="&#x41c;" horiz-adv-x="786" d="M158 674l113 -233q75 -154 120 -266h6q64 153 115 258l116 241h94v-674h-77v551h-4q-32 -77 -54 -124l-159 -330h-68l-136 277q-45 92 -79 175h-4v-549h-76v674h93z" />
<glyph unicode="&#x41d;" horiz-adv-x="658" d="M517 0v311h-376v-311h-76v675h76v-294h376v294h76v-675h-76z" />
<glyph unicode="&#x41e;" horiz-adv-x="684" d="M345 681q284 0 284 -350q0 -69 -14 -126t-45.5 -107t-89.5 -78t-138 -28q-157 0 -222 88t-65 250q0 164 70.5 257.5t219.5 93.5zM344 611q-211 0 -211 -281q0 -270 209 -270q99 0 153 67.5t54 203.5q0 280 -205 280z" />
<glyph unicode="&#x41f;" horiz-adv-x="656" d="M515 0v606h-374v-606h-76v675h526v-675h-76z" />
<glyph unicode="&#x420;" horiz-adv-x="577" d="M330 243h-189v-243h-76v674h271q106 0 165 -61.5t59 -155.5q0 -37 -11.5 -72.5t-36.5 -68.5t-72 -53t-110 -20zM332 606h-191v-294h187q64 0 109 36t45 108q0 67 -41.5 108.5t-108.5 41.5z" />
<glyph unicode="&#x421;" horiz-adv-x="613" d="M341 -8q-154 0 -220 87t-66 254q0 162 69 254.5t216 92.5q97 0 165 -49t68 -138q0 -5 -2 -17h-71q-4 61 -45.5 98.5t-117.5 37.5q-204 0 -204 -279q0 -133 48.5 -203t157.5 -70q85 0 126 41.5t43 105.5h72q2 -12 2 -17q0 -91 -68.5 -144.5t-172.5 -53.5z" />
<glyph unicode="&#x422;" horiz-adv-x="565" d="M322 606v-606h-76v606h-231v68h535v-68h-228z" />
<glyph unicode="&#x423;" horiz-adv-x="534" d="M265 231h8l167 443h80l-203 -524q-33 -81 -71 -119.5t-115 -38.5h-45v67h37q43 0 67.5 17t40.5 56l18 44l-36 -2l-207 500h81z" />
<glyph unicode="&#x424;" horiz-adv-x="749" d="M418 675v-28q79 -5 136 -32t87.5 -70t44 -91t13.5 -106q0 -51 -15 -98t-47 -89t-88 -70t-131 -35v-56h-78v55q-151 13 -220.5 91t-69.5 201q0 127 73 209t217 91v28h78zM127 347q0 -207 213 -226v462q-107 -7 -160 -71.5t-53 -164.5zM622 348q0 102 -49.5 165.5 t-154.5 70.5v-463q92 8 148 67.5t56 159.5z" />
<glyph unicode="&#x425;" horiz-adv-x="560" d="M464 0l-183 295q-29 -45 -89.5 -145t-92.5 -150h-91l229 350q-30 48 -210 324h88l166 -269q28 44 83.5 134.5t83.5 134.5h87l-210 -324q107 -160 230 -350h-91z" />
<glyph unicode="&#x426;" horiz-adv-x="679" d="M517 70v605h77v-605h75v-220h-76v150h-528v675h76v-605h376z" />
<glyph unicode="&#x427;" horiz-adv-x="599" d="M42 674h77v-190q0 -158 166 -158q80 0 172 22v326h77v-674h-78v282q-95 -23 -181 -23q-233 0 -233 209v206z" />
<glyph unicode="&#x428;" horiz-adv-x="932" d="M791 71v604h76v-675h-802v675h77v-604h287v604h76v-604h286z" />
<glyph unicode="&#x429;" horiz-adv-x="951" d="M790 70v605h77v-605h75v-220h-76v150h-801v675h76v-605h287v605h75v-605h287z" />
<glyph unicode="&#x42a;" horiz-adv-x="771" d="M14 606v69h302v-283h196q108 0 164.5 -56.5t56.5 -140.5q0 -96 -57 -145.5t-153 -49.5h-283v606h-226zM316 69h196q61 0 101.5 31.5t40.5 95.5q0 67 -43 97t-107 30h-188v-254z" />
<glyph unicode="&#x42b;" horiz-adv-x="763" d="M621 0v675h76v-675h-76zM65 0v675h75v-283h194q107 0 163.5 -56.5t56.5 -140.5q0 -96 -57 -145.5t-153 -49.5h-279zM140 69h193q61 0 101.5 31.5t40.5 95.5q0 67 -43 97t-107 30h-185v-254z" />
<glyph unicode="&#x42c;" horiz-adv-x="591" d="M65 0v675h75v-283h194q107 0 163.5 -56.5t56.5 -140.5q0 -96 -57 -145.5t-153 -49.5h-279zM140 69h193q61 0 101.5 31.5t40.5 95.5q0 67 -43 97t-107 30h-185v-254z" />
<glyph unicode="&#x42d;" horiz-adv-x="620" d="M282 60q201 0 204 258h-303v68h302q-1 93 -49.5 159t-142.5 66q-151 0 -169 -127h-70v11q0 89 68.5 137t166.5 48q144 0 210 -92t66 -249q0 -165 -70 -255.5t-216 -90.5q-102 0 -171.5 49.5t-69.5 142.5v11h73q1 -58 47 -97t124 -39z" />
<glyph unicode="&#x42e;" horiz-adv-x="888" d="M555 681q278 0 278 -350q0 -53 -8 -99.5t-28 -91.5t-50.5 -77t-80 -51.5t-112.5 -19.5q-274 0 -283 321h-130v-313h-76v675h76v-290h132q12 135 82 215.5t200 80.5zM554 611q-110 0 -157.5 -73t-47.5 -208q0 -270 205 -270q96 0 148 67.5t52 203.5q0 280 -200 280z" />
<glyph unicode="&#x42f;" horiz-adv-x="607" d="M54 472q0 93 59 148t166 55h256v-675h-76v273h-108l-204 -273h-93q17 21 104 137t103 137q-100 6 -153.5 61t-53.5 137zM459 606h-172q-67 0 -110.5 -35.5t-43.5 -97.5q0 -71 44 -101t110 -30h172v264z" />
<glyph unicode="&#x430;" horiz-adv-x="500" d="M247 490q194 0 194 -164v-326h-58q-12 21 -12 68h-4q-50 -76 -165 -76q-75 0 -121 35t-46 106q0 58 33.5 96t82 52t111.5 14q51 0 104 -8v30q0 111 -119 111q-96 0 -110 -74h-67q-1 5 -1 12q0 65 54 94.5t124 29.5zM209 52q75 0 116.5 40.5t41.5 92.5v42q-44 10 -103 10 q-70 0 -112 -26t-42 -79q0 -34 26.5 -57t72.5 -23z" />
<glyph unicode="&#x431;" horiz-adv-x="543" d="M124 394q1 0 2.5 -0.5t2.5 -0.5q21 42 65 64t99 22q56 0 96.5 -19.5t63 -54.5t32.5 -77t10 -93q0 -49 -11 -90t-35.5 -76.5t-70 -56t-109.5 -20.5q-116 0 -167 68.5t-51 207.5q0 127 18.5 207t76.5 127q27 22 66 41t64 28t84.5 27t78.5 24q12 -32 20 -58 q-174 -55 -222 -80q-72 -37 -96 -102q-13 -35 -17 -88zM273 55q70 0 108 46t38 135q0 88 -33 133t-109 45q-74 0 -112 -51.5t-38 -130.5q0 -80 35.5 -128.5t110.5 -48.5z" />
<glyph unicode="&#x432;" horiz-adv-x="513" d="M390 254v-4q80 -24 80 -112q0 -55 -40.5 -96.5t-120.5 -41.5h-249v481h254q63 0 103 -33.5t40 -96.5q0 -74 -67 -97zM290 217h-156v-157h150q46 0 78 18.5t32 56.5q0 82 -104 82zM288 419h-154v-141h152q94 0 94 71q0 35 -25.5 52.5t-66.5 17.5z" />
<glyph unicode="&#x433;" horiz-adv-x="433" d="M60 0v481h368v-65h-294v-416h-74z" />
<glyph unicode="&#x434;" horiz-adv-x="543" d="M520 63v-190h-68v127h-380v-127h-69v190h58q41 70 56 248l14 171h329v-419h60zM384 419h-192l-9 -108q-7 -90 -16.5 -145t-30.5 -103h248v356z" />
<glyph unicode="&#x435;" horiz-adv-x="516" d="M265 425q-63 0 -97.5 -39t-39.5 -104h265q0 66 -31.5 104.5t-96.5 38.5zM265 490q100 0 150.5 -57.5t50.5 -147.5q0 -30 -6 -60h-335q0 -169 146 -169q116 0 124 92h67q1 -6 1 -17q0 -67 -56.5 -103.5t-136.5 -36.5q-221 0 -221 247q0 111 54 181.5t162 70.5z" />
<glyph unicode="&#x436;" horiz-adv-x="698" d="M8 481h86l150 -196h68v197h74v-197h67l152 196h83l-172 -219q35 -51 101 -146.5t80 -115.5h-87q-21 30 -153 224h-71v-224h-74v224h-71q-12 -18 -68.5 -99.5t-86.5 -124.5h-86q17 25 81.5 117.5t98.5 142.5q-15 19 -76.5 99t-95.5 122z" />
<glyph unicode="&#x437;" horiz-adv-x="466" d="M227 490q88 0 135.5 -38.5t47.5 -100.5q0 -70 -72 -98v-4q79 -27 79 -108q0 -66 -49.5 -107.5t-143.5 -41.5q-83 0 -140 38t-57 114q0 3 0.5 9t0.5 9h66q2 -51 37 -79.5t93 -28.5t88 25t30 62q0 35 -24 57.5t-65 22.5h-81v65h81q80 0 80 63q0 35 -28.5 55.5t-73.5 20.5 q-53 0 -84.5 -23.5t-35.5 -65.5l-67 1q-1 5 -1 15q1 67 51.5 102.5t132.5 35.5z" />
<glyph unicode="&#x438;" horiz-adv-x="542" d="M405 376h-7q-32 -52 -68 -104l-193 -272h-77v483h74v-370l5 -2q21 34 74 110l189 262h80v-483h-77v376z" />
<glyph unicode="&#x439;" horiz-adv-x="542" d="M274 546q-77 0 -116 48t-43 105h59q4 -38 27.5 -65t72.5 -27q48 0 72 27.5t28 64.5h59q-2 -25 -11.5 -50t-27.5 -49t-49 -39t-71 -15zM405 376h-7q-32 -52 -68 -104l-193 -272h-77v483h74v-370l5 -2q21 34 74 110l189 262h80v-483h-77v376z" />
<glyph unicode="&#x43a;" horiz-adv-x="470" d="M372 481h83q-17 -20 -81.5 -99.5t-99.5 -121.5l190 -260h-89l-159 222h-83v-222h-73v482h73v-199h76z" />
<glyph unicode="&#x43b;" horiz-adv-x="499" d="M439 0h-75v418h-191l-8 -147q-9 -165 -34.5 -223.5t-100.5 -58.5q-3 0 -11.5 0.5t-13.5 0.5v58q56 7 69.5 47t23.5 219l9 168h332v-482z" />
<glyph unicode="&#x43c;" horiz-adv-x="641" d="M316 149h9q26 62 82 165l89 167h83v-481h-74v353h-6q-17 -42 -43 -91l-104 -195h-63q-11 20 -42 75t-49 90q-28 53 -59 126l-5 -2v-356h-73v481h83l95 -173q52 -93 77 -159z" />
<glyph unicode="&#x43d;" horiz-adv-x="544" d="M409 0v222h-275v-222h-74v482h74v-196h275v196h75v-482h-75z" />
<glyph unicode="&#x43e;" horiz-adv-x="543" d="M273 490q61 0 105 -21t68.5 -57.5t35.5 -79t11 -92.5q0 -49 -11 -91t-35.5 -78.5t-69 -57.5t-104.5 -21q-223 0 -223 246q0 113 56 182.5t167 69.5zM273 422q-147 0 -147 -184q0 -181 147 -181q143 0 143 183q0 182 -143 182z" />
<glyph unicode="&#x43f;" horiz-adv-x="544" d="M408 419h-274v-419h-74v482h424v-482h-76v419z" />
<glyph unicode="&#x440;" horiz-adv-x="541" d="M292 490q106 0 153 -67.5t47 -177.5q0 -115 -54.5 -184t-152.5 -69q-101 0 -146 61h-4v-258h-75v687h58q15 -28 15 -73h4q24 41 67 61t88 20zM277 427q-65 0 -103 -43t-38 -108v-74q0 -33 10.5 -63.5t44 -56.5t85.5 -26q70 0 105 50.5t35 137.5q0 183 -139 183z" />
<glyph unicode="&#x441;" horiz-adv-x="489" d="M269 490q73 0 125.5 -34.5t52.5 -101.5q0 -9 -2 -17h-67q-3 42 -34 63.5t-76 21.5q-142 0 -142 -183q0 -182 142 -182q53 0 85.5 26.5t34.5 76.5h66q2 -12 2 -18q0 -68 -52 -109t-132 -41q-222 0 -222 241q0 118 53 187.5t166 69.5z" />
<glyph unicode="&#x442;" horiz-adv-x="447" d="M261 419v-419h-74v419h-179v62h429v-62h-176z" />
<glyph unicode="&#x443;" horiz-adv-x="448" d="M216 55h8q12 43 34 109t28 85l75 232h73l-178 -536q-25 -76 -58.5 -112.5t-101.5 -36.5h-57v61h48q37 0 58 14.5t34 51.5l25 75l-38 -3q-16 63 -58 186l-99 300h79q4 -12 32.5 -107.5t35.5 -114.5q43 -137 60 -204z" />
<glyph unicode="&#x444;" horiz-adv-x="660" d="M367 427v-373q81 6 125 54t44 132q0 179 -169 187zM293 54v373q-85 -8 -127 -57.5t-42 -130.5q0 -83 44.5 -130t124.5 -55zM293 488v222h74v-221q58 -2 102.5 -19t70.5 -41.5t42.5 -58t22 -64.5t5.5 -66q0 -39 -12.5 -78.5t-39 -77.5t-76.5 -63t-115 -28v-198h-74v199 q-70 2 -120 25.5t-75.5 61t-36.5 76.5t-11 82q0 42 12.5 82t39 78t76 62t115.5 27z" />
<glyph unicode="&#x445;" horiz-adv-x="445" d="M353 0l-129 197l-128 -197h-86l172 251l-160 231h87l115 -177q83 124 115 177h86l-159 -231l172 -251h-85z" />
<glyph unicode="&#x446;" horiz-adv-x="558" d="M475 -127v127h-415v482h74v-419h270v419h75v-419h64v-190h-68z" />
<glyph unicode="&#x447;" horiz-adv-x="481" d="M29 482h76v-147q0 -67 31.5 -92t92.5 -25q47 0 114 19l3 244h75v-481h-76v179q-66 -23 -137 -23q-179 0 -179 171v155z" />
<glyph unicode="&#x448;" horiz-adv-x="759" d="M624 62v420h75v-482h-639v482h74v-420h205v420h75v-420h210z" />
<glyph unicode="&#x449;" horiz-adv-x="777" d="M695 -127v127h-635v482h74v-420h205v420h75v-420q35 0 105 0.5t104 0.5v419h76v-419h64v-190h-68z" />
<glyph unicode="&#x44a;" horiz-adv-x="608" d="M8 419v62h239q0 -31 -0.5 -94t-0.5 -95h168q89 0 128.5 -43.5t39.5 -102.5q0 -63 -43 -104.5t-125 -41.5h-244q0 70 0.5 209.5t0.5 209.5h-163zM245 59h157q49 0 76 22t27 64q0 44 -29 65.5t-74 21.5h-157v-173z" />
<glyph unicode="&#x44b;" horiz-adv-x="669" d="M609 477v-477h-76v477h76zM134 59h157q49 0 76 22t27 64q0 44 -29 65.5t-74 21.5h-157v-173zM60 0v481h75v-189h168q90 0 129.5 -43.5t39.5 -102.5q0 -63 -43.5 -104.5t-125.5 -41.5h-243z" />
<glyph unicode="&#x44c;" horiz-adv-x="496" d="M134 59h157q49 0 76 22t27 64q0 44 -29 65.5t-74 21.5h-157v-173zM60 0v481h75v-189h168q90 0 129.5 -43.5t39.5 -102.5q0 -63 -43.5 -104.5t-125.5 -41.5h-243z" />
<glyph unicode="&#x44d;" horiz-adv-x="486" d="M217 55q74 0 107 42t35 121h-204v66h202q-1 66 -33.5 103t-95.5 37q-49 0 -82 -23t-38 -63h-65q0 2 -0.5 6.5t-0.5 6.5q0 66 54 102t126 36q214 0 214 -256q0 -112 -54.5 -176.5t-164.5 -64.5q-80 0 -133 37t-53 110q0 10 1 16h65q9 -98 120 -100z" />
<glyph unicode="&#x44e;" horiz-adv-x="708" d="M442 490q60 0 104.5 -22t67.5 -59.5t33.5 -79.5t10.5 -89q0 -48 -10.5 -89.5t-34 -78.5t-67.5 -58.5t-104 -21.5q-111 0 -163.5 62t-56.5 166h-88v-220h-74v482h74v-198h90q10 93 64 149.5t154 56.5zM442 422q-144 0 -144 -183q0 -182 144 -182q139 0 139 183 q0 87 -32 134.5t-107 47.5z" />
<glyph unicode="&#x44f;" horiz-adv-x="503" d="M42 333q0 66 44.5 107.5t122.5 41.5h234v-482h-75v188h-85q-9 -9 -77.5 -93.5t-77.5 -94.5h-87l156 188q-81 4 -118 43.5t-37 101.5zM368 420h-148q-45 0 -73.5 -22t-28.5 -62q0 -86 103 -86h147v170z" />
<glyph unicode="&#x451;" horiz-adv-x="516" d="M265 425q-63 0 -97.5 -39t-39.5 -104h265q0 66 -31.5 104.5t-96.5 38.5zM265 490q100 0 150.5 -57.5t50.5 -147.5q0 -30 -6 -60h-335q0 -169 146 -169q116 0 124 92h67q1 -6 1 -17q0 -67 -56.5 -103.5t-136.5 -36.5q-221 0 -221 247q0 111 54 181.5t162 70.5zM133 619 q0 18 13 31.5t32 13.5q18 0 31.5 -13.5t13.5 -31.5q0 -19 -13.5 -32t-31.5 -13q-19 0 -32 13t-13 32zM305 619q0 18 13 31.5t31 13.5q19 0 32 -13.5t13 -31.5q0 -19 -13 -32t-32 -13q-18 0 -31 13t-13 32z" />
<glyph unicode="&#x452;" horiz-adv-x="550" d="M301 480q199 0 199 -266q0 -50 -9 -94t-29.5 -83.5t-59 -63t-92.5 -23.5q-16 0 -25 1v61q80 3 109.5 53.5t29.5 149.5q0 40 -5 71.5t-18.5 64t-43 50.5t-73.5 18q-51 0 -84.5 -28t-45.5 -63.5t-12 -76.5v-251h-74v567h-52v52h52v91h74v-91h249v-52h-249v-72 q0 -50 -13 -106h6q23 42 68 66.5t98 24.5z" />
<glyph unicode="&#x453;" horiz-adv-x="433" d="M211 558l-40 34l124 156l63 -54zM60 0v481h368v-65h-294v-416h-74z" />
<glyph unicode="&#x454;" horiz-adv-x="487" d="M269 490q73 0 125.5 -34.5t52.5 -101.5q0 -11 -1 -17h-68q-3 42 -34 63.5t-76 21.5q-123 0 -140 -138h200v-66h-201q6 -161 141 -161q53 0 85.5 26.5t34.5 76.5h67q1 -6 1 -18q0 -68 -52 -109t-132 -41q-222 0 -222 241q0 118 53 187.5t166 69.5z" />
<glyph unicode="&#x455;" horiz-adv-x="472" d="M238 54q54 0 82.5 23.5t28.5 54.5q0 41 -26.5 59t-90.5 25q-43 5 -68.5 10.5t-54.5 19t-43 38.5t-14 62q0 61 44 102.5t139 41.5q42 0 80 -11t66.5 -39t28.5 -68q0 -7 -2 -17h-70q-5 35 -34.5 53.5t-72.5 18.5q-52 0 -78.5 -21t-26.5 -52q0 -16 6 -27.5t14.5 -18.5 t28 -12.5t34.5 -8t46 -7.5q87 -12 128 -43t41 -100q0 -60 -49.5 -102.5t-145.5 -42.5q-76 0 -133.5 34t-57.5 103q0 5 2 21h70q4 -50 40 -73t88 -23z" />
<glyph unicode="&#x456;" horiz-adv-x="248" d="M86 0v482h74v-482h-74zM75 621q0 21 14.5 35.5t34.5 14.5q21 0 35.5 -14.5t14.5 -35.5q0 -20 -14.5 -34.5t-35.5 -14.5q-20 0 -34.5 14.5t-14.5 34.5z" />
<glyph unicode="&#x457;" horiz-adv-x="250" d="M-8 612q0 18 13 31.5t32 13.5q18 0 31.5 -13.5t13.5 -31.5q0 -19 -13.5 -32t-31.5 -13q-19 0 -32 13t-13 32zM164 612q0 18 13 31.5t31 13.5q19 0 32 -13.5t13 -31.5q0 -19 -13 -32t-32 -13q-18 0 -31 13t-13 32zM86 0v482h74v-482h-74z" />
<glyph unicode="&#x458;" horiz-adv-x="240" d="M54 -202h-43v65h23q28 0 39 15.5t11 49.5v554h75v-555q0 -63 -23 -96t-82 -33zM72 621q0 21 14.5 35.5t35.5 14.5q20 0 34.5 -14.5t14.5 -35.5q0 -20 -14.5 -34.5t-34.5 -14.5q-21 0 -35.5 14.5t-14.5 34.5z" />
<glyph unicode="&#x459;" horiz-adv-x="774" d="M342 0v418h-163q-1 -21 -3 -60q-14 -237 -35.5 -303.5t-105.5 -66.5q-15 0 -23 2v57q20 2 32 6t22.5 16.5t16 27.5t10 48t7 68t5.5 98l8 170h305v-189h163q90 0 129 -43t39 -103q0 -63 -43 -104.5t-125 -41.5h-239zM417 59h152q49 0 76.5 22t27.5 64q0 44 -29.5 65.5 t-74.5 21.5h-152v-173z" />
<glyph unicode="&#x45a;" horiz-adv-x="764" d="M333 283v198h76v-198h164q90 0 128 -41.5t38 -100.5q0 -62 -42 -101.5t-124 -39.5h-240v222h-200v-222h-73v482h73v-199h200zM408 59h153q103 0 103 81q0 82 -102 82h-154v-163z" />
<glyph unicode="&#x45b;" horiz-adv-x="534" d="M125 394h4q22 42 65.5 65.5t97.5 23.5q58 0 96.5 -17.5t56 -50.5t23.5 -65.5t6 -77.5v-272h-76v270q0 74 -25.5 113t-96.5 39q-70 0 -106 -51t-36 -118v-253h-74v567h-52v52h52v92h74v-92h231v-52h-231v-61q0 -73 -9 -112z" />
<glyph unicode="&#x45c;" horiz-adv-x="463" d="M216 545l-40 34l124 156l63 -54zM372 481h83q-17 -20 -81.5 -99.5t-99.5 -121.5l190 -260h-89l-159 222h-83v-222h-73v482h73v-199h76z" />
<glyph unicode="&#x45e;" horiz-adv-x="448" d="M216 55h8q12 43 34 109t28 85l75 232h73l-178 -536q-25 -76 -58.5 -112.5t-101.5 -36.5h-57v61h48q37 0 58 14.5t34 51.5l25 75l-38 -3q-16 63 -58 186l-99 300h79q4 -12 32.5 -107.5t35.5 -114.5q43 -137 60 -204zM227 544q-52 0 -89.5 28t-52.5 62.5t-17 69.5h59 q4 -40 27.5 -70t72.5 -30q48 0 72 30.5t28 69.5h59q-5 -59 -44.5 -109.5t-114.5 -50.5z" />
<glyph unicode="&#x45f;" horiz-adv-x="539" d="M479 0h-170v-151h-69v151h-180v482h74v-420h270v420h75v-482z" />
<glyph unicode="&#x490;" horiz-adv-x="531" d="M65 0v674h386v142h71v-210h-381v-606h-76z" />
<glyph unicode="&#x491;" horiz-adv-x="438" d="M60 0v481h299v129h68v-195h-293v-415h-74z" />
<glyph unicode="&#x4d9;" horiz-adv-x="516" d="M251 56q63 0 97.5 39t39.5 104h-265q0 -66 31.5 -104.5t96.5 -38.5zM251 -9q-100 0 -150.5 57.5t-50.5 147.5q0 30 6 60h335q0 169 -138 169q-115 0 -126 -92h-66q-1 6 -1 17q0 67 56.5 103.5t136.5 36.5q107 0 160.5 -63.5t53.5 -183.5q0 -111 -54 -181.5t-162 -70.5z " />
<glyph unicode="&#x1e80;" horiz-adv-x="888" d="M444 561h-4q-19 -83 -161 -561h-84l-184 674h83l69 -273q10 -47 35 -147t37 -155h6q36 145 66 241q18 57 50 168.5t48 165.5h75l84 -279q65 -222 84 -297h5q27 119 72 298l69 278h82l-182 -674h-84l-104 343q-52 173 -62 218zM479 764l-29 -41l-178 92l53 67z" />
<glyph unicode="&#x1e81;" horiz-adv-x="698" d="M351 373h-7q-18 -81 -56 -208l-51 -167h-79l-147 483h75l43 -148q54 -189 66 -246h8q19 84 50 189q16 55 64 205h66l50 -162q26 -85 66 -233h7q15 75 57 225l48 170h74l-146 -483h-78q-2 7 -21.5 69t-36.5 119q-39 139 -52 187zM393 576l-40 -33l-143 143l67 52z" />
<glyph unicode="&#x1e82;" horiz-adv-x="888" d="M444 561h-4q-19 -83 -161 -561h-84l-184 674h83l69 -273q10 -47 35 -147t37 -155h6q36 145 66 241q18 57 50 168.5t48 165.5h75l84 -279q65 -222 84 -297h5q27 119 72 298l69 278h82l-182 -674h-84l-104 343q-52 173 -62 218zM422 726l-30 41l155 118l52 -67z" />
<glyph unicode="&#x1e83;" horiz-adv-x="698" d="M351 373h-7q-18 -81 -56 -208l-51 -167h-79l-147 483h75l43 -148q54 -189 66 -246h8q19 84 50 189q16 55 64 205h66l50 -162q26 -85 66 -233h7q15 75 57 225l48 170h74l-146 -483h-78q-2 7 -21.5 69t-36.5 119q-39 139 -52 187zM334 545l-40 34l124 156l63 -54z" />
<glyph unicode="&#x1e84;" horiz-adv-x="888" d="M444 561h-4q-19 -83 -161 -561h-84l-184 674h83l69 -273q10 -47 35 -147t37 -155h6q36 145 66 241q18 57 50 168.5t48 165.5h75l84 -279q65 -222 84 -297h5q27 119 72 298l69 278h82l-182 -674h-84l-104 343q-52 173 -62 218zM312 814q0 19 13 32t31 13q19 0 32 -13 t13 -32q0 -18 -13 -31.5t-32 -13.5q-18 0 -31 13.5t-13 31.5zM483 814q0 19 13 32t32 13t32 -13t13 -32q0 -18 -13 -31.5t-32 -13.5t-32 13.5t-13 31.5z" />
<glyph unicode="&#x1e85;" horiz-adv-x="698" d="M351 373h-7q-18 -81 -56 -208l-51 -167h-79l-147 483h75l43 -148q54 -189 66 -246h8q19 84 50 189q16 55 64 205h66l50 -162q26 -85 66 -233h7q15 75 57 225l48 170h74l-146 -483h-78q-2 7 -21.5 69t-36.5 119q-39 139 -52 187zM214 612q0 18 13 31.5t32 13.5 q18 0 31.5 -13.5t13.5 -31.5q0 -19 -13.5 -32t-31.5 -13q-19 0 -32 13t-13 32zM386 612q0 18 13 31.5t31 13.5q19 0 32 -13.5t13 -31.5q0 -19 -13 -32t-32 -13q-18 0 -31 13t-13 32z" />
<glyph unicode="&#x1ef2;" horiz-adv-x="558" d="M272 344h9q13 35 88 173l86 157h88l-231 -403v-271h-77v271l-226 403h88l89 -163q61 -111 86 -167zM336 764l-29 -41l-178 92l53 67z" />
<glyph unicode="&#x1ef3;" horiz-adv-x="448" d="M216 55h8q12 43 34 109t28 85l75 232h73l-178 -536q-25 -76 -58.5 -112.5t-101.5 -36.5h-57v61h48q37 0 58 14.5t34 51.5l25 75l-38 -3q-16 63 -58 186l-99 300h79q4 -12 32.5 -107.5t35.5 -114.5q43 -137 60 -204zM272 576l-40 -33l-143 143l67 52z" />
<glyph unicode="&#x1f00;" horiz-adv-x="540" d="M257 490q107 0 152 -70h4q0 36 14 62h53v-482h-57q-12 22 -12 70h-4q-47 -79 -153 -79q-110 0 -157 64.5t-47 184.5q0 109 52 179.5t155 70.5zM264 56q49 0 82.5 27t46.5 62t13 74v60q0 67 -37 108.5t-102 41.5q-142 0 -142 -187q0 -186 139 -186zM282 534l-31 20 q32 48 32 86q0 41 -64 66l24 74q110 -31 110 -116q0 -31 -18.5 -66.5t-52.5 -63.5z" />
<glyph unicode="&#x1f01;" horiz-adv-x="540" d="M257 490q107 0 152 -70h4q0 36 14 62h53v-482h-57q-12 22 -12 70h-4q-47 -79 -153 -79q-110 0 -157 64.5t-47 184.5q0 109 52 179.5t155 70.5zM264 56q49 0 82.5 27t46.5 62t13 74v60q0 67 -37 108.5t-102 41.5q-142 0 -142 -187q0 -186 139 -186zM325 554l-32 -20 q-33 28 -51.5 63.5t-18.5 66.5q0 85 109 116l25 -74q-64 -25 -64 -66q0 -38 32 -86z" />
<glyph unicode="&#x1f02;" horiz-adv-x="540" d="M257 490q107 0 152 -70h4q0 36 14 62h53v-482h-57q-12 22 -12 70h-4q-47 -79 -153 -79q-110 0 -157 64.5t-47 184.5q0 109 52 179.5t155 70.5zM264 56q49 0 82.5 27t46.5 62t13 74v60q0 67 -37 108.5t-102 41.5q-142 0 -142 -187q0 -186 139 -186zM428 569l-46 -22 l-128 215l79 31zM190 535l-31 20q32 47 32 85q0 22 -14.5 37t-50.5 28q4 20 21 78q114 -37 114 -121q0 -29 -19.5 -63.5t-51.5 -63.5z" />
<glyph unicode="&#x1f03;" horiz-adv-x="540" d="M257 490q107 0 152 -70h4q0 36 14 62h53v-482h-57q-12 22 -12 70h-4q-47 -79 -153 -79q-110 0 -157 64.5t-47 184.5q0 109 52 179.5t155 70.5zM264 56q49 0 82.5 27t46.5 62t13 74v60q0 67 -37 108.5t-102 41.5q-142 0 -142 -187q0 -186 139 -186zM426 560l-46 -21 q-25 41 -70.5 117.5t-57.5 97.5q63 24 79 31q64 -150 95 -225zM213 553l-31 -20q-33 28 -51.5 63.5t-18.5 66.5q0 85 109 116q12 -33 25 -74q-64 -25 -64 -66q0 -39 31 -86z" />
<glyph unicode="&#x1f04;" horiz-adv-x="540" d="M257 490q107 0 152 -70h4q0 36 14 62h53v-482h-57q-12 22 -12 70h-4q-47 -79 -153 -79q-110 0 -157 64.5t-47 184.5q0 109 52 179.5t155 70.5zM264 56q49 0 82.5 27t46.5 62t13 74v60q0 67 -37 108.5t-102 41.5q-142 0 -142 -187q0 -186 139 -186zM347 538l-47 22l96 224 q63 -24 79 -31q-25 -41 -70.5 -117.5t-57.5 -97.5zM220 539q-11 6 -31 20q31 47 31 86q0 42 -64 65q16 50 25 75q109 -31 109 -116q0 -31 -18.5 -66.5t-51.5 -63.5z" />
<glyph unicode="&#x1f05;" horiz-adv-x="540" d="M257 490q107 0 152 -70h4q0 36 14 62h53v-482h-57q-12 22 -12 70h-4q-47 -79 -153 -79q-110 0 -157 64.5t-47 184.5q0 109 52 179.5t155 70.5zM264 56q49 0 82.5 27t46.5 62t13 74v60q0 67 -37 108.5t-102 41.5q-142 0 -142 -187q0 -186 139 -186zM331 539l-47 21 q36 81 96 225q25 -11 79 -31q-76 -129 -128 -215zM250 554l-31 -20q-34 29 -52.5 64t-18.5 66q0 85 110 116q14 -46 25 -74q-65 -23 -65 -66q0 -38 32 -86z" />
<glyph unicode="&#x1f06;" horiz-adv-x="540" d="M257 490q107 0 152 -70h4q0 36 14 62h53v-482h-57q-12 22 -12 70h-4q-47 -79 -153 -79q-110 0 -157 64.5t-47 184.5q0 109 52 179.5t155 70.5zM264 56q49 0 82.5 27t46.5 62t13 74v60q0 67 -37 108.5t-102 41.5q-142 0 -142 -187q0 -186 139 -186zM270 531l-36 17 q32 39 32 66q0 40 -60 44l20 65q55 -9 82 -33.5t27 -57.5q0 -54 -65 -101zM335 737q-25 0 -70.5 18.5t-65.5 18.5q-32 0 -67 -39l-35 28q14 34 42.5 54.5t59.5 20.5q22 0 64.5 -18t66.5 -18q35 0 66 37l38 -26q-12 -35 -40 -55.5t-59 -20.5z" />
<glyph unicode="&#x1f07;" horiz-adv-x="540" d="M257 490q107 0 152 -70h4q0 36 14 62h53v-482h-57q-12 22 -12 70h-4q-47 -79 -153 -79q-110 0 -157 64.5t-47 184.5q0 109 52 179.5t155 70.5zM264 56q49 0 82.5 27t46.5 62t13 74v60q0 67 -37 108.5t-102 41.5q-142 0 -142 -187q0 -186 139 -186zM311 548l-35 -17 q-65 47 -65 101q0 33 27 57.5t82 33.5l20 -65q-61 -4 -61 -44q0 -25 32 -66zM356 747q-26 0 -70.5 17t-64.5 17q-35 0 -69 -38l-35 28q14 34 42.5 54t59.5 20q22 0 64.5 -17.5t66.5 -17.5q35 0 66 37l38 -27q-12 -34 -40 -53.5t-58 -19.5z" />
<glyph unicode="&#x1f08;" horiz-adv-x="607" d="M515 0l-66 174h-295l-63 -174h-81l254 676h76l257 -676h-82zM304 582h-6q-12 -44 -57 -167l-64 -176h250l-64 170q-54 155 -59 173zM34 455l-31 20q32 48 32 86q0 41 -64 66l24 74q110 -31 110 -116q0 -31 -18.5 -66.5t-52.5 -63.5z" />
<glyph unicode="&#x1f09;" horiz-adv-x="607" d="M515 0l-66 174h-295l-63 -174h-81l254 676h76l257 -676h-82zM304 582h-6q-12 -44 -57 -167l-64 -176h250l-64 170q-54 155 -59 173zM78 478l-32 -20q-33 28 -51.5 63.5t-18.5 66.5q0 85 109 116l25 -74q-64 -25 -64 -66q0 -38 32 -86z" />
<glyph unicode="&#x1f0a;" horiz-adv-x="607" d="M515 0l-66 174h-295l-63 -174h-81l254 676h76l257 -676h-82zM304 582h-6q-12 -44 -57 -167l-64 -176h250l-64 170q-54 155 -59 173zM133 485l-46 -22l-128 215l79 31zM-105 451l-31 20q32 47 32 85q0 22 -14.5 37t-50.5 28q4 20 21 78q114 -37 114 -121 q0 -29 -19.5 -63.5t-51.5 -63.5z" />
<glyph unicode="&#x1f0b;" horiz-adv-x="607" d="M515 0l-66 174h-295l-63 -174h-81l254 676h76l257 -676h-82zM304 582h-6q-12 -44 -57 -167l-64 -176h250l-64 170q-54 155 -59 173zM134 481l-46 -21q-25 41 -70.5 117.5t-57.5 97.5q63 24 79 31q64 -150 95 -225zM-79 474l-31 -20q-33 28 -51.5 63.5t-18.5 66.5 q0 85 109 116q12 -33 25 -74q-64 -25 -64 -66q0 -39 31 -86z" />
<glyph unicode="&#x1f0c;" horiz-adv-x="607" d="M515 0l-66 174h-295l-63 -174h-81l254 676h76l257 -676h-82zM304 582h-6q-12 -44 -57 -167l-64 -176h250l-64 170q-54 155 -59 173zM38 460l-47 22l96 224q63 -24 79 -31q-25 -41 -70.5 -117.5t-57.5 -97.5zM-89 461q-11 6 -31 20q31 47 31 86q0 42 -64 65q16 50 25 75 q109 -31 109 -116q0 -31 -18.5 -66.5t-51.5 -63.5z" />
<glyph unicode="&#x1f0d;" horiz-adv-x="607" d="M515 0l-66 174h-295l-63 -174h-81l254 676h76l257 -676h-82zM304 582h-6q-12 -44 -57 -167l-64 -176h250l-64 170q-54 155 -59 173zM31 463l-47 21q36 81 96 225q25 -11 79 -31q-76 -129 -128 -215zM-50 478l-31 -20q-34 29 -52.5 64t-18.5 66q0 85 110 116 q14 -46 25 -74q-65 -23 -65 -66q0 -38 32 -86z" />
<glyph unicode="&#x1f0e;" horiz-adv-x="607" d="M515 0l-66 174h-295l-63 -174h-81l254 676h76l257 -676h-82zM304 582h-6q-12 -44 -57 -167l-64 -176h250l-64 170q-54 155 -59 173zM6 395l-36 17q32 39 32 66q0 40 -60 44l20 65q55 -9 82 -33.5t27 -57.5q0 -54 -65 -101zM71 601q-25 0 -70.5 18.5t-65.5 18.5 q-32 0 -67 -39l-35 28q14 34 42.5 54.5t59.5 20.5q22 0 64.5 -18t66.5 -18q35 0 66 37l38 -26q-12 -35 -40 -55.5t-59 -20.5z" />
<glyph unicode="&#x1f0f;" horiz-adv-x="607" d="M515 0l-66 174h-295l-63 -174h-81l254 676h76l257 -676h-82zM304 582h-6q-12 -44 -57 -167l-64 -176h250l-64 170q-54 155 -59 173zM28 409l-35 -17q-65 47 -65 101q0 33 27 57.5t82 33.5l20 -65q-61 -4 -61 -44q0 -25 32 -66zM73 608q-26 0 -70.5 17t-64.5 17 q-35 0 -69 -38l-35 28q14 34 42.5 54t59.5 20q22 0 64.5 -17.5t66.5 -17.5q35 0 66 37l38 -27q-12 -34 -40 -53.5t-58 -19.5z" />
<glyph unicode="&#x1f10;" horiz-adv-x="464" d="M248 -8q-99 0 -148.5 38.5t-49.5 103.5q0 35 18 67t60 48v4q-69 22 -69 94q0 63 46.5 103t136.5 40q80 0 131 -35t51 -101q0 -10 -1 -16l-67 -1q-3 43 -35 65.5t-85 22.5q-44 0 -72.5 -21t-28.5 -56q0 -32 22.5 -47t53.5 -15h96v-64h-96q-39 -1 -62 -23t-23 -58 q0 -37 29 -62.5t87 -25.5t92.5 29t36.5 81h66q0 -3 0.5 -9.5t0.5 -8.5q0 -75 -54.5 -114t-135.5 -39zM234 534l-31 20q32 48 32 86q0 41 -64 66l24 74q110 -31 110 -116q0 -31 -18.5 -66.5t-52.5 -63.5z" />
<glyph unicode="&#x1f11;" horiz-adv-x="464" d="M248 -8q-99 0 -148.5 38.5t-49.5 103.5q0 35 18 67t60 48v4q-69 22 -69 94q0 63 46.5 103t136.5 40q80 0 131 -35t51 -101q0 -10 -1 -16l-67 -1q-3 43 -35 65.5t-85 22.5q-44 0 -72.5 -21t-28.5 -56q0 -32 22.5 -47t53.5 -15h96v-64h-96q-39 -1 -62 -23t-23 -58 q0 -37 29 -62.5t87 -25.5t92.5 29t36.5 81h66q0 -3 0.5 -9.5t0.5 -8.5q0 -75 -54.5 -114t-135.5 -39zM275 554l-32 -20q-33 28 -51.5 63.5t-18.5 66.5q0 85 109 116l25 -74q-64 -25 -64 -66q0 -38 32 -86z" />
<glyph unicode="&#x1f12;" horiz-adv-x="464" d="M248 -8q-99 0 -148.5 38.5t-49.5 103.5q0 35 18 67t60 48v4q-69 22 -69 94q0 63 46.5 103t136.5 40q80 0 131 -35t51 -101q0 -10 -1 -16l-67 -1q-3 43 -35 65.5t-85 22.5q-44 0 -72.5 -21t-28.5 -56q0 -32 22.5 -47t53.5 -15h96v-64h-96q-39 -1 -62 -23t-23 -58 q0 -37 29 -62.5t87 -25.5t92.5 29t36.5 81h66q0 -3 0.5 -9.5t0.5 -8.5q0 -75 -54.5 -114t-135.5 -39zM382 569l-46 -22l-128 215l79 31zM144 535l-31 20q32 47 32 85q0 22 -14.5 37t-50.5 28q4 20 21 78q114 -37 114 -121q0 -29 -19.5 -63.5t-51.5 -63.5z" />
<glyph unicode="&#x1f13;" horiz-adv-x="464" d="M248 -8q-99 0 -148.5 38.5t-49.5 103.5q0 35 18 67t60 48v4q-69 22 -69 94q0 63 46.5 103t136.5 40q80 0 131 -35t51 -101q0 -10 -1 -16l-67 -1q-3 43 -35 65.5t-85 22.5q-44 0 -72.5 -21t-28.5 -56q0 -32 22.5 -47t53.5 -15h96v-64h-96q-39 -1 -62 -23t-23 -58 q0 -37 29 -62.5t87 -25.5t92.5 29t36.5 81h66q0 -3 0.5 -9.5t0.5 -8.5q0 -75 -54.5 -114t-135.5 -39zM381 560l-46 -21q-25 41 -70.5 117.5t-57.5 97.5q63 24 79 31q64 -150 95 -225zM168 553l-31 -20q-33 28 -51.5 63.5t-18.5 66.5q0 85 109 116q12 -33 25 -74 q-64 -25 -64 -66q0 -39 31 -86z" />
<glyph unicode="&#x1f14;" horiz-adv-x="464" d="M248 -8q-99 0 -148.5 38.5t-49.5 103.5q0 35 18 67t60 48v4q-69 22 -69 94q0 63 46.5 103t136.5 40q80 0 131 -35t51 -101q0 -10 -1 -16l-67 -1q-3 43 -35 65.5t-85 22.5q-44 0 -72.5 -21t-28.5 -56q0 -32 22.5 -47t53.5 -15h96v-64h-96q-39 -1 -62 -23t-23 -58 q0 -37 29 -62.5t87 -25.5t92.5 29t36.5 81h66q0 -3 0.5 -9.5t0.5 -8.5q0 -75 -54.5 -114t-135.5 -39zM300 538l-47 22l96 224q63 -24 79 -31q-25 -41 -70.5 -117.5t-57.5 -97.5zM173 539q-11 6 -31 20q31 47 31 86q0 42 -64 65q16 50 25 75q109 -31 109 -116 q0 -31 -18.5 -66.5t-51.5 -63.5z" />
<glyph unicode="&#x1f15;" horiz-adv-x="464" d="M248 -8q-99 0 -148.5 38.5t-49.5 103.5q0 35 18 67t60 48v4q-69 22 -69 94q0 63 46.5 103t136.5 40q80 0 131 -35t51 -101q0 -10 -1 -16l-67 -1q-3 43 -35 65.5t-85 22.5q-44 0 -72.5 -21t-28.5 -56q0 -32 22.5 -47t53.5 -15h96v-64h-96q-39 -1 -62 -23t-23 -58 q0 -37 29 -62.5t87 -25.5t92.5 29t36.5 81h66q0 -3 0.5 -9.5t0.5 -8.5q0 -75 -54.5 -114t-135.5 -39zM296 539l-47 21q36 81 96 225q25 -11 79 -31q-76 -129 -128 -215zM215 554l-31 -20q-34 29 -52.5 64t-18.5 66q0 85 110 116q14 -46 25 -74q-65 -23 -65 -66q0 -38 32 -86 z" />
<glyph unicode="&#x1f18;" horiz-adv-x="549" d="M65 0v674h436v-68h-360v-226h330v-70h-330v-239h370v-71h-446zM-79 450l-31 20q32 48 32 86q0 41 -64 66l24 74q110 -31 110 -116q0 -31 -18.5 -66.5t-52.5 -63.5z" />
<glyph unicode="&#x1f19;" horiz-adv-x="549" d="M65 0v674h436v-68h-360v-226h330v-70h-330v-239h370v-71h-446zM-41 473l-32 -20q-33 28 -51.5 63.5t-18.5 66.5q0 85 109 116l25 -74q-64 -25 -64 -66q0 -38 32 -86z" />
<glyph unicode="&#x1f1a;" horiz-adv-x="549" d="M65 0v674h436v-68h-360v-226h330v-70h-330v-239h370v-71h-446zM23 487l-46 -22l-128 215l79 31zM-215 453l-31 20q32 47 32 85q0 22 -14.5 37t-50.5 28q4 20 21 78q114 -37 114 -121q0 -29 -19.5 -63.5t-51.5 -63.5z" />
<glyph unicode="&#x1f1b;" horiz-adv-x="549" d="M65 0v674h436v-68h-360v-226h330v-70h-330v-239h370v-71h-446zM23 477l-46 -21q-25 41 -70.5 117.5t-57.5 97.5q63 24 79 31q64 -150 95 -225zM-190 470l-31 -20q-33 28 -51.5 63.5t-18.5 66.5q0 85 109 116q12 -33 25 -74q-64 -25 -64 -66q0 -39 31 -86z" />
<glyph unicode="&#x1f1c;" horiz-adv-x="549" d="M65 0v674h436v-68h-360v-226h330v-70h-330v-239h370v-71h-446zM-104 455l-47 22l96 224q63 -24 79 -31q-25 -41 -70.5 -117.5t-57.5 -97.5zM-231 456q-11 6 -31 20q31 47 31 86q0 42 -64 65q16 50 25 75q109 -31 109 -116q0 -31 -18.5 -66.5t-51.5 -63.5z" />
<glyph unicode="&#x1f1d;" horiz-adv-x="549" d="M65 0v674h436v-68h-360v-226h330v-70h-330v-239h370v-71h-446zM-98 465l-47 21q36 81 96 225q25 -11 79 -31q-76 -129 -128 -215zM-179 480l-31 -20q-34 29 -52.5 64t-18.5 66q0 85 110 116q14 -46 25 -74q-65 -23 -65 -66q0 -38 32 -86z" />
<glyph unicode="&#x1f20;" horiz-adv-x="534" d="M293 491q58 0 96 -17.5t55.5 -50.5t23.5 -65t6 -76v-282h-76v278q0 72 -25 112t-96 40q-67 0 -105 -49.5t-38 -113.5v-267h-74v482h56q16 -27 16 -71h4q26 39 71.5 59.5t85.5 20.5zM241 534l-31 20q32 48 32 86q0 41 -64 66l24 74q110 -31 110 -116q0 -31 -18.5 -66.5 t-52.5 -63.5z" />
<glyph unicode="&#x1f21;" horiz-adv-x="534" d="M293 491q58 0 96 -17.5t55.5 -50.5t23.5 -65t6 -76v-282h-76v278q0 72 -25 112t-96 40q-67 0 -105 -49.5t-38 -113.5v-267h-74v482h56q16 -27 16 -71h4q26 39 71.5 59.5t85.5 20.5zM294 554l-32 -20q-33 28 -51.5 63.5t-18.5 66.5q0 85 109 116l25 -74q-64 -25 -64 -66 q0 -38 32 -86z" />
<glyph unicode="&#x1f22;" horiz-adv-x="534" d="M293 491q58 0 96 -17.5t55.5 -50.5t23.5 -65t6 -76v-282h-76v278q0 72 -25 112t-96 40q-67 0 -105 -49.5t-38 -113.5v-267h-74v482h56q16 -27 16 -71h4q26 39 71.5 59.5t85.5 20.5zM414 569l-46 -22l-128 215l79 31zM176 535l-31 20q32 47 32 85q0 22 -14.5 37t-50.5 28 q4 20 21 78q114 -37 114 -121q0 -29 -19.5 -63.5t-51.5 -63.5z" />
<glyph unicode="&#x1f23;" horiz-adv-x="534" d="M293 491q58 0 96 -17.5t55.5 -50.5t23.5 -65t6 -76v-282h-76v278q0 72 -25 112t-96 40q-67 0 -105 -49.5t-38 -113.5v-267h-74v482h56q16 -27 16 -71h4q26 39 71.5 59.5t85.5 20.5zM415 560l-46 -21q-25 41 -70.5 117.5t-57.5 97.5q63 24 79 31q64 -150 95 -225zM202 553 l-31 -20q-33 28 -51.5 63.5t-18.5 66.5q0 85 109 116q12 -33 25 -74q-64 -25 -64 -66q0 -39 31 -86z" />
<glyph unicode="&#x1f24;" horiz-adv-x="534" d="M293 491q58 0 96 -17.5t55.5 -50.5t23.5 -65t6 -76v-282h-76v278q0 72 -25 112t-96 40q-67 0 -105 -49.5t-38 -113.5v-267h-74v482h56q16 -27 16 -71h4q26 39 71.5 59.5t85.5 20.5zM326 538l-47 22l96 224q63 -24 79 -31q-25 -41 -70.5 -117.5t-57.5 -97.5zM199 539 q-11 6 -31 20q31 47 31 86q0 42 -64 65q16 50 25 75q109 -31 109 -116q0 -31 -18.5 -66.5t-51.5 -63.5z" />
<glyph unicode="&#x1f25;" horiz-adv-x="534" d="M293 491q58 0 96 -17.5t55.5 -50.5t23.5 -65t6 -76v-282h-76v278q0 72 -25 112t-96 40q-67 0 -105 -49.5t-38 -113.5v-267h-74v482h56q16 -27 16 -71h4q26 39 71.5 59.5t85.5 20.5zM314 539l-47 21q36 81 96 225q25 -11 79 -31q-76 -129 -128 -215zM233 554l-31 -20 q-34 29 -52.5 64t-18.5 66q0 85 110 116q14 -46 25 -74q-65 -23 -65 -66q0 -38 32 -86z" />
<glyph unicode="&#x1f26;" horiz-adv-x="534" d="M293 491q58 0 96 -17.5t55.5 -50.5t23.5 -65t6 -76v-282h-76v278q0 72 -25 112t-96 40q-67 0 -105 -49.5t-38 -113.5v-267h-74v482h56q16 -27 16 -71h4q26 39 71.5 59.5t85.5 20.5zM252 531l-36 17q32 39 32 66q0 40 -60 44l20 65q55 -9 82 -33.5t27 -57.5 q0 -54 -65 -101zM317 737q-25 0 -70.5 18.5t-65.5 18.5q-32 0 -67 -39l-35 28q14 34 42.5 54.5t59.5 20.5q22 0 64.5 -18t66.5 -18q35 0 66 37l38 -26q-12 -35 -40 -55.5t-59 -20.5z" />
<glyph unicode="&#x1f27;" horiz-adv-x="534" d="M293 491q58 0 96 -17.5t55.5 -50.5t23.5 -65t6 -76v-282h-76v278q0 72 -25 112t-96 40q-67 0 -105 -49.5t-38 -113.5v-267h-74v482h56q16 -27 16 -71h4q26 39 71.5 59.5t85.5 20.5zM285 547l-35 -17q-65 47 -65 101q0 33 27 57.5t82 33.5l20 -65q-61 -4 -61 -44 q0 -25 32 -66zM330 746q-26 0 -70.5 17t-64.5 17q-35 0 -69 -38l-35 28q14 34 42.5 54t59.5 20q22 0 64.5 -17.5t66.5 -17.5q35 0 66 37l38 -27q-12 -34 -40 -53.5t-58 -19.5z" />
<glyph unicode="&#x1f28;" horiz-adv-x="658" d="M517 0v311h-376v-311h-76v675h76v-294h376v294h76v-675h-76zM-82 458l-31 20q32 48 32 86q0 41 -64 66l24 74q110 -31 110 -116q0 -31 -18.5 -66.5t-52.5 -63.5z" />
<glyph unicode="&#x1f29;" horiz-adv-x="658" d="M517 0v311h-376v-311h-76v675h76v-294h376v294h76v-675h-76zM-41 479l-32 -20q-33 28 -51.5 63.5t-18.5 66.5q0 85 109 116l25 -74q-64 -25 -64 -66q0 -38 32 -86z" />
<glyph unicode="&#x1f2a;" horiz-adv-x="658" d="M517 0v311h-376v-311h-76v675h76v-294h376v294h76v-675h-76zM27 479l-46 -22l-128 215l79 31zM-211 445l-31 20q32 47 32 85q0 22 -14.5 37t-50.5 28q4 20 21 78q114 -37 114 -121q0 -29 -19.5 -63.5t-51.5 -63.5z" />
<glyph unicode="&#x1f2b;" horiz-adv-x="658" d="M517 0v311h-376v-311h-76v675h76v-294h376v294h76v-675h-76zM23 480l-46 -21q-25 41 -70.5 117.5t-57.5 97.5q63 24 79 31q64 -150 95 -225zM-190 473l-31 -20q-33 28 -51.5 63.5t-18.5 66.5q0 85 109 116q12 -33 25 -74q-64 -25 -64 -66q0 -39 31 -86z" />
<glyph unicode="&#x1f2c;" horiz-adv-x="658" d="M517 0v311h-376v-311h-76v675h76v-294h376v294h76v-675h-76zM-101 458l-47 22l96 224q63 -24 79 -31q-25 -41 -70.5 -117.5t-57.5 -97.5zM-228 459q-11 6 -31 20q31 47 31 86q0 42 -64 65q16 50 25 75q109 -31 109 -116q0 -31 -18.5 -66.5t-51.5 -63.5z" />
<glyph unicode="&#x1f2d;" horiz-adv-x="658" d="M517 0v311h-376v-311h-76v675h76v-294h376v294h76v-675h-76zM-103 458l-47 21q36 81 96 225q25 -11 79 -31q-76 -129 -128 -215zM-184 473l-31 -20q-34 29 -52.5 64t-18.5 66q0 85 110 116q14 -46 25 -74q-65 -23 -65 -66q0 -38 32 -86z" />
<glyph unicode="&#x1f2e;" horiz-adv-x="658" d="M517 0v311h-376v-311h-76v675h76v-294h376v294h76v-675h-76zM-157 405l-36 17q32 39 32 66q0 40 -60 44l20 65q55 -9 82 -33.5t27 -57.5q0 -54 -65 -101zM-92 611q-25 0 -70.5 18.5t-65.5 18.5q-32 0 -67 -39l-35 28q14 34 42.5 54.5t59.5 20.5q22 0 64.5 -18t66.5 -18 q35 0 66 37l38 -26q-12 -35 -40 -55.5t-59 -20.5z" />
<glyph unicode="&#x1f2f;" horiz-adv-x="658" d="M517 0v311h-376v-311h-76v675h76v-294h376v294h76v-675h-76zM-133 417l-35 -17q-65 47 -65 101q0 33 27 57.5t82 33.5l20 -65q-61 -4 -61 -44q0 -25 32 -66zM-88 616q-26 0 -70.5 17t-64.5 17q-35 0 -69 -38l-35 28q14 34 42.5 54t59.5 20q22 0 64.5 -17.5t66.5 -17.5 q35 0 66 37l38 -27q-12 -34 -40 -53.5t-58 -19.5z" />
<glyph unicode="&#x1f30;" horiz-adv-x="248" d="M87 0v482h75v-482h-75zM125 534l-31 20q32 48 32 86q0 41 -64 66l24 74q110 -31 110 -116q0 -31 -18.5 -66.5t-52.5 -63.5z" />
<glyph unicode="&#x1f31;" horiz-adv-x="248" d="M87 0v482h75v-482h-75zM160 554l-32 -20q-33 28 -51.5 63.5t-18.5 66.5q0 85 109 116l25 -74q-64 -25 -64 -66q0 -38 32 -86z" />
<glyph unicode="&#x1f32;" horiz-adv-x="248" d="M87 0v482h75v-482h-75zM278 569l-46 -22l-128 215l79 31zM40 535l-31 20q32 47 32 85q0 22 -14.5 37t-50.5 28q4 20 21 78q114 -37 114 -121q0 -29 -19.5 -63.5t-51.5 -63.5z" />
<glyph unicode="&#x1f33;" horiz-adv-x="248" d="M87 0v482h75v-482h-75zM276 562l-46 -21q-25 41 -70.5 117.5t-57.5 97.5q63 24 79 31q64 -150 95 -225zM63 555l-31 -20q-33 28 -51.5 63.5t-18.5 66.5q0 85 109 116q12 -33 25 -74q-64 -25 -64 -66q0 -39 31 -86z" />
<glyph unicode="&#x1f34;" horiz-adv-x="248" d="M87 0v482h75v-482h-75zM194 538l-47 22l96 224q63 -24 79 -31q-25 -41 -70.5 -117.5t-57.5 -97.5zM67 539q-11 6 -31 20q31 47 31 86q0 42 -64 65q16 50 25 75q109 -31 109 -116q0 -31 -18.5 -66.5t-51.5 -63.5z" />
<glyph unicode="&#x1f35;" horiz-adv-x="248" d="M87 0v482h75v-482h-75zM178 539l-47 21q36 81 96 225q25 -11 79 -31q-76 -129 -128 -215zM97 554l-31 -20q-34 29 -52.5 64t-18.5 66q0 85 110 116q14 -46 25 -74q-65 -23 -65 -66q0 -38 32 -86z" />
<glyph unicode="&#x1f36;" horiz-adv-x="248" d="M87 0v482h75v-482h-75zM125 529l-36 17q32 39 32 66q0 40 -60 44l20 65q55 -9 82 -33.5t27 -57.5q0 -54 -65 -101zM190 735q-25 0 -70.5 18.5t-65.5 18.5q-32 0 -67 -39l-35 28q14 34 42.5 54.5t59.5 20.5q22 0 64.5 -18t66.5 -18q35 0 66 37l38 -26q-12 -35 -40 -55.5 t-59 -20.5z" />
<glyph unicode="&#x1f37;" horiz-adv-x="248" d="M87 0v482h75v-482h-75zM155 548l-35 -17q-65 47 -65 101q0 33 27 57.5t82 33.5l20 -65q-61 -4 -61 -44q0 -25 32 -66zM200 747q-26 0 -70.5 17t-64.5 17q-35 0 -69 -38l-35 28q14 34 42.5 54t59.5 20q22 0 64.5 -17.5t66.5 -17.5q35 0 66 37l38 -27q-12 -34 -40 -53.5 t-58 -19.5z" />
<glyph unicode="&#x1f38;" horiz-adv-x="246" d="M85 0v674h76v-674h-76zM-73 458l-31 20q32 48 32 86q0 41 -64 66l24 74q110 -31 110 -116q0 -31 -18.5 -66.5t-52.5 -63.5z" />
<glyph unicode="&#x1f39;" horiz-adv-x="246" d="M85 0v674h76v-674h-76zM-35 478l-32 -20q-33 28 -51.5 63.5t-18.5 66.5q0 85 109 116l25 -74q-64 -25 -64 -66q0 -38 32 -86z" />
<glyph unicode="&#x1f3a;" horiz-adv-x="246" d="M85 0v674h76v-674h-76zM45 479l-46 -22l-128 215l79 31zM-193 445l-31 20q32 47 32 85q0 22 -14.5 37t-50.5 28q4 20 21 78q114 -37 114 -121q0 -29 -19.5 -63.5t-51.5 -63.5z" />
<glyph unicode="&#x1f3b;" horiz-adv-x="246" d="M85 0v674h76v-674h-76zM44 479l-46 -21q-25 41 -70.5 117.5t-57.5 97.5q63 24 79 31q64 -150 95 -225zM-169 472l-31 -20q-33 28 -51.5 63.5t-18.5 66.5q0 85 109 116q12 -33 25 -74q-64 -25 -64 -66q0 -39 31 -86z" />
<glyph unicode="&#x1f3c;" horiz-adv-x="246" d="M85 0v674h76v-674h-76zM-75 457l-47 22l96 224q63 -24 79 -31q-25 -41 -70.5 -117.5t-57.5 -97.5zM-202 458q-11 6 -31 20q31 47 31 86q0 42 -64 65q16 50 25 75q109 -31 109 -116q0 -31 -18.5 -66.5t-51.5 -63.5z" />
<glyph unicode="&#x1f3d;" horiz-adv-x="246" d="M85 0v674h76v-674h-76zM-79 458l-47 21q36 81 96 225q25 -11 79 -31q-76 -129 -128 -215zM-160 473l-31 -20q-34 29 -52.5 64t-18.5 66q0 85 110 116q14 -46 25 -74q-65 -23 -65 -66q0 -38 32 -86z" />
<glyph unicode="&#x1f3e;" horiz-adv-x="246" d="M85 0v674h76v-674h-76zM-126 406l-36 17q32 39 32 66q0 40 -60 44l20 65q55 -9 82 -33.5t27 -57.5q0 -54 -65 -101zM-61 612q-25 0 -70.5 18.5t-65.5 18.5q-32 0 -67 -39l-35 28q14 34 42.5 54.5t59.5 20.5q22 0 64.5 -18t66.5 -18q35 0 66 37l38 -26q-12 -35 -40 -55.5 t-59 -20.5z" />
<glyph unicode="&#x1f3f;" horiz-adv-x="246" d="M85 0v674h76v-674h-76zM-97 415l-35 -17q-65 47 -65 101q0 33 27 57.5t82 33.5l20 -65q-61 -4 -61 -44q0 -25 32 -66zM-52 614q-26 0 -70.5 17t-64.5 17q-35 0 -69 -38l-35 28q14 34 42.5 54t59.5 20q22 0 64.5 -17.5t66.5 -17.5q35 0 66 37l38 -27q-12 -34 -40 -53.5 t-58 -19.5z" />
<glyph unicode="&#x1f40;" horiz-adv-x="543" d="M273 490q61 0 105 -21t68.5 -57.5t35.5 -79t11 -92.5q0 -49 -11 -91t-35.5 -78.5t-69 -57.5t-104.5 -21q-223 0 -223 246q0 113 56 182.5t167 69.5zM273 422q-147 0 -147 -184q0 -181 147 -181q143 0 143 183q0 182 -143 182zM267 534l-31 20q32 48 32 86q0 41 -64 66 l24 74q110 -31 110 -116q0 -31 -18.5 -66.5t-52.5 -63.5z" />
<glyph unicode="&#x1f41;" horiz-adv-x="543" d="M273 490q61 0 105 -21t68.5 -57.5t35.5 -79t11 -92.5q0 -49 -11 -91t-35.5 -78.5t-69 -57.5t-104.5 -21q-223 0 -223 246q0 113 56 182.5t167 69.5zM273 422q-147 0 -147 -184q0 -181 147 -181q143 0 143 183q0 182 -143 182zM313 554l-32 -20q-33 28 -51.5 63.5 t-18.5 66.5q0 85 109 116l25 -74q-64 -25 -64 -66q0 -38 32 -86z" />
<glyph unicode="&#x1f42;" horiz-adv-x="543" d="M273 490q61 0 105 -21t68.5 -57.5t35.5 -79t11 -92.5q0 -49 -11 -91t-35.5 -78.5t-69 -57.5t-104.5 -21q-223 0 -223 246q0 113 56 182.5t167 69.5zM273 422q-147 0 -147 -184q0 -181 147 -181q143 0 143 183q0 182 -143 182zM437 569l-46 -22l-128 215l79 31zM199 535 l-31 20q32 47 32 85q0 22 -14.5 37t-50.5 28q4 20 21 78q114 -37 114 -121q0 -29 -19.5 -63.5t-51.5 -63.5z" />
<glyph unicode="&#x1f43;" horiz-adv-x="543" d="M273 490q61 0 105 -21t68.5 -57.5t35.5 -79t11 -92.5q0 -49 -11 -91t-35.5 -78.5t-69 -57.5t-104.5 -21q-223 0 -223 246q0 113 56 182.5t167 69.5zM273 422q-147 0 -147 -184q0 -181 147 -181q143 0 143 183q0 182 -143 182zM435 560l-46 -21q-25 41 -70.5 117.5 t-57.5 97.5q63 24 79 31q64 -150 95 -225zM222 553l-31 -20q-33 28 -51.5 63.5t-18.5 66.5q0 85 109 116q12 -33 25 -74q-64 -25 -64 -66q0 -39 31 -86z" />
<glyph unicode="&#x1f44;" horiz-adv-x="543" d="M273 490q61 0 105 -21t68.5 -57.5t35.5 -79t11 -92.5q0 -49 -11 -91t-35.5 -78.5t-69 -57.5t-104.5 -21q-223 0 -223 246q0 113 56 182.5t167 69.5zM273 422q-147 0 -147 -184q0 -181 147 -181q143 0 143 183q0 182 -143 182zM340 538l-47 22l96 224q63 -24 79 -31 q-25 -41 -70.5 -117.5t-57.5 -97.5zM213 539q-11 6 -31 20q31 47 31 86q0 42 -64 65q16 50 25 75q109 -31 109 -116q0 -31 -18.5 -66.5t-51.5 -63.5z" />
<glyph unicode="&#x1f45;" horiz-adv-x="543" d="M273 490q61 0 105 -21t68.5 -57.5t35.5 -79t11 -92.5q0 -49 -11 -91t-35.5 -78.5t-69 -57.5t-104.5 -21q-223 0 -223 246q0 113 56 182.5t167 69.5zM273 422q-147 0 -147 -184q0 -181 147 -181q143 0 143 183q0 182 -143 182zM343 539l-47 21q36 81 96 225q25 -11 79 -31 q-76 -129 -128 -215zM262 554l-31 -20q-34 29 -52.5 64t-18.5 66q0 85 110 116q14 -46 25 -74q-65 -23 -65 -66q0 -38 32 -86z" />
<glyph unicode="&#x1f48;" horiz-adv-x="684" d="M345 681q284 0 284 -350q0 -69 -14 -126t-45.5 -107t-89.5 -78t-138 -28q-157 0 -222 88t-65 250q0 164 70.5 257.5t219.5 93.5zM344 611q-211 0 -211 -281q0 -270 209 -270q99 0 153 67.5t54 203.5q0 280 -205 280zM-66 458l-31 20q32 48 32 86q0 41 -64 66l24 74 q110 -31 110 -116q0 -31 -18.5 -66.5t-52.5 -63.5z" />
<glyph unicode="&#x1f49;" horiz-adv-x="684" d="M345 681q284 0 284 -350q0 -69 -14 -126t-45.5 -107t-89.5 -78t-138 -28q-157 0 -222 88t-65 250q0 164 70.5 257.5t219.5 93.5zM344 611q-211 0 -211 -281q0 -270 209 -270q99 0 153 67.5t54 203.5q0 280 -205 280zM1 482l-32 -20q-33 28 -51.5 63.5t-18.5 66.5 q0 85 109 116l25 -74q-64 -25 -64 -66q0 -38 32 -86z" />
<glyph unicode="&#x1f4a;" horiz-adv-x="684" d="M345 681q284 0 284 -350q0 -69 -14 -126t-45.5 -107t-89.5 -78t-138 -28q-157 0 -222 88t-65 250q0 164 70.5 257.5t219.5 93.5zM344 611q-211 0 -211 -281q0 -270 209 -270q99 0 153 67.5t54 203.5q0 280 -205 280zM33 479l-46 -22l-128 215l79 31zM-205 445l-31 20 q32 47 32 85q0 22 -14.5 37t-50.5 28q4 20 21 78q114 -37 114 -121q0 -29 -19.5 -63.5t-51.5 -63.5z" />
<glyph unicode="&#x1f4b;" horiz-adv-x="684" d="M345 681q284 0 284 -350q0 -69 -14 -126t-45.5 -107t-89.5 -78t-138 -28q-157 0 -222 88t-65 250q0 164 70.5 257.5t219.5 93.5zM344 611q-211 0 -211 -281q0 -270 209 -270q99 0 153 67.5t54 203.5q0 280 -205 280zM33 480l-46 -21q-25 41 -70.5 117.5t-57.5 97.5 q63 24 79 31q64 -150 95 -225zM-180 473l-31 -20q-33 28 -51.5 63.5t-18.5 66.5q0 85 109 116q12 -33 25 -74q-64 -25 -64 -66q0 -39 31 -86z" />
<glyph unicode="&#x1f4c;" horiz-adv-x="684" d="M345 681q284 0 284 -350q0 -69 -14 -126t-45.5 -107t-89.5 -78t-138 -28q-157 0 -222 88t-65 250q0 164 70.5 257.5t219.5 93.5zM344 611q-211 0 -211 -281q0 -270 209 -270q99 0 153 67.5t54 203.5q0 280 -205 280zM-42 457l-47 22l96 224q63 -24 79 -31 q-25 -41 -70.5 -117.5t-57.5 -97.5zM-169 458q-11 6 -31 20q31 47 31 86q0 42 -64 65q16 50 25 75q109 -31 109 -116q0 -31 -18.5 -66.5t-51.5 -63.5z" />
<glyph unicode="&#x1f4d;" horiz-adv-x="684" d="M345 681q284 0 284 -350q0 -69 -14 -126t-45.5 -107t-89.5 -78t-138 -28q-157 0 -222 88t-65 250q0 164 70.5 257.5t219.5 93.5zM344 611q-211 0 -211 -281q0 -270 209 -270q99 0 153 67.5t54 203.5q0 280 -205 280zM-45 458l-47 21q36 81 96 225q25 -11 79 -31 q-76 -129 -128 -215zM-126 473l-31 -20q-34 29 -52.5 64t-18.5 66q0 85 110 116q14 -46 25 -74q-65 -23 -65 -66q0 -38 32 -86z" />
<glyph unicode="&#x1f50;" horiz-adv-x="527" d="M261 534l-31 20q32 48 32 86q0 41 -64 66l24 74q110 -31 110 -116q0 -31 -18.5 -66.5t-52.5 -63.5zM468 185q0 -96 -54.5 -144.5t-152.5 -48.5q-202 0 -202 193v297h75v-291q0 -69 34 -102t94 -33t95.5 33t35.5 103v290h75v-297z" />
<glyph unicode="&#x1f51;" horiz-adv-x="527" d="M303 554l-32 -20q-33 28 -51.5 63.5t-18.5 66.5q0 85 109 116l25 -74q-64 -25 -64 -66q0 -38 32 -86zM468 185q0 -96 -54.5 -144.5t-152.5 -48.5q-202 0 -202 193v297h75v-291q0 -69 34 -102t94 -33t95.5 33t35.5 103v290h75v-297z" />
<glyph unicode="&#x1f52;" horiz-adv-x="527" d="M416 569l-46 -22l-128 215l79 31zM178 535l-31 20q32 47 32 85q0 22 -14.5 37t-50.5 28q4 20 21 78q114 -37 114 -121q0 -29 -19.5 -63.5t-51.5 -63.5zM468 185q0 -96 -54.5 -144.5t-152.5 -48.5q-202 0 -202 193v297h75v-291q0 -69 34 -102t94 -33t95.5 33t35.5 103v290 h75v-297z" />
<glyph unicode="&#x1f53;" horiz-adv-x="527" d="M425 560l-46 -21q-25 41 -70.5 117.5t-57.5 97.5q63 24 79 31q64 -150 95 -225zM212 553l-31 -20q-33 28 -51.5 63.5t-18.5 66.5q0 85 109 116q12 -33 25 -74q-64 -25 -64 -66q0 -39 31 -86zM468 185q0 -96 -54.5 -144.5t-152.5 -48.5q-202 0 -202 193v297h75v-291 q0 -69 34 -102t94 -33t95.5 33t35.5 103v290h75v-297z" />
<glyph unicode="&#x1f54;" horiz-adv-x="527" d="M325 538l-47 22l96 224q63 -24 79 -31q-25 -41 -70.5 -117.5t-57.5 -97.5zM198 539q-11 6 -31 20q31 47 31 86q0 42 -64 65q16 50 25 75q109 -31 109 -116q0 -31 -18.5 -66.5t-51.5 -63.5zM468 185q0 -96 -54.5 -144.5t-152.5 -48.5q-202 0 -202 193v297h75v-291 q0 -69 34 -102t94 -33t95.5 33t35.5 103v290h75v-297z" />
<glyph unicode="&#x1f55;" horiz-adv-x="527" d="M322 539l-47 21q36 81 96 225q25 -11 79 -31q-76 -129 -128 -215zM241 554l-31 -20q-34 29 -52.5 64t-18.5 66q0 85 110 116q14 -46 25 -74q-65 -23 -65 -66q0 -38 32 -86zM468 185q0 -96 -54.5 -144.5t-152.5 -48.5q-202 0 -202 193v297h75v-291q0 -69 34 -102t94 -33 t95.5 33t35.5 103v290h75v-297z" />
<glyph unicode="&#x1f56;" horiz-adv-x="527" d="M274 519l-36 17q32 39 32 66q0 40 -60 44l20 65q55 -9 82 -33.5t27 -57.5q0 -54 -65 -101zM339 725q-25 0 -70.5 18.5t-65.5 18.5q-32 0 -67 -39l-35 28q14 34 42.5 54.5t59.5 20.5q22 0 64.5 -18t66.5 -18q35 0 66 37l38 -26q-12 -35 -40 -55.5t-59 -20.5zM468 185 q0 -96 -54.5 -144.5t-152.5 -48.5q-202 0 -202 193v297h75v-291q0 -69 34 -102t94 -33t95.5 33t35.5 103v290h75v-297z" />
<glyph unicode="&#x1f57;" horiz-adv-x="527" d="M301 535l-35 -17q-65 47 -65 101q0 33 27 57.5t82 33.5l20 -65q-61 -4 -61 -44q0 -25 32 -66zM346 734q-26 0 -70.5 17t-64.5 17q-35 0 -69 -38l-35 28q14 34 42.5 54t59.5 20q22 0 64.5 -17.5t66.5 -17.5q35 0 66 37l38 -27q-12 -34 -40 -53.5t-58 -19.5zM468 185 q0 -96 -54.5 -144.5t-152.5 -48.5q-202 0 -202 193v297h75v-291q0 -69 34 -102t94 -33t95.5 33t35.5 103v290h75v-297z" />
<glyph unicode="&#x1f59;" horiz-adv-x="558" d="M272 344h9q13 35 88 173l86 157h88l-231 -403v-271h-77v271l-226 403h88l89 -163q61 -111 86 -167zM-55 472l-32 -20q-33 28 -51.5 63.5t-18.5 66.5q0 85 109 116l25 -74q-64 -25 -64 -66q0 -38 32 -86z" />
<glyph unicode="&#x1f5b;" horiz-adv-x="558" d="M272 344h9q13 35 88 173l86 157h88l-231 -403v-271h-77v271l-226 403h88l89 -163q61 -111 86 -167zM-1 478l-46 -21q-25 41 -70.5 117.5t-57.5 97.5q63 24 79 31q64 -150 95 -225zM-214 471l-31 -20q-33 28 -51.5 63.5t-18.5 66.5q0 85 109 116q12 -33 25 -74 q-64 -25 -64 -66q0 -39 31 -86z" />
<glyph unicode="&#x1f5d;" horiz-adv-x="558" d="M272 344h9q13 35 88 173l86 157h88l-231 -403v-271h-77v271l-226 403h88l89 -163q61 -111 86 -167zM-131 457l-47 21q36 81 96 225q25 -11 79 -31q-76 -129 -128 -215zM-212 472l-31 -20q-34 29 -52.5 64t-18.5 66q0 85 110 116q14 -46 25 -74q-65 -23 -65 -66 q0 -38 32 -86z" />
<glyph unicode="&#x1f5f;" horiz-adv-x="558" d="M272 344h9q13 35 88 173l86 157h88l-231 -403v-271h-77v271l-226 403h88l89 -163q61 -111 86 -167zM-162 403l-35 -17q-65 47 -65 101q0 33 27 57.5t82 33.5l20 -65q-61 -4 -61 -44q0 -25 32 -66zM-117 602q-26 0 -70.5 17t-64.5 17q-35 0 -69 -38l-35 28q14 34 42.5 54 t59.5 20q22 0 64.5 -17.5t66.5 -17.5q35 0 66 37l38 -27q-12 -34 -40 -53.5t-58 -19.5z" />
<glyph unicode="&#x1f60;" horiz-adv-x="781" d="M731 240q0 -49 -9 -90.5t-30.5 -78.5t-62.5 -58t-99 -21q-49 0 -87 23.5t-54 59.5h-6q-49 -83 -151 -83q-99 0 -140.5 62.5t-41.5 177.5q0 113 50 183.5t160 72.5v-66q-74 -4 -104.5 -51t-30.5 -133q0 -57 8 -94t34.5 -63t73.5 -26q57 0 83.5 39.5t26.5 92.5v144h74v-147 q0 -56 29 -92.5t79 -36.5q122 0 122 183q0 84 -31 132t-105 52v66q110 -2 161 -71t51 -177zM378 534l-31 20q32 48 32 86q0 41 -64 66l24 74q110 -31 110 -116q0 -31 -18.5 -66.5t-52.5 -63.5z" />
<glyph unicode="&#x1f61;" horiz-adv-x="781" d="M731 240q0 -49 -9 -90.5t-30.5 -78.5t-62.5 -58t-99 -21q-49 0 -87 23.5t-54 59.5h-6q-49 -83 -151 -83q-99 0 -140.5 62.5t-41.5 177.5q0 113 50 183.5t160 72.5v-66q-74 -4 -104.5 -51t-30.5 -133q0 -57 8 -94t34.5 -63t73.5 -26q57 0 83.5 39.5t26.5 92.5v144h74v-147 q0 -56 29 -92.5t79 -36.5q122 0 122 183q0 84 -31 132t-105 52v66q110 -2 161 -71t51 -177zM423 554l-32 -20q-33 28 -51.5 63.5t-18.5 66.5q0 85 109 116l25 -74q-64 -25 -64 -66q0 -38 32 -86z" />
<glyph unicode="&#x1f62;" horiz-adv-x="781" d="M731 240q0 -49 -9 -90.5t-30.5 -78.5t-62.5 -58t-99 -21q-49 0 -87 23.5t-54 59.5h-6q-49 -83 -151 -83q-99 0 -140.5 62.5t-41.5 177.5q0 113 50 183.5t160 72.5v-66q-74 -4 -104.5 -51t-30.5 -133q0 -57 8 -94t34.5 -63t73.5 -26q57 0 83.5 39.5t26.5 92.5v144h74v-147 q0 -56 29 -92.5t79 -36.5q122 0 122 183q0 84 -31 132t-105 52v66q110 -2 161 -71t51 -177zM545 569l-46 -22l-128 215l79 31zM307 535l-31 20q32 47 32 85q0 22 -14.5 37t-50.5 28q4 20 21 78q114 -37 114 -121q0 -29 -19.5 -63.5t-51.5 -63.5z" />
<glyph unicode="&#x1f63;" horiz-adv-x="781" d="M731 240q0 -49 -9 -90.5t-30.5 -78.5t-62.5 -58t-99 -21q-49 0 -87 23.5t-54 59.5h-6q-49 -83 -151 -83q-99 0 -140.5 62.5t-41.5 177.5q0 113 50 183.5t160 72.5v-66q-74 -4 -104.5 -51t-30.5 -133q0 -57 8 -94t34.5 -63t73.5 -26q57 0 83.5 39.5t26.5 92.5v144h74v-147 q0 -56 29 -92.5t79 -36.5q122 0 122 183q0 84 -31 132t-105 52v66q110 -2 161 -71t51 -177zM549 560l-46 -21q-25 41 -70.5 117.5t-57.5 97.5q63 24 79 31q64 -150 95 -225zM336 553l-31 -20q-33 28 -51.5 63.5t-18.5 66.5q0 85 109 116q12 -33 25 -74q-64 -25 -64 -66 q0 -39 31 -86z" />
<glyph unicode="&#x1f64;" horiz-adv-x="781" d="M731 240q0 -49 -9 -90.5t-30.5 -78.5t-62.5 -58t-99 -21q-49 0 -87 23.5t-54 59.5h-6q-49 -83 -151 -83q-99 0 -140.5 62.5t-41.5 177.5q0 113 50 183.5t160 72.5v-66q-74 -4 -104.5 -51t-30.5 -133q0 -57 8 -94t34.5 -63t73.5 -26q57 0 83.5 39.5t26.5 92.5v144h74v-147 q0 -56 29 -92.5t79 -36.5q122 0 122 183q0 84 -31 132t-105 52v66q110 -2 161 -71t51 -177zM428 538l-47 22l96 224q63 -24 79 -31q-25 -41 -70.5 -117.5t-57.5 -97.5zM301 539q-11 6 -31 20q31 47 31 86q0 42 -64 65q16 50 25 75q109 -31 109 -116q0 -31 -18.5 -66.5 t-51.5 -63.5z" />
<glyph unicode="&#x1f65;" horiz-adv-x="781" d="M731 240q0 -49 -9 -90.5t-30.5 -78.5t-62.5 -58t-99 -21q-49 0 -87 23.5t-54 59.5h-6q-49 -83 -151 -83q-99 0 -140.5 62.5t-41.5 177.5q0 113 50 183.5t160 72.5v-66q-74 -4 -104.5 -51t-30.5 -133q0 -57 8 -94t34.5 -63t73.5 -26q57 0 83.5 39.5t26.5 92.5v144h74v-147 q0 -56 29 -92.5t79 -36.5q122 0 122 183q0 84 -31 132t-105 52v66q110 -2 161 -71t51 -177zM424 539l-47 21q36 81 96 225q25 -11 79 -31q-76 -129 -128 -215zM343 554l-31 -20q-34 29 -52.5 64t-18.5 66q0 85 110 116q14 -46 25 -74q-65 -23 -65 -66q0 -38 32 -86z" />
<glyph unicode="&#x1f66;" horiz-adv-x="781" d="M731 240q0 -49 -9 -90.5t-30.5 -78.5t-62.5 -58t-99 -21q-49 0 -87 23.5t-54 59.5h-6q-49 -83 -151 -83q-99 0 -140.5 62.5t-41.5 177.5q0 113 50 183.5t160 72.5v-66q-74 -4 -104.5 -51t-30.5 -133q0 -57 8 -94t34.5 -63t73.5 -26q57 0 83.5 39.5t26.5 92.5v144h74v-147 q0 -56 29 -92.5t79 -36.5q122 0 122 183q0 84 -31 132t-105 52v66q110 -2 161 -71t51 -177zM392 523l-36 17q32 39 32 66q0 40 -60 44l20 65q55 -9 82 -33.5t27 -57.5q0 -54 -65 -101zM457 729q-25 0 -70.5 18.5t-65.5 18.5q-32 0 -67 -39l-35 28q14 34 42.5 54.5t59.5 20.5 q22 0 64.5 -18t66.5 -18q35 0 66 37l38 -26q-12 -35 -40 -55.5t-59 -20.5z" />
<glyph unicode="&#x1f67;" horiz-adv-x="781" d="M731 240q0 -49 -9 -90.5t-30.5 -78.5t-62.5 -58t-99 -21q-49 0 -87 23.5t-54 59.5h-6q-49 -83 -151 -83q-99 0 -140.5 62.5t-41.5 177.5q0 113 50 183.5t160 72.5v-66q-74 -4 -104.5 -51t-30.5 -133q0 -57 8 -94t34.5 -63t73.5 -26q57 0 83.5 39.5t26.5 92.5v144h74v-147 q0 -56 29 -92.5t79 -36.5q122 0 122 183q0 84 -31 132t-105 52v66q110 -2 161 -71t51 -177zM416 536l-35 -17q-65 47 -65 101q0 33 27 57.5t82 33.5l20 -65q-61 -4 -61 -44q0 -25 32 -66zM461 735q-26 0 -70.5 17t-64.5 17q-35 0 -69 -38l-35 28q14 34 42.5 54t59.5 20 q22 0 64.5 -17.5t66.5 -17.5q35 0 66 37l38 -27q-12 -34 -40 -53.5t-58 -19.5z" />
<glyph unicode="&#x1f68;" horiz-adv-x="713" d="M356 613q-108 -1 -165 -73.5t-57 -197.5q0 -121 39 -185t116 -85v-72h-257v69h122l2 3q-100 73 -100 262q0 72 17.5 133t53 110t95.5 77t139 28q78 0 136.5 -28t93 -76.5t51 -108.5t16.5 -129q0 -79 -26.5 -153.5t-78.5 -114.5l2 -3h121v-69h-252v71q154 46 154 274 q0 124 -57.5 196t-164.5 72zM-43 462l-31 20q32 48 32 86q0 41 -64 66l24 74q110 -31 110 -116q0 -31 -18.5 -66.5t-52.5 -63.5z" />
<glyph unicode="&#x1f69;" horiz-adv-x="713" d="M356 613q-108 -1 -165 -73.5t-57 -197.5q0 -121 39 -185t116 -85v-72h-257v69h122l2 3q-100 73 -100 262q0 72 17.5 133t53 110t95.5 77t139 28q78 0 136.5 -28t93 -76.5t51 -108.5t16.5 -129q0 -79 -26.5 -153.5t-78.5 -114.5l2 -3h121v-69h-252v71q154 46 154 274 q0 124 -57.5 196t-164.5 72zM10 482l-32 -20q-33 28 -51.5 63.5t-18.5 66.5q0 85 109 116l25 -74q-64 -25 -64 -66q0 -38 32 -86z" />
<glyph unicode="&#x1f6a;" horiz-adv-x="713" d="M356 613q-108 -1 -165 -73.5t-57 -197.5q0 -121 39 -185t116 -85v-72h-257v69h122l2 3q-100 73 -100 262q0 72 17.5 133t53 110t95.5 77t139 28q78 0 136.5 -28t93 -76.5t51 -108.5t16.5 -129q0 -79 -26.5 -153.5t-78.5 -114.5l2 -3h121v-69h-252v71q154 46 154 274 q0 124 -57.5 196t-164.5 72zM39 484l-46 -22l-128 215l79 31zM-199 450l-31 20q32 47 32 85q0 22 -14.5 37t-50.5 28q4 20 21 78q114 -37 114 -121q0 -29 -19.5 -63.5t-51.5 -63.5z" />
<glyph unicode="&#x1f6b;" horiz-adv-x="713" d="M356 613q-108 -1 -165 -73.5t-57 -197.5q0 -121 39 -185t116 -85v-72h-257v69h122l2 3q-100 73 -100 262q0 72 17.5 133t53 110t95.5 77t139 28q78 0 136.5 -28t93 -76.5t51 -108.5t16.5 -129q0 -79 -26.5 -153.5t-78.5 -114.5l2 -3h121v-69h-252v71q154 46 154 274 q0 124 -57.5 196t-164.5 72zM35 484l-46 -21q-25 41 -70.5 117.5t-57.5 97.5q63 24 79 31q64 -150 95 -225zM-178 477l-31 -20q-33 28 -51.5 63.5t-18.5 66.5q0 85 109 116q12 -33 25 -74q-64 -25 -64 -66q0 -39 31 -86z" />
<glyph unicode="&#x1f6c;" horiz-adv-x="713" d="M356 613q-108 -1 -165 -73.5t-57 -197.5q0 -121 39 -185t116 -85v-72h-257v69h122l2 3q-100 73 -100 262q0 72 17.5 133t53 110t95.5 77t139 28q78 0 136.5 -28t93 -76.5t51 -108.5t16.5 -129q0 -79 -26.5 -153.5t-78.5 -114.5l2 -3h121v-69h-252v71q154 46 154 274 q0 124 -57.5 196t-164.5 72zM-40 458l-47 22l96 224q63 -24 79 -31q-25 -41 -70.5 -117.5t-57.5 -97.5zM-167 459q-11 6 -31 20q31 47 31 86q0 42 -64 65q16 50 25 75q109 -31 109 -116q0 -31 -18.5 -66.5t-51.5 -63.5z" />
<glyph unicode="&#x1f6d;" horiz-adv-x="713" d="M356 613q-108 -1 -165 -73.5t-57 -197.5q0 -121 39 -185t116 -85v-72h-257v69h122l2 3q-100 73 -100 262q0 72 17.5 133t53 110t95.5 77t139 28q78 0 136.5 -28t93 -76.5t51 -108.5t16.5 -129q0 -79 -26.5 -153.5t-78.5 -114.5l2 -3h121v-69h-252v71q154 46 154 274 q0 124 -57.5 196t-164.5 72zM-41 458l-47 21q36 81 96 225q25 -11 79 -31q-76 -129 -128 -215zM-122 473l-31 -20q-34 29 -52.5 64t-18.5 66q0 85 110 116q14 -46 25 -74q-65 -23 -65 -66q0 -38 32 -86z" />
<glyph unicode="&#x1f6e;" horiz-adv-x="713" d="M356 613q-108 -1 -165 -73.5t-57 -197.5q0 -121 39 -185t116 -85v-72h-257v69h122l2 3q-100 73 -100 262q0 72 17.5 133t53 110t95.5 77t139 28q78 0 136.5 -28t93 -76.5t51 -108.5t16.5 -129q0 -79 -26.5 -153.5t-78.5 -114.5l2 -3h121v-69h-252v71q154 46 154 274 q0 124 -57.5 196t-164.5 72zM-90 405l-36 17q32 39 32 66q0 40 -60 44l20 65q55 -9 82 -33.5t27 -57.5q0 -54 -65 -101zM-25 611q-25 0 -70.5 18.5t-65.5 18.5q-32 0 -67 -39l-35 28q14 34 42.5 54.5t59.5 20.5q22 0 64.5 -18t66.5 -18q35 0 66 37l38 -26q-12 -35 -40 -55.5 t-59 -20.5z" />
<glyph unicode="&#x1f6f;" horiz-adv-x="713" d="M356 613q-108 -1 -165 -73.5t-57 -197.5q0 -121 39 -185t116 -85v-72h-257v69h122l2 3q-100 73 -100 262q0 72 17.5 133t53 110t95.5 77t139 28q78 0 136.5 -28t93 -76.5t51 -108.5t16.5 -129q0 -79 -26.5 -153.5t-78.5 -114.5l2 -3h121v-69h-252v71q154 46 154 274 q0 124 -57.5 196t-164.5 72zM-66 415l-35 -17q-65 47 -65 101q0 33 27 57.5t82 33.5l20 -65q-61 -4 -61 -44q0 -25 32 -66zM-21 614q-26 0 -70.5 17t-64.5 17q-35 0 -69 -38l-35 28q14 34 42.5 54t59.5 20q22 0 64.5 -17.5t66.5 -17.5q35 0 66 37l38 -27q-12 -34 -40 -53.5 t-58 -19.5z" />
<glyph unicode="&#x1f70;" horiz-adv-x="540" d="M257 490q107 0 152 -70h4q0 36 14 62h53v-482h-57q-12 22 -12 70h-4q-47 -79 -153 -79q-110 0 -157 64.5t-47 184.5q0 109 52 179.5t155 70.5zM264 56q49 0 82.5 27t46.5 62t13 74v60q0 67 -37 108.5t-102 41.5q-142 0 -142 -187q0 -186 139 -186zM321 558l-46 -22 l-122 202l79 31z" />
<glyph unicode="&#x1f71;" horiz-adv-x="540" d="M257 490q107 0 152 -70h4q0 36 14 62h53v-482h-57q-12 22 -12 70h-4q-47 -79 -153 -79q-110 0 -157 64.5t-47 184.5q0 109 52 179.5t155 70.5zM264 56q49 0 82.5 27t46.5 62t13 74v60q0 67 -37 108.5t-102 41.5q-142 0 -142 -187q0 -186 139 -186zM283 541l-47 22l88 206 l79 -31z" />
<glyph unicode="&#x1f72;" horiz-adv-x="464" d="M248 -8q-99 0 -148.5 38.5t-49.5 103.5q0 35 18 67t60 48v4q-69 22 -69 94q0 63 46.5 103t136.5 40q80 0 131 -35t51 -101q0 -10 -1 -16l-67 -1q-3 43 -35 65.5t-85 22.5q-44 0 -72.5 -21t-28.5 -56q0 -32 22.5 -47t53.5 -15h96v-64h-96q-39 -1 -62 -23t-23 -58 q0 -37 29 -62.5t87 -25.5t92.5 29t36.5 81h66q0 -3 0.5 -9.5t0.5 -8.5q0 -75 -54.5 -114t-135.5 -39zM294 558l-46 -22l-122 202l79 31z" />
<glyph unicode="&#x1f73;" horiz-adv-x="464" d="M248 -8q-99 0 -148.5 38.5t-49.5 103.5q0 35 18 67t60 48v4q-69 22 -69 94q0 63 46.5 103t136.5 40q80 0 131 -35t51 -101q0 -10 -1 -16l-67 -1q-3 43 -35 65.5t-85 22.5q-44 0 -72.5 -21t-28.5 -56q0 -32 22.5 -47t53.5 -15h96v-64h-96q-39 -1 -62 -23t-23 -58 q0 -37 29 -62.5t87 -25.5t92.5 29t36.5 81h66q0 -3 0.5 -9.5t0.5 -8.5q0 -75 -54.5 -114t-135.5 -39zM256 541l-47 22l88 206l79 -31z" />
<glyph unicode="&#x1f74;" horiz-adv-x="534" d="M293 491q58 0 96 -17.5t55.5 -50.5t23.5 -65t6 -76v-282h-76v278q0 72 -25 112t-96 40q-67 0 -105 -49.5t-38 -113.5v-267h-74v482h56q16 -27 16 -71h4q26 39 71.5 59.5t85.5 20.5zM275 558l-46 -22l-122 202l79 31z" />
<glyph unicode="&#x1f75;" horiz-adv-x="534" d="M293 491q58 0 96 -17.5t55.5 -50.5t23.5 -65t6 -76v-282h-76v278q0 72 -25 112t-96 40q-67 0 -105 -49.5t-38 -113.5v-267h-74v482h56q16 -27 16 -71h4q26 39 71.5 59.5t85.5 20.5zM251 541l-47 22l88 206l79 -31z" />
<glyph unicode="&#x1f76;" horiz-adv-x="248" d="M87 0v482h75v-482h-75zM150 558l-46 -22l-122 202l79 31z" />
<glyph unicode="&#x1f77;" horiz-adv-x="248" d="M87 0v482h75v-482h-75zM144 541l-47 22l88 206l79 -31z" />
<glyph unicode="&#x1f78;" horiz-adv-x="543" d="M273 490q61 0 105 -21t68.5 -57.5t35.5 -79t11 -92.5q0 -49 -11 -91t-35.5 -78.5t-69 -57.5t-104.5 -21q-223 0 -223 246q0 113 56 182.5t167 69.5zM273 422q-147 0 -147 -184q0 -181 147 -181q143 0 143 183q0 182 -143 182zM321 558l-46 -22l-122 202l79 31z" />
<glyph unicode="&#x1f79;" horiz-adv-x="543" d="M273 490q61 0 105 -21t68.5 -57.5t35.5 -79t11 -92.5q0 -49 -11 -91t-35.5 -78.5t-69 -57.5t-104.5 -21q-223 0 -223 246q0 113 56 182.5t167 69.5zM273 422q-147 0 -147 -184q0 -181 147 -181q143 0 143 183q0 182 -143 182zM300 541l-47 22l88 206l79 -31z" />
<glyph unicode="&#x1f7a;" horiz-adv-x="527" d="M309 558l-46 -22l-122 202l79 31zM468 185q0 -96 -54.5 -144.5t-152.5 -48.5q-202 0 -202 193v297h75v-291q0 -69 34 -102t94 -33t95.5 33t35.5 103v290h75v-297z" />
<glyph unicode="&#x1f7b;" horiz-adv-x="527" d="M270 541l-47 22l88 206l79 -31zM468 185q0 -96 -54.5 -144.5t-152.5 -48.5q-202 0 -202 193v297h75v-291q0 -69 34 -102t94 -33t95.5 33t35.5 103v290h75v-297z" />
<glyph unicode="&#x1f7c;" horiz-adv-x="781" d="M731 240q0 -49 -9 -90.5t-30.5 -78.5t-62.5 -58t-99 -21q-49 0 -87 23.5t-54 59.5h-6q-49 -83 -151 -83q-99 0 -140.5 62.5t-41.5 177.5q0 113 50 183.5t160 72.5v-66q-74 -4 -104.5 -51t-30.5 -133q0 -57 8 -94t34.5 -63t73.5 -26q57 0 83.5 39.5t26.5 92.5v144h74v-147 q0 -56 29 -92.5t79 -36.5q122 0 122 183q0 84 -31 132t-105 52v66q110 -2 161 -71t51 -177zM431 558l-46 -22l-122 202l79 31z" />
<glyph unicode="&#x1f7d;" horiz-adv-x="781" d="M731 240q0 -49 -9 -90.5t-30.5 -78.5t-62.5 -58t-99 -21q-49 0 -87 23.5t-54 59.5h-6q-49 -83 -151 -83q-99 0 -140.5 62.5t-41.5 177.5q0 113 50 183.5t160 72.5v-66q-74 -4 -104.5 -51t-30.5 -133q0 -57 8 -94t34.5 -63t73.5 -26q57 0 83.5 39.5t26.5 92.5v144h74v-147 q0 -56 29 -92.5t79 -36.5q122 0 122 183q0 84 -31 132t-105 52v66q110 -2 161 -71t51 -177zM409 541l-47 22l88 206l79 -31z" />
<glyph unicode="&#x1f80;" horiz-adv-x="540" d="M257 490q107 0 152 -70h4q0 36 14 62h53v-482h-57q-12 22 -12 70h-4q-47 -79 -153 -79q-110 0 -157 64.5t-47 184.5q0 109 52 179.5t155 70.5zM264 56q49 0 82.5 27t46.5 62t13 74v60q0 67 -37 108.5t-102 41.5q-142 0 -142 -187q0 -186 139 -186zM267 534l-31 20 q32 48 32 86q0 41 -64 66l24 74q110 -31 110 -116q0 -31 -18.5 -66.5t-52.5 -63.5zM239 -64h68v-81q0 -18 3 -27.5t14.5 -14t21 -5t34.5 -0.5v-55q-20 -5 -41 -5q-61 0 -80.5 25.5t-19.5 78.5v84z" />
<glyph unicode="&#x1f81;" horiz-adv-x="540" d="M257 490q107 0 152 -70h4q0 36 14 62h53v-482h-57q-12 22 -12 70h-4q-47 -79 -153 -79q-110 0 -157 64.5t-47 184.5q0 109 52 179.5t155 70.5zM264 56q49 0 82.5 27t46.5 62t13 74v60q0 67 -37 108.5t-102 41.5q-142 0 -142 -187q0 -186 139 -186zM244 -64h68v-81 q0 -18 3 -27.5t14.5 -14t21 -5t34.5 -0.5v-55q-20 -5 -41 -5q-61 0 -80.5 25.5t-19.5 78.5v84zM306 554l-32 -20q-33 28 -51.5 63.5t-18.5 66.5q0 85 109 116l25 -74q-64 -25 -64 -66q0 -38 32 -86z" />
<glyph unicode="&#x1f82;" horiz-adv-x="540" d="M257 490q107 0 152 -70h4q0 36 14 62h53v-482h-57q-12 22 -12 70h-4q-47 -79 -153 -79q-110 0 -157 64.5t-47 184.5q0 109 52 179.5t155 70.5zM264 56q49 0 82.5 27t46.5 62t13 74v60q0 67 -37 108.5t-102 41.5q-142 0 -142 -187q0 -186 139 -186zM246 -64h68v-81 q0 -18 3 -27.5t14.5 -14t21 -5t34.5 -0.5v-55q-20 -5 -41 -5q-61 0 -80.5 25.5t-19.5 78.5v84zM430 569l-46 -22l-128 215l79 31zM192 535l-31 20q32 47 32 85q0 22 -14.5 37t-50.5 28q4 20 21 78q114 -37 114 -121q0 -29 -19.5 -63.5t-51.5 -63.5z" />
<glyph unicode="&#x1f83;" horiz-adv-x="540" d="M257 490q107 0 152 -70h4q0 36 14 62h53v-482h-57q-12 22 -12 70h-4q-47 -79 -153 -79q-110 0 -157 64.5t-47 184.5q0 109 52 179.5t155 70.5zM264 56q49 0 82.5 27t46.5 62t13 74v60q0 67 -37 108.5t-102 41.5q-142 0 -142 -187q0 -186 139 -186zM246 -64h68v-81 q0 -18 3 -27.5t14.5 -14t21 -5t34.5 -0.5v-55q-20 -5 -41 -5q-61 0 -80.5 25.5t-19.5 78.5v84zM427 560l-46 -21q-25 41 -70.5 117.5t-57.5 97.5q63 24 79 31q64 -150 95 -225zM214 553l-31 -20q-33 28 -51.5 63.5t-18.5 66.5q0 85 109 116q12 -33 25 -74q-64 -25 -64 -66 q0 -39 31 -86z" />
<glyph unicode="&#x1f84;" horiz-adv-x="540" d="M257 490q107 0 152 -70h4q0 36 14 62h53v-482h-57q-12 22 -12 70h-4q-47 -79 -153 -79q-110 0 -157 64.5t-47 184.5q0 109 52 179.5t155 70.5zM264 56q49 0 82.5 27t46.5 62t13 74v60q0 67 -37 108.5t-102 41.5q-142 0 -142 -187q0 -186 139 -186zM243 -64h68v-81 q0 -18 3 -27.5t14.5 -14t21 -5t34.5 -0.5v-55q-20 -5 -41 -5q-61 0 -80.5 25.5t-19.5 78.5v84zM349 538l-47 22l96 224q63 -24 79 -31q-25 -41 -70.5 -117.5t-57.5 -97.5zM222 539q-11 6 -31 20q31 47 31 86q0 42 -64 65q16 50 25 75q109 -31 109 -116q0 -31 -18.5 -66.5 t-51.5 -63.5z" />
<glyph unicode="&#x1f85;" horiz-adv-x="540" d="M257 490q107 0 152 -70h4q0 36 14 62h53v-482h-57q-12 22 -12 70h-4q-47 -79 -153 -79q-110 0 -157 64.5t-47 184.5q0 109 52 179.5t155 70.5zM264 56q49 0 82.5 27t46.5 62t13 74v60q0 67 -37 108.5t-102 41.5q-142 0 -142 -187q0 -186 139 -186zM243 -64h68v-81 q0 -18 3 -27.5t14.5 -14t21 -5t34.5 -0.5v-55q-20 -5 -41 -5q-61 0 -80.5 25.5t-19.5 78.5v84zM334 539l-47 21q36 81 96 225q25 -11 79 -31q-76 -129 -128 -215zM253 554l-31 -20q-34 29 -52.5 64t-18.5 66q0 85 110 116q14 -46 25 -74q-65 -23 -65 -66q0 -38 32 -86z" />
<glyph unicode="&#x1f86;" horiz-adv-x="540" d="M257 490q107 0 152 -70h4q0 36 14 62h53v-482h-57q-12 22 -12 70h-4q-47 -79 -153 -79q-110 0 -157 64.5t-47 184.5q0 109 52 179.5t155 70.5zM264 56q49 0 82.5 27t46.5 62t13 74v60q0 67 -37 108.5t-102 41.5q-142 0 -142 -187q0 -186 139 -186zM242 -64h68v-81 q0 -18 3 -27.5t14.5 -14t21 -5t34.5 -0.5v-55q-20 -5 -41 -5q-61 0 -80.5 25.5t-19.5 78.5v84zM273 531l-36 17q32 39 32 66q0 40 -60 44l20 65q55 -9 82 -33.5t27 -57.5q0 -54 -65 -101zM338 737q-25 0 -70.5 18.5t-65.5 18.5q-32 0 -67 -39l-35 28q14 34 42.5 54.5 t59.5 20.5q22 0 64.5 -18t66.5 -18q35 0 66 37l38 -26q-12 -35 -40 -55.5t-59 -20.5z" />
<glyph unicode="&#x1f87;" horiz-adv-x="540" d="M257 490q107 0 152 -70h4q0 36 14 62h53v-482h-57q-12 22 -12 70h-4q-47 -79 -153 -79q-110 0 -157 64.5t-47 184.5q0 109 52 179.5t155 70.5zM264 56q49 0 82.5 27t46.5 62t13 74v60q0 67 -37 108.5t-102 41.5q-142 0 -142 -187q0 -186 139 -186zM243 -64h68v-81 q0 -18 3 -27.5t14.5 -14t21 -5t34.5 -0.5v-55q-20 -5 -41 -5q-61 0 -80.5 25.5t-19.5 78.5v84zM295 548l-35 -17q-65 47 -65 101q0 33 27 57.5t82 33.5l20 -65q-61 -4 -61 -44q0 -25 32 -66zM340 747q-26 0 -70.5 17t-64.5 17q-35 0 -69 -38l-35 28q14 34 42.5 54t59.5 20 q22 0 64.5 -17.5t66.5 -17.5q35 0 66 37l38 -27q-12 -34 -40 -53.5t-58 -19.5z" />
<glyph unicode="&#x1f88;" horiz-adv-x="792" d="M515 0l-66 174h-295l-63 -174h-81l254 676h76l257 -676h-82zM304 582h-6q-12 -44 -57 -167l-64 -176h250l-64 170q-54 155 -59 173zM30 450l-31 20q32 48 32 86q0 41 -64 66l24 74q110 -31 110 -116q0 -31 -18.5 -66.5t-52.5 -63.5zM627 479h73v-350q0 -36 14.5 -52 t53.5 -16h19v-62q-26 -4 -37 -4q-75 0 -99 32t-24 122v330z" />
<glyph unicode="&#x1f89;" horiz-adv-x="792" d="M515 0l-66 174h-295l-63 -174h-81l254 676h76l257 -676h-82zM304 582h-6q-12 -44 -57 -167l-64 -176h250l-64 170q-54 155 -59 173zM73 472l-32 -20q-33 28 -51.5 63.5t-18.5 66.5q0 85 109 116l25 -74q-64 -25 -64 -66q0 -38 32 -86zM626 479h73v-350q0 -36 14.5 -52 t53.5 -16h19v-62q-26 -4 -37 -4q-75 0 -99 32t-24 122v330z" />
<glyph unicode="&#x1f8a;" horiz-adv-x="793" d="M515 0l-66 174h-295l-63 -174h-81l254 676h76l257 -676h-82zM304 582h-6q-12 -44 -57 -167l-64 -176h250l-64 170q-54 155 -59 173zM122 476l-46 -22l-128 215l79 31zM-116 442l-31 20q32 47 32 85q0 22 -14.5 37t-50.5 28q4 20 21 78q114 -37 114 -121 q0 -29 -19.5 -63.5t-51.5 -63.5zM627 479h73v-350q0 -36 14.5 -52t53.5 -16h19v-62q-26 -4 -37 -4q-75 0 -99 32t-24 122v330z" />
<glyph unicode="&#x1f8b;" horiz-adv-x="792" d="M515 0l-66 174h-295l-63 -174h-81l254 676h76l257 -676h-82zM304 582h-6q-12 -44 -57 -167l-64 -176h250l-64 170q-54 155 -59 173zM116 473l-46 -21q-25 41 -70.5 117.5t-57.5 97.5q63 24 79 31q64 -150 95 -225zM-97 466l-31 -20q-33 28 -51.5 63.5t-18.5 66.5 q0 85 109 116q12 -33 25 -74q-64 -25 -64 -66q0 -39 31 -86zM626 479h73v-350q0 -36 14.5 -52t53.5 -16h19v-62q-26 -4 -37 -4q-75 0 -99 32t-24 122v330z" />
<glyph unicode="&#x1f8c;" horiz-adv-x="793" d="M515 0l-66 174h-295l-63 -174h-81l254 676h76l257 -676h-82zM304 582h-6q-12 -44 -57 -167l-64 -176h250l-64 170q-54 155 -59 173zM23 451l-47 22l96 224q63 -24 79 -31q-25 -41 -70.5 -117.5t-57.5 -97.5zM-104 452q-11 6 -31 20q31 47 31 86q0 42 -64 65q16 50 25 75 q109 -31 109 -116q0 -31 -18.5 -66.5t-51.5 -63.5zM627 479h73v-350q0 -36 14.5 -52t53.5 -16h19v-62q-26 -4 -37 -4q-75 0 -99 32t-24 122v330z" />
<glyph unicode="&#x1f8d;" horiz-adv-x="795" d="M515 0l-66 174h-295l-63 -174h-81l254 676h76l257 -676h-82zM304 582h-6q-12 -44 -57 -167l-64 -176h250l-64 170q-54 155 -59 173zM19 452l-47 21q36 81 96 225q25 -11 79 -31q-76 -129 -128 -215zM-62 467l-31 -20q-34 29 -52.5 64t-18.5 66q0 85 110 116 q14 -46 25 -74q-65 -23 -65 -66q0 -38 32 -86zM629 479h73v-350q0 -36 14.5 -52t53.5 -16h19v-62q-26 -4 -37 -4q-75 0 -99 32t-24 122v330z" />
<glyph unicode="&#x1f8e;" horiz-adv-x="796" d="M515 0l-66 174h-295l-63 -174h-81l254 676h76l257 -676h-82zM304 582h-6q-12 -44 -57 -167l-64 -176h250l-64 170q-54 155 -59 173zM-19 395l-36 17q32 39 32 66q0 40 -60 44l20 65q55 -9 82 -33.5t27 -57.5q0 -54 -65 -101zM46 601q-25 0 -70.5 18.5t-65.5 18.5 q-32 0 -67 -39l-35 28q14 34 42.5 54.5t59.5 20.5q22 0 64.5 -18t66.5 -18q35 0 66 37l38 -26q-12 -35 -40 -55.5t-59 -20.5zM630 479h73v-350q0 -36 14.5 -52t53.5 -16h19v-62q-26 -4 -37 -4q-75 0 -99 32t-24 122v330z" />
<glyph unicode="&#x1f8f;" horiz-adv-x="793" d="M515 0l-66 174h-295l-63 -174h-81l254 676h76l257 -676h-82zM304 582h-6q-12 -44 -57 -167l-64 -176h250l-64 170q-54 155 -59 173zM19 409l-35 -17q-65 47 -65 101q0 33 27 57.5t82 33.5l20 -65q-61 -4 -61 -44q0 -25 32 -66zM64 608q-26 0 -70.5 17t-64.5 17 q-35 0 -69 -38l-35 28q14 34 42.5 54t59.5 20q22 0 64.5 -17.5t66.5 -17.5q35 0 66 37l38 -27q-12 -34 -40 -53.5t-58 -19.5zM627 479h73v-350q0 -36 14.5 -52t53.5 -16h19v-62q-26 -4 -37 -4q-75 0 -99 32t-24 122v330z" />
<glyph unicode="&#x1f90;" horiz-adv-x="534" d="M293 491q58 0 96 -17.5t55.5 -50.5t23.5 -65t6 -76v-282h-76v278q0 72 -25 112t-96 40q-67 0 -105 -49.5t-38 -113.5v-267h-74v482h56q16 -27 16 -71h4q26 39 71.5 59.5t85.5 20.5zM247 542l-31 20q32 48 32 86q0 41 -64 66l24 74q110 -31 110 -116q0 -31 -18.5 -66.5 t-52.5 -63.5zM231 -64h68v-81q0 -18 3 -27.5t14.5 -14t21 -5t34.5 -0.5v-55q-20 -5 -41 -5q-61 0 -80.5 25.5t-19.5 78.5v84z" />
<glyph unicode="&#x1f91;" horiz-adv-x="534" d="M293 491q58 0 96 -17.5t55.5 -50.5t23.5 -65t6 -76v-282h-76v278q0 72 -25 112t-96 40q-67 0 -105 -49.5t-38 -113.5v-267h-74v482h56q16 -27 16 -71h4q26 39 71.5 59.5t85.5 20.5zM242 -64h68v-81q0 -18 3 -27.5t14.5 -14t21 -5t34.5 -0.5v-55q-20 -5 -41 -5 q-61 0 -80.5 25.5t-19.5 78.5v84zM305 558l-32 -20q-33 28 -51.5 63.5t-18.5 66.5q0 85 109 116l25 -74q-64 -25 -64 -66q0 -38 32 -86z" />
<glyph unicode="&#x1f92;" horiz-adv-x="534" d="M293 491q58 0 96 -17.5t55.5 -50.5t23.5 -65t6 -76v-282h-76v278q0 72 -25 112t-96 40q-67 0 -105 -49.5t-38 -113.5v-267h-74v482h56q16 -27 16 -71h4q26 39 71.5 59.5t85.5 20.5zM242 -64h68v-81q0 -18 3 -27.5t14.5 -14t21 -5t34.5 -0.5v-55q-20 -5 -41 -5 q-61 0 -80.5 25.5t-19.5 78.5v84zM418 569l-46 -22l-128 215l79 31zM180 535l-31 20q32 47 32 85q0 22 -14.5 37t-50.5 28q4 20 21 78q114 -37 114 -121q0 -29 -19.5 -63.5t-51.5 -63.5z" />
<glyph unicode="&#x1f93;" horiz-adv-x="534" d="M293 491q58 0 96 -17.5t55.5 -50.5t23.5 -65t6 -76v-282h-76v278q0 72 -25 112t-96 40q-67 0 -105 -49.5t-38 -113.5v-267h-74v482h56q16 -27 16 -71h4q26 39 71.5 59.5t85.5 20.5zM242 -64h68v-81q0 -18 3 -27.5t14.5 -14t21 -5t34.5 -0.5v-55q-20 -5 -41 -5 q-61 0 -80.5 25.5t-19.5 78.5v84zM418 560l-46 -21q-25 41 -70.5 117.5t-57.5 97.5q63 24 79 31q64 -150 95 -225zM205 553l-31 -20q-33 28 -51.5 63.5t-18.5 66.5q0 85 109 116q12 -33 25 -74q-64 -25 -64 -66q0 -39 31 -86z" />
<glyph unicode="&#x1f94;" horiz-adv-x="534" d="M293 491q58 0 96 -17.5t55.5 -50.5t23.5 -65t6 -76v-282h-76v278q0 72 -25 112t-96 40q-67 0 -105 -49.5t-38 -113.5v-267h-74v482h56q16 -27 16 -71h4q26 39 71.5 59.5t85.5 20.5zM242 -64h68v-81q0 -18 3 -27.5t14.5 -14t21 -5t34.5 -0.5v-55q-20 -5 -41 -5 q-61 0 -80.5 25.5t-19.5 78.5v84zM320 538l-47 22l96 224q63 -24 79 -31q-25 -41 -70.5 -117.5t-57.5 -97.5zM193 539q-11 6 -31 20q31 47 31 86q0 42 -64 65q16 50 25 75q109 -31 109 -116q0 -31 -18.5 -66.5t-51.5 -63.5z" />
<glyph unicode="&#x1f95;" horiz-adv-x="534" d="M293 491q58 0 96 -17.5t55.5 -50.5t23.5 -65t6 -76v-282h-76v278q0 72 -25 112t-96 40q-67 0 -105 -49.5t-38 -113.5v-267h-74v482h56q16 -27 16 -71h4q26 39 71.5 59.5t85.5 20.5zM241 -64h68v-81q0 -18 3 -27.5t14.5 -14t21 -5t34.5 -0.5v-55q-20 -5 -41 -5 q-61 0 -80.5 25.5t-19.5 78.5v84zM305 539l-47 21q36 81 96 225q25 -11 79 -31q-76 -129 -128 -215zM224 554l-31 -20q-34 29 -52.5 64t-18.5 66q0 85 110 116q14 -46 25 -74q-65 -23 -65 -66q0 -38 32 -86z" />
<glyph unicode="&#x1f96;" horiz-adv-x="534" d="M293 491q58 0 96 -17.5t55.5 -50.5t23.5 -65t6 -76v-282h-76v278q0 72 -25 112t-96 40q-67 0 -105 -49.5t-38 -113.5v-267h-74v482h56q16 -27 16 -71h4q26 39 71.5 59.5t85.5 20.5zM241 -64h68v-81q0 -18 3 -27.5t14.5 -14t21 -5t34.5 -0.5v-55q-20 -5 -41 -5 q-61 0 -80.5 25.5t-19.5 78.5v84zM254 531l-36 17q32 39 32 66q0 40 -60 44l20 65q55 -9 82 -33.5t27 -57.5q0 -54 -65 -101zM319 737q-25 0 -70.5 18.5t-65.5 18.5q-32 0 -67 -39l-35 28q14 34 42.5 54.5t59.5 20.5q22 0 64.5 -18t66.5 -18q35 0 66 37l38 -26 q-12 -35 -40 -55.5t-59 -20.5z" />
<glyph unicode="&#x1f97;" horiz-adv-x="534" d="M293 491q58 0 96 -17.5t55.5 -50.5t23.5 -65t6 -76v-282h-76v278q0 72 -25 112t-96 40q-67 0 -105 -49.5t-38 -113.5v-267h-74v482h56q16 -27 16 -71h4q26 39 71.5 59.5t85.5 20.5zM243 -64h68v-81q0 -18 3 -27.5t14.5 -14t21 -5t34.5 -0.5v-55q-20 -5 -41 -5 q-61 0 -80.5 25.5t-19.5 78.5v84zM288 547l-35 -17q-65 47 -65 101q0 33 27 57.5t82 33.5l20 -65q-61 -4 -61 -44q0 -25 32 -66zM333 746q-26 0 -70.5 17t-64.5 17q-35 0 -69 -38l-35 28q14 34 42.5 54t59.5 20q22 0 64.5 -17.5t66.5 -17.5q35 0 66 37l38 -27 q-12 -34 -40 -53.5t-58 -19.5z" />
<glyph unicode="&#x1f98;" horiz-adv-x="838" d="M517 0v311h-376v-311h-76v675h76v-294h376v294h76v-675h-76zM-90 448l-31 20q32 48 32 86q0 41 -64 66l24 74q110 -31 110 -116q0 -31 -18.5 -66.5t-52.5 -63.5zM671 479h73v-350q0 -36 14.5 -52t53.5 -16h19v-62q-26 -4 -37 -4q-75 0 -99 32t-24 122v330z" />
<glyph unicode="&#x1f99;" horiz-adv-x="834" d="M517 0v311h-376v-311h-76v675h76v-294h376v294h76v-675h-76zM-50 470l-32 -20q-33 28 -51.5 63.5t-18.5 66.5q0 85 109 116l25 -74q-64 -25 -64 -66q0 -38 32 -86zM667 479h73v-350q0 -36 14.5 -52t53.5 -16h19v-62q-26 -4 -37 -4q-75 0 -99 32t-24 122v330z" />
<glyph unicode="&#x1f9a;" horiz-adv-x="835" d="M517 0v311h-376v-311h-76v675h76v-294h376v294h76v-675h-76zM27 477l-46 -22l-128 215l79 31zM-211 443l-31 20q32 47 32 85q0 22 -14.5 37t-50.5 28q4 20 21 78q114 -37 114 -121q0 -29 -19.5 -63.5t-51.5 -63.5zM668 479h73v-350q0 -36 14.5 -52t53.5 -16h19v-62 q-26 -4 -37 -4q-75 0 -99 32t-24 122v330z" />
<glyph unicode="&#x1f9b;" horiz-adv-x="836" d="M517 0v311h-376v-311h-76v675h76v-294h376v294h76v-675h-76zM16 471l-46 -21q-25 41 -70.5 117.5t-57.5 97.5q63 24 79 31q64 -150 95 -225zM-197 464l-31 -20q-33 28 -51.5 63.5t-18.5 66.5q0 85 109 116q12 -33 25 -74q-64 -25 -64 -66q0 -39 31 -86zM669 479h73v-350 q0 -36 14.5 -52t53.5 -16h19v-62q-26 -4 -37 -4q-75 0 -99 32t-24 122v330z" />
<glyph unicode="&#x1f9c;" horiz-adv-x="835" d="M517 0v311h-376v-311h-76v675h76v-294h376v294h76v-675h-76zM-101 451l-47 22l96 224q63 -24 79 -31q-25 -41 -70.5 -117.5t-57.5 -97.5zM-228 452q-11 6 -31 20q31 47 31 86q0 42 -64 65q16 50 25 75q109 -31 109 -116q0 -31 -18.5 -66.5t-51.5 -63.5zM668 479h73v-350 q0 -36 14.5 -52t53.5 -16h19v-62q-26 -4 -37 -4q-75 0 -99 32t-24 122v330z" />
<glyph unicode="&#x1f9d;" horiz-adv-x="834" d="M517 0v311h-376v-311h-76v675h76v-294h376v294h76v-675h-76zM-96 449l-47 21q36 81 96 225q25 -11 79 -31q-76 -129 -128 -215zM-177 464l-31 -20q-34 29 -52.5 64t-18.5 66q0 85 110 116q14 -46 25 -74q-65 -23 -65 -66q0 -38 32 -86zM667 479h73v-350q0 -36 14.5 -52 t53.5 -16h19v-62q-26 -4 -37 -4q-75 0 -99 32t-24 122v330z" />
<glyph unicode="&#x1f9e;" horiz-adv-x="836" d="M517 0v311h-376v-311h-76v675h76v-294h376v294h76v-675h-76zM-153 387l-36 17q32 39 32 66q0 40 -60 44l20 65q55 -9 82 -33.5t27 -57.5q0 -54 -65 -101zM-88 593q-25 0 -70.5 18.5t-65.5 18.5q-32 0 -67 -39l-35 28q14 34 42.5 54.5t59.5 20.5q22 0 64.5 -18t66.5 -18 q35 0 66 37l38 -26q-12 -35 -40 -55.5t-59 -20.5zM669 479h73v-350q0 -36 14.5 -52t53.5 -16h19v-62q-26 -4 -37 -4q-75 0 -99 32t-24 122v330z" />
<glyph unicode="&#x1f9f;" horiz-adv-x="834" d="M517 0v311h-376v-311h-76v675h76v-294h376v294h76v-675h-76zM-126 400l-35 -17q-65 47 -65 101q0 33 27 57.5t82 33.5l20 -65q-61 -4 -61 -44q0 -25 32 -66zM-81 599q-26 0 -70.5 17t-64.5 17q-35 0 -69 -38l-35 28q14 34 42.5 54t59.5 20q22 0 64.5 -17.5t66.5 -17.5 q35 0 66 37l38 -27q-12 -34 -40 -53.5t-58 -19.5zM667 479h73v-350q0 -36 14.5 -52t53.5 -16h19v-62q-26 -4 -37 -4q-75 0 -99 32t-24 122v330z" />
<glyph unicode="&#x1fa0;" horiz-adv-x="781" d="M731 240q0 -49 -9 -90.5t-30.5 -78.5t-62.5 -58t-99 -21q-49 0 -87 23.5t-54 59.5h-6q-49 -83 -151 -83q-99 0 -140.5 62.5t-41.5 177.5q0 113 50 183.5t160 72.5v-66q-74 -4 -104.5 -51t-30.5 -133q0 -57 8 -94t34.5 -63t73.5 -26q57 0 83.5 39.5t26.5 92.5v144h74v-147 q0 -56 29 -92.5t79 -36.5q122 0 122 183q0 84 -31 132t-105 52v66q110 -2 161 -71t51 -177zM385 537l-31 20q32 48 32 86q0 41 -64 66l24 74q110 -31 110 -116q0 -31 -18.5 -66.5t-52.5 -63.5zM347 -64h68v-81q0 -18 3 -27.5t14.5 -14t21 -5t34.5 -0.5v-55q-20 -5 -41 -5 q-61 0 -80.5 25.5t-19.5 78.5v84z" />
<glyph unicode="&#x1fa1;" horiz-adv-x="781" d="M731 240q0 -49 -9 -90.5t-30.5 -78.5t-62.5 -58t-99 -21q-49 0 -87 23.5t-54 59.5h-6q-49 -83 -151 -83q-99 0 -140.5 62.5t-41.5 177.5q0 113 50 183.5t160 72.5v-66q-74 -4 -104.5 -51t-30.5 -133q0 -57 8 -94t34.5 -63t73.5 -26q57 0 83.5 39.5t26.5 92.5v144h74v-147 q0 -56 29 -92.5t79 -36.5q122 0 122 183q0 84 -31 132t-105 52v66q110 -2 161 -71t51 -177zM350 -64h68v-81q0 -18 3 -27.5t14.5 -14t21 -5t34.5 -0.5v-55q-20 -5 -41 -5q-61 0 -80.5 25.5t-19.5 78.5v84zM423 554l-32 -20q-33 28 -51.5 63.5t-18.5 66.5q0 85 109 116 l25 -74q-64 -25 -64 -66q0 -38 32 -86z" />
<glyph unicode="&#x1fa2;" horiz-adv-x="781" d="M731 240q0 -49 -9 -90.5t-30.5 -78.5t-62.5 -58t-99 -21q-49 0 -87 23.5t-54 59.5h-6q-49 -83 -151 -83q-99 0 -140.5 62.5t-41.5 177.5q0 113 50 183.5t160 72.5v-66q-74 -4 -104.5 -51t-30.5 -133q0 -57 8 -94t34.5 -63t73.5 -26q57 0 83.5 39.5t26.5 92.5v144h74v-147 q0 -56 29 -92.5t79 -36.5q122 0 122 183q0 84 -31 132t-105 52v66q110 -2 161 -71t51 -177zM348 -64h68v-81q0 -18 3 -27.5t14.5 -14t21 -5t34.5 -0.5v-55q-20 -5 -41 -5q-61 0 -80.5 25.5t-19.5 78.5v84zM545 569l-46 -22l-128 215l79 31zM307 535l-31 20q32 47 32 85 q0 22 -14.5 37t-50.5 28q4 20 21 78q114 -37 114 -121q0 -29 -19.5 -63.5t-51.5 -63.5z" />
<glyph unicode="&#x1fa3;" horiz-adv-x="781" d="M731 240q0 -49 -9 -90.5t-30.5 -78.5t-62.5 -58t-99 -21q-49 0 -87 23.5t-54 59.5h-6q-49 -83 -151 -83q-99 0 -140.5 62.5t-41.5 177.5q0 113 50 183.5t160 72.5v-66q-74 -4 -104.5 -51t-30.5 -133q0 -57 8 -94t34.5 -63t73.5 -26q57 0 83.5 39.5t26.5 92.5v144h74v-147 q0 -56 29 -92.5t79 -36.5q122 0 122 183q0 84 -31 132t-105 52v66q110 -2 161 -71t51 -177zM349 -64h68v-81q0 -18 3 -27.5t14.5 -14t21 -5t34.5 -0.5v-55q-20 -5 -41 -5q-61 0 -80.5 25.5t-19.5 78.5v84zM549 560l-46 -21q-25 41 -70.5 117.5t-57.5 97.5q63 24 79 31 q64 -150 95 -225zM336 553l-31 -20q-33 28 -51.5 63.5t-18.5 66.5q0 85 109 116q12 -33 25 -74q-64 -25 -64 -66q0 -39 31 -86z" />
<glyph unicode="&#x1fa4;" horiz-adv-x="781" d="M731 240q0 -49 -9 -90.5t-30.5 -78.5t-62.5 -58t-99 -21q-49 0 -87 23.5t-54 59.5h-6q-49 -83 -151 -83q-99 0 -140.5 62.5t-41.5 177.5q0 113 50 183.5t160 72.5v-66q-74 -4 -104.5 -51t-30.5 -133q0 -57 8 -94t34.5 -63t73.5 -26q57 0 83.5 39.5t26.5 92.5v144h74v-147 q0 -56 29 -92.5t79 -36.5q122 0 122 183q0 84 -31 132t-105 52v66q110 -2 161 -71t51 -177zM349 -64h68v-81q0 -18 3 -27.5t14.5 -14t21 -5t34.5 -0.5v-55q-20 -5 -41 -5q-61 0 -80.5 25.5t-19.5 78.5v84zM428 538l-47 22l96 224q63 -24 79 -31q-25 -41 -70.5 -117.5 t-57.5 -97.5zM301 539q-11 6 -31 20q31 47 31 86q0 42 -64 65q16 50 25 75q109 -31 109 -116q0 -31 -18.5 -66.5t-51.5 -63.5z" />
<glyph unicode="&#x1fa5;" horiz-adv-x="781" d="M731 240q0 -49 -9 -90.5t-30.5 -78.5t-62.5 -58t-99 -21q-49 0 -87 23.5t-54 59.5h-6q-49 -83 -151 -83q-99 0 -140.5 62.5t-41.5 177.5q0 113 50 183.5t160 72.5v-66q-74 -4 -104.5 -51t-30.5 -133q0 -57 8 -94t34.5 -63t73.5 -26q57 0 83.5 39.5t26.5 92.5v144h74v-147 q0 -56 29 -92.5t79 -36.5q122 0 122 183q0 84 -31 132t-105 52v66q110 -2 161 -71t51 -177zM350 -64h68v-81q0 -18 3 -27.5t14.5 -14t21 -5t34.5 -0.5v-55q-20 -5 -41 -5q-61 0 -80.5 25.5t-19.5 78.5v84zM422 539l-47 21q36 81 96 225q25 -11 79 -31q-76 -129 -128 -215z M341 554l-31 -20q-34 29 -52.5 64t-18.5 66q0 85 110 116q14 -46 25 -74q-65 -23 -65 -66q0 -38 32 -86z" />
<glyph unicode="&#x1fa6;" horiz-adv-x="781" d="M731 240q0 -49 -9 -90.5t-30.5 -78.5t-62.5 -58t-99 -21q-49 0 -87 23.5t-54 59.5h-6q-49 -83 -151 -83q-99 0 -140.5 62.5t-41.5 177.5q0 113 50 183.5t160 72.5v-66q-74 -4 -104.5 -51t-30.5 -133q0 -57 8 -94t34.5 -63t73.5 -26q57 0 83.5 39.5t26.5 92.5v144h74v-147 q0 -56 29 -92.5t79 -36.5q122 0 122 183q0 84 -31 132t-105 52v66q110 -2 161 -71t51 -177zM351 -64h68v-81q0 -18 3 -27.5t14.5 -14t21 -5t34.5 -0.5v-55q-20 -5 -41 -5q-61 0 -80.5 25.5t-19.5 78.5v84zM391 511l-36 17q32 39 32 66q0 40 -60 44l20 65q55 -9 82 -33.5 t27 -57.5q0 -54 -65 -101zM456 717q-25 0 -70.5 18.5t-65.5 18.5q-32 0 -67 -39l-35 28q14 34 42.5 54.5t59.5 20.5q22 0 64.5 -18t66.5 -18q35 0 66 37l38 -26q-12 -35 -40 -55.5t-59 -20.5z" />
<glyph unicode="&#x1fa7;" horiz-adv-x="781" d="M731 240q0 -49 -9 -90.5t-30.5 -78.5t-62.5 -58t-99 -21q-49 0 -87 23.5t-54 59.5h-6q-49 -83 -151 -83q-99 0 -140.5 62.5t-41.5 177.5q0 113 50 183.5t160 72.5v-66q-74 -4 -104.5 -51t-30.5 -133q0 -57 8 -94t34.5 -63t73.5 -26q57 0 83.5 39.5t26.5 92.5v144h74v-147 q0 -56 29 -92.5t79 -36.5q122 0 122 183q0 84 -31 132t-105 52v66q110 -2 161 -71t51 -177zM348 -64h68v-81q0 -18 3 -27.5t14.5 -14t21 -5t34.5 -0.5v-55q-20 -5 -41 -5q-61 0 -80.5 25.5t-19.5 78.5v84zM419 527l-35 -17q-65 47 -65 101q0 33 27 57.5t82 33.5l20 -65 q-61 -4 -61 -44q0 -25 32 -66zM464 726q-26 0 -70.5 17t-64.5 17q-35 0 -69 -38l-35 28q14 34 42.5 54t59.5 20q22 0 64.5 -17.5t66.5 -17.5q35 0 66 37l38 -27q-12 -34 -40 -53.5t-58 -19.5z" />
<glyph unicode="&#x1fa8;" horiz-adv-x="869" d="M348 613q-108 -1 -165 -73.5t-57 -197.5q0 -121 39 -185t116 -85v-72h-257v69h122l2 3q-100 73 -100 262q0 72 17.5 133t53 110t95.5 77t139 28q78 0 136.5 -28t93 -76.5t51 -108.5t16.5 -129q0 -79 -26.5 -153.5t-78.5 -114.5l2 -3h121v-69h-252v71q154 46 154 274 q0 124 -57.5 196t-164.5 72zM-63 448l-31 20q32 48 32 86q0 41 -64 66l24 74q110 -31 110 -116q0 -31 -18.5 -66.5t-52.5 -63.5zM702 479h73v-350q0 -36 14.5 -52t53.5 -16h19v-62q-26 -4 -37 -4q-75 0 -99 32t-24 122v330z" />
</font>
</defs>
</svg>
